<svg width="245" height="111" viewBox="0 0 245 111" fill="none" xmlns="http://www.w3.org/2000/svg">
<rect x="23.519" y="2.5" width="197.962" height="54" rx="27" fill="#3D00FF" fill-opacity="0.08"/>
<g filter="url(#filter0_dddiiiii_381_6218)">
<rect x="28.7485" y="7.72974" width="187.503" height="43.5405" rx="21.7702" fill="url(#paint0_radial_381_6218)" shape-rendering="crispEdges"/>
<rect x="28.7485" y="7.72974" width="187.503" height="43.5405" rx="21.7702" fill="url(#paint1_radial_381_6218)" fill-opacity="0.45" style="mix-blend-mode:plus-lighter" shape-rendering="crispEdges"/>
<rect x="29.1843" y="8.16555" width="186.631" height="42.6688" rx="21.3344" stroke="url(#paint2_radial_381_6218)" stroke-width="0.871629" shape-rendering="crispEdges"/>
<path d="M56.1257 35V24.8574H62.2073V25.9469H57.3539V29.374H61.7516V30.4636H57.3539V35H56.1257ZM64.1523 35V27.3931H65.3211V35H64.1523ZM64.7466 26.1252C64.5188 26.1252 64.3224 26.0476 64.1573 25.8925C63.9955 25.7373 63.9146 25.5508 63.9146 25.3328C63.9146 25.1149 63.9955 24.9284 64.1573 24.7732C64.3224 24.618 64.5188 24.5405 64.7466 24.5405C64.9744 24.5405 65.1692 24.618 65.331 24.7732C65.4961 24.9284 65.5786 25.1149 65.5786 25.3328C65.5786 25.5508 65.4961 25.7373 65.331 25.8925C65.1692 26.0476 64.9744 26.1252 64.7466 26.1252ZM70.77 27.3931V28.3835H66.8279V27.3931H70.77ZM67.9768 25.5706H69.1456V32.8209C69.1456 33.1511 69.1935 33.3987 69.2892 33.5638C69.3883 33.7256 69.5137 33.8345 69.6656 33.8907C69.8208 33.9435 69.9842 33.9699 70.1559 33.9699C70.2847 33.9699 70.3903 33.9633 70.4729 33.9501C70.5554 33.9336 70.6214 33.9204 70.671 33.9105L70.9087 34.9604C70.8294 34.9901 70.7188 35.0198 70.5769 35.0495C70.4349 35.0825 70.255 35.099 70.0371 35.099C69.7069 35.099 69.3833 35.0281 69.0664 34.8861C68.7527 34.7441 68.4919 34.5279 68.2839 34.2373C68.0792 33.9468 67.9768 33.5803 67.9768 33.1379V25.5706ZM79.5408 35.1585C78.8276 35.1585 78.2135 34.9901 77.6985 34.6533C77.1834 34.3166 76.7872 33.8527 76.5099 33.2617C76.2326 32.6707 76.0939 31.9955 76.0939 31.2361C76.0939 30.4636 76.2359 29.7818 76.5198 29.1908C76.807 28.5965 77.2065 28.1326 77.7183 27.7992C78.2333 27.4624 78.8342 27.294 79.521 27.294C80.0558 27.294 80.5379 27.3931 80.9671 27.5912C81.3963 27.7893 81.7479 28.0666 82.0219 28.4232C82.296 28.7797 82.466 29.1957 82.532 29.6712H81.3633C81.2741 29.3245 81.076 29.0175 80.769 28.75C80.4652 28.4793 80.0558 28.3439 79.5408 28.3439C79.0852 28.3439 78.6857 28.4628 78.3423 28.7005C78.0022 28.9349 77.7364 29.2667 77.5449 29.6959C77.3568 30.1219 77.2627 30.622 77.2627 31.1965C77.2627 31.7842 77.3551 32.296 77.54 32.7318C77.7282 33.1676 77.9923 33.506 78.3324 33.747C78.6758 33.9881 79.0785 34.1086 79.5408 34.1086C79.8445 34.1086 80.1202 34.0557 80.3678 33.9501C80.6155 33.8444 80.8251 33.6926 80.9968 33.4945C81.1685 33.2964 81.2906 33.0586 81.3633 32.7813H82.532C82.466 33.2303 82.3026 33.6348 82.0418 33.9947C81.7842 34.3512 81.4425 34.6352 81.0166 34.8465C80.594 35.0545 80.1021 35.1585 79.5408 35.1585ZM85.4094 30.424V35H84.2406V24.8574H85.4094V28.5816H85.5085C85.6867 28.1888 85.9542 27.8767 86.3108 27.6456C86.6706 27.4112 87.1494 27.294 87.747 27.294C88.2653 27.294 88.7193 27.398 89.1089 27.606C89.4985 27.8107 89.8006 28.126 90.0152 28.5519C90.2331 28.9745 90.342 29.5127 90.342 30.1664V35H89.1733V30.2457C89.1733 29.6415 89.0164 29.1743 88.7028 28.8441C88.3924 28.5107 87.9616 28.3439 87.4102 28.3439C87.0272 28.3439 86.6838 28.4248 86.3801 28.5866C86.0796 28.7484 85.8419 28.9844 85.6669 29.2948C85.4953 29.6051 85.4094 29.9815 85.4094 30.424ZM95.6696 35.1585C94.9367 35.1585 94.3044 34.9967 93.7728 34.6731C93.2446 34.3463 92.8368 33.8907 92.5496 33.3063C92.2656 32.7186 92.1237 32.0351 92.1237 31.256C92.1237 30.4768 92.2656 29.79 92.5496 29.1957C92.8368 28.5982 93.2363 28.1326 93.7481 27.7992C94.2631 27.4624 94.864 27.294 95.5508 27.294C95.947 27.294 96.3382 27.36 96.7245 27.4921C97.1108 27.6242 97.4624 27.8388 97.7794 28.1359C98.0963 28.4298 98.3489 28.8194 98.5371 29.3047C98.7253 29.79 98.8194 30.3876 98.8194 31.0975V31.5927H92.9557V30.5824H97.6308C97.6308 30.1532 97.5449 29.7702 97.3733 29.4335C97.2049 29.0967 96.9639 28.8309 96.6502 28.6361C96.3398 28.4413 95.9734 28.3439 95.5508 28.3439C95.0852 28.3439 94.6824 28.4595 94.3424 28.6906C94.0056 28.9184 93.7464 29.2156 93.5648 29.582C93.3832 29.9485 93.2925 30.3414 93.2925 30.7607V31.4342C93.2925 32.0087 93.3915 32.4957 93.5896 32.8952C93.791 33.2914 94.07 33.5935 94.4266 33.8015C94.7831 34.0062 95.1975 34.1086 95.6696 34.1086C95.9767 34.1086 96.254 34.0656 96.5016 33.9798C96.7526 33.8907 96.9688 33.7586 97.1504 33.5836C97.332 33.4053 97.4723 33.1841 97.5714 32.92L98.7005 33.2369C98.5817 33.6199 98.3819 33.9567 98.1013 34.2472C97.8206 34.5345 97.474 34.759 97.0613 34.9208C96.6486 35.0792 96.1847 35.1585 95.6696 35.1585ZM103.688 35.1585C102.974 35.1585 102.36 34.9901 101.845 34.6533C101.33 34.3166 100.934 33.8527 100.657 33.2617C100.379 32.6707 100.241 31.9955 100.241 31.2361C100.241 30.4636 100.383 29.7818 100.667 29.1908C100.954 28.5965 101.353 28.1326 101.865 27.7992C102.38 27.4624 102.981 27.294 103.668 27.294C104.203 27.294 104.685 27.3931 105.114 27.5912C105.543 27.7893 105.895 28.0666 106.169 28.4232C106.443 28.7797 106.613 29.1957 106.679 29.6712H105.51C105.421 29.3245 105.223 29.0175 104.916 28.75C104.612 28.4793 104.203 28.3439 103.688 28.3439C103.232 28.3439 102.832 28.4628 102.489 28.7005C102.149 28.9349 101.883 29.2667 101.692 29.6959C101.504 30.1219 101.409 30.622 101.409 31.1965C101.409 31.7842 101.502 32.296 101.687 32.7318C101.875 33.1676 102.139 33.506 102.479 33.747C102.823 33.9881 103.225 34.1086 103.688 34.1086C103.991 34.1086 104.267 34.0557 104.515 33.9501C104.762 33.8444 104.972 33.6926 105.144 33.4945C105.315 33.2964 105.437 33.0586 105.51 32.7813H106.679C106.613 33.2303 106.449 33.6348 106.189 33.9947C105.931 34.3512 105.589 34.6352 105.163 34.8465C104.741 35.0545 104.249 35.1585 103.688 35.1585ZM109.477 32.2266L109.457 30.7805H109.695L113.023 27.3931H114.469L110.923 30.9786H110.824L109.477 32.2266ZM108.387 35V24.8574H109.556V35H108.387ZM113.221 35L110.25 31.2361L111.082 30.424L114.707 35H113.221ZM121.619 35L119.301 27.3931H120.53L122.174 33.2171H122.253L123.877 27.3931H125.125L126.73 33.1973H126.809L128.453 27.3931H129.682L127.364 35H126.215L124.551 29.1561H124.432L122.768 35H121.619ZM131.227 35V27.3931H132.396V35H131.227ZM131.821 26.1252C131.593 26.1252 131.397 26.0476 131.232 25.8925C131.07 25.7373 130.989 25.5508 130.989 25.3328C130.989 25.1149 131.07 24.9284 131.232 24.7732C131.397 24.618 131.593 24.5405 131.821 24.5405C132.049 24.5405 132.244 24.618 132.406 24.7732C132.571 24.9284 132.653 25.1149 132.653 25.3328C132.653 25.5508 132.571 25.7373 132.406 25.8925C132.244 26.0476 132.049 26.1252 131.821 26.1252ZM137.845 27.3931V28.3835H133.902V27.3931H137.845ZM135.051 25.5706H136.22V32.8209C136.22 33.1511 136.268 33.3987 136.364 33.5638C136.463 33.7256 136.588 33.8345 136.74 33.8907C136.895 33.9435 137.059 33.9699 137.23 33.9699C137.359 33.9699 137.465 33.9633 137.547 33.9501C137.63 33.9336 137.696 33.9204 137.746 33.9105L137.983 34.9604C137.904 34.9901 137.793 35.0198 137.651 35.0495C137.509 35.0825 137.329 35.099 137.112 35.099C136.781 35.099 136.458 35.0281 136.141 34.8861C135.827 34.7441 135.566 34.5279 135.358 34.2373C135.154 33.9468 135.051 33.5803 135.051 33.1379V25.5706ZM140.935 30.424V35H139.766V24.8574H140.935V28.5816H141.034C141.212 28.1888 141.48 27.8767 141.836 27.6456C142.196 27.4112 142.675 27.294 143.272 27.294C143.791 27.294 144.245 27.398 144.634 27.606C145.024 27.8107 145.326 28.126 145.541 28.5519C145.759 28.9745 145.867 29.5127 145.867 30.1664V35H144.699V30.2457C144.699 29.6415 144.542 29.1743 144.228 28.8441C143.918 28.5107 143.487 28.3439 142.936 28.3439C142.553 28.3439 142.209 28.4248 141.906 28.5866C141.605 28.7484 141.367 28.9844 141.192 29.2948C141.021 29.6051 140.935 29.9815 140.935 30.424ZM152.503 35H151.215L154.939 24.8574H156.207L159.931 35H158.644L155.613 26.462H155.533L152.503 35ZM152.978 31.0381H158.168V32.1276H152.978V31.0381ZM162.739 24.8574V35H161.511V24.8574H162.739Z" fill="white"/>
<path fill-rule="evenodd" clip-rule="evenodd" d="M172.761 25.0326C172.532 24.9482 172.294 24.8818 172.048 24.8351C172.03 24.8317 172.012 24.8284 171.994 24.8252C171.83 24.796 171.83 24.5617 171.994 24.5326C172.012 24.5294 172.03 24.526 172.048 24.5226C172.294 24.4759 172.532 24.4095 172.761 24.3251C172.899 24.2746 173.033 24.2177 173.163 24.1546C174.067 23.7181 174.798 22.9898 175.237 22.0906C175.3 21.9607 175.357 21.8273 175.408 21.6907C175.493 21.4624 175.56 21.2252 175.607 20.9807C175.61 20.9627 175.613 20.9447 175.617 20.9267C175.646 20.7634 175.881 20.7634 175.911 20.9267C175.914 20.9447 175.917 20.9627 175.921 20.9807C175.967 21.2252 176.034 21.4624 176.119 21.6907C176.17 21.8273 176.227 21.9607 176.29 22.0906C176.729 22.9898 177.461 23.7181 178.364 24.1546C178.495 24.2177 178.629 24.2746 178.766 24.3251C178.995 24.4095 179.234 24.4759 179.479 24.5226C179.497 24.526 179.515 24.5294 179.533 24.5326C179.698 24.5617 179.698 24.796 179.533 24.8252C179.515 24.8284 179.497 24.8317 179.479 24.8351C179.234 24.8818 178.995 24.9482 178.766 25.0326C178.629 25.0831 178.495 25.1401 178.364 25.2031C177.461 25.6396 176.729 26.3679 176.29 27.2672C176.227 27.397 176.17 27.5304 176.119 27.6671C176.034 27.8954 175.967 28.1326 175.921 28.3771C175.917 28.395 175.914 28.413 175.911 28.431C175.881 28.5944 175.646 28.5944 175.617 28.431C175.613 28.413 175.61 28.395 175.607 28.3771C175.56 28.1326 175.493 27.8954 175.408 27.6671C175.357 27.5304 175.3 27.397 175.237 27.2672C174.798 26.3679 174.067 25.6396 173.163 25.2031C173.033 25.1401 172.899 25.0831 172.761 25.0326ZM178.245 30.8368C178.085 30.7937 177.922 30.756 177.757 30.7237C177.732 30.7187 177.706 30.7137 177.68 30.709L177.672 30.7075L177.661 30.7056C177.645 30.7026 177.627 30.6994 177.592 30.6931L177.579 30.6909C177.317 30.6414 177.317 30.2674 177.579 30.2179L177.592 30.2157C177.627 30.2093 177.645 30.2062 177.661 30.2032L177.672 30.2013L177.68 30.1998C177.706 30.1951 177.732 30.1901 177.757 30.1851C177.922 30.1528 178.085 30.1151 178.245 30.072C178.382 30.0353 178.517 29.9947 178.651 29.9503C180.814 29.2329 182.515 27.5393 183.236 25.387C183.28 25.254 183.321 25.1193 183.358 24.9829C183.401 24.8232 183.439 24.6613 183.472 24.4974C183.477 24.4718 183.482 24.4461 183.487 24.4204L183.488 24.4126L183.49 24.4021C183.493 24.3861 183.496 24.3685 183.502 24.3336L183.503 24.3324L183.505 24.32C183.554 24.0588 183.93 24.0588 183.98 24.32L183.982 24.3324C183.989 24.3681 183.992 24.3859 183.995 24.4021L183.997 24.4126L183.998 24.4204C184.003 24.4461 184.008 24.4718 184.013 24.4974C184.045 24.6613 184.083 24.8232 184.127 24.9829C184.163 25.1193 184.204 25.254 184.249 25.387C184.97 27.5393 186.671 29.2329 188.834 29.9503C188.967 29.9947 189.103 30.0353 189.24 30.072C189.4 30.1151 189.563 30.1528 189.727 30.1851C189.753 30.1901 189.779 30.1951 189.805 30.1998L189.813 30.2013L189.823 30.2032C189.84 30.2062 189.857 30.2093 189.893 30.2157L189.906 30.2179C190.168 30.2674 190.168 30.6414 189.906 30.6909L189.893 30.6931L189.855 30.6998L189.823 30.7056L189.813 30.7075L189.805 30.709C189.779 30.7137 189.753 30.7187 189.727 30.7237C189.563 30.756 189.4 30.7937 189.24 30.8368C189.103 30.8735 188.967 30.9141 188.834 30.9585C186.671 31.6759 184.97 33.3695 184.249 35.5217C184.204 35.6548 184.163 35.7895 184.127 35.9259C184.083 36.0856 184.045 36.2475 184.013 36.4114C184.008 36.437 184.003 36.4627 183.998 36.4884L183.997 36.4962L183.995 36.5067L183.99 36.5304L183.982 36.575L183.98 36.5888C183.93 36.85 183.554 36.85 183.505 36.5888L183.503 36.5764C183.496 36.5408 183.493 36.5229 183.49 36.5067L183.488 36.4962L183.487 36.4884C183.482 36.4627 183.477 36.437 183.472 36.4114C183.439 36.2475 183.401 36.0856 183.358 35.9259C183.321 35.7895 183.28 35.6548 183.236 35.5217C182.515 33.3695 180.814 31.6759 178.651 30.9585C178.517 30.9141 178.382 30.8735 178.245 30.8368ZM174.626 35.8473C174.902 35.8998 175.163 35.9915 175.404 36.1166C175.511 36.1722 175.614 36.2344 175.712 36.3027C175.986 36.493 176.225 36.7302 176.416 37.0031C176.484 37.101 176.547 37.2036 176.603 37.3101C176.728 37.5497 176.821 37.8098 176.873 38.0843C176.875 38.0957 176.878 38.107 176.88 38.1184C176.898 38.2216 177.047 38.2216 177.065 38.1184C177.067 38.107 177.069 38.0957 177.072 38.0843C177.124 37.8098 177.217 37.5497 177.342 37.3101C177.398 37.2036 177.461 37.101 177.529 37.0031C177.72 36.7302 177.959 36.493 178.233 36.3027C178.331 36.2344 178.434 36.1722 178.541 36.1166C178.782 35.9915 179.043 35.8998 179.319 35.8473C179.331 35.8452 179.342 35.8431 179.353 35.841C179.457 35.8226 179.457 35.6746 179.353 35.6562C179.342 35.6542 179.331 35.6521 179.319 35.6499C179.043 35.5975 178.782 35.5057 178.541 35.3807C178.434 35.325 178.331 35.2628 178.233 35.1945C177.959 35.0043 177.72 34.767 177.529 34.4942C177.461 34.3962 177.398 34.2937 177.342 34.1871C177.217 33.9476 177.124 33.6875 177.072 33.4129C177.069 33.4016 177.067 33.3902 177.065 33.3788C177.047 33.2757 176.898 33.2757 176.88 33.3788C176.878 33.3902 176.875 33.4016 176.873 33.4129C176.821 33.6875 176.728 33.9476 176.603 34.1871C176.547 34.2937 176.484 34.3962 176.416 34.4942C176.225 34.767 175.986 35.0043 175.712 35.1945C175.614 35.2628 175.511 35.325 175.404 35.3807C175.163 35.5057 174.902 35.5975 174.626 35.6499C174.614 35.6521 174.603 35.6542 174.591 35.6562C174.488 35.6746 174.488 35.8226 174.591 35.841C174.603 35.8431 174.614 35.8452 174.626 35.8473Z" fill="white"/>
</g>
<defs>
<filter id="filter0_dddiiiii_381_6218" x="0.856422" y="-13.1894" width="243.287" height="123.73" filterUnits="userSpaceOnUse" color-interpolation-filters="sRGB">
<feFlood flood-opacity="0" result="BackgroundImageFix"/>
<feColorMatrix in="SourceAlpha" type="matrix" values="0 0 0 0 0 0 0 0 0 0 0 0 0 0 0 0 0 0 127 0" result="hardAlpha"/>
<feOffset dy="31.3786"/>
<feGaussianBlur stdDeviation="13.9461"/>
<feComposite in2="hardAlpha" operator="out"/>
<feColorMatrix type="matrix" values="0 0 0 0 0.152941 0 0 0 0 0 0 0 0 0 0.615686 0 0 0 0.21 0"/>
<feBlend mode="normal" in2="BackgroundImageFix" result="effect1_dropShadow_381_6218"/>
<feColorMatrix in="SourceAlpha" type="matrix" values="0 0 0 0 0 0 0 0 0 0 0 0 0 0 0 0 0 0 127 0" result="hardAlpha"/>
<feOffset dy="6.97303"/>
<feGaussianBlur stdDeviation="6.97303"/>
<feComposite in2="hardAlpha" operator="out"/>
<feColorMatrix type="matrix" values="0 0 0 0 0.356863 0 0 0 0 0 0 0 0 0 1 0 0 0 0.12 0"/>
<feBlend mode="normal" in2="effect1_dropShadow_381_6218" result="effect2_dropShadow_381_6218"/>
<feColorMatrix in="SourceAlpha" type="matrix" values="0 0 0 0 0 0 0 0 0 0 0 0 0 0 0 0 0 0 127 0" result="hardAlpha"/>
<feOffset dy="3.48651"/>
<feGaussianBlur stdDeviation="1.74326"/>
<feComposite in2="hardAlpha" operator="out"/>
<feColorMatrix type="matrix" values="0 0 0 0 0.356863 0 0 0 0 0 0 0 0 0 1 0 0 0 0.08 0"/>
<feBlend mode="normal" in2="effect2_dropShadow_381_6218" result="effect3_dropShadow_381_6218"/>
<feBlend mode="normal" in="SourceGraphic" in2="effect3_dropShadow_381_6218" result="shape"/>
<feColorMatrix in="SourceAlpha" type="matrix" values="0 0 0 0 0 0 0 0 0 0 0 0 0 0 0 0 0 0 127 0" result="hardAlpha"/>
<feOffset dy="6.97303"/>
<feGaussianBlur stdDeviation="10.4595"/>
<feComposite in2="hardAlpha" operator="arithmetic" k2="-1" k3="1"/>
<feColorMatrix type="matrix" values="0 0 0 0 1 0 0 0 0 1 0 0 0 0 1 0 0 0 0.24 0"/>
<feBlend mode="darken" in2="shape" result="effect4_innerShadow_381_6218"/>
<feColorMatrix in="SourceAlpha" type="matrix" values="0 0 0 0 0 0 0 0 0 0 0 0 0 0 0 0 0 0 127 0" result="hardAlpha"/>
<feOffset dy="-20.9191"/>
<feGaussianBlur stdDeviation="13.9461"/>
<feComposite in2="hardAlpha" operator="arithmetic" k2="-1" k3="1"/>
<feColorMatrix type="matrix" values="0 0 0 0 1 0 0 0 0 1 0 0 0 0 1 0 0 0 0.22 0"/>
<feBlend mode="normal" in2="effect4_innerShadow_381_6218" result="effect5_innerShadow_381_6218"/>
<feColorMatrix in="SourceAlpha" type="matrix" values="0 0 0 0 0 0 0 0 0 0 0 0 0 0 0 0 0 0 127 0" result="hardAlpha"/>
<feOffset/>
<feGaussianBlur stdDeviation="5.22977"/>
<feComposite in2="hardAlpha" operator="arithmetic" k2="-1" k3="1"/>
<feColorMatrix type="matrix" values="0 0 0 0 1 0 0 0 0 1 0 0 0 0 1 0 0 0 0.2 0"/>
<feBlend mode="normal" in2="effect5_innerShadow_381_6218" result="effect6_innerShadow_381_6218"/>
<feColorMatrix in="SourceAlpha" type="matrix" values="0 0 0 0 0 0 0 0 0 0 0 0 0 0 0 0 0 0 127 0" result="hardAlpha"/>
<feOffset dy="-1.74326"/>
<feGaussianBlur stdDeviation="1.39461"/>
<feComposite in2="hardAlpha" operator="arithmetic" k2="-1" k3="1"/>
<feColorMatrix type="matrix" values="0 0 0 0 1 0 0 0 0 1 0 0 0 0 1 0 0 0 0.1 0"/>
<feBlend mode="plus-lighter" in2="effect6_innerShadow_381_6218" result="effect7_innerShadow_381_6218"/>
<feColorMatrix in="SourceAlpha" type="matrix" values="0 0 0 0 0 0 0 0 0 0 0 0 0 0 0 0 0 0 127 0" result="hardAlpha"/>
<feOffset/>
<feGaussianBlur stdDeviation="3.48651"/>
<feComposite in2="hardAlpha" operator="arithmetic" k2="-1" k3="1"/>
<feColorMatrix type="matrix" values="0 0 0 0 1 0 0 0 0 1 0 0 0 0 1 0 0 0 0.5 0"/>
<feBlend mode="plus-lighter" in2="effect7_innerShadow_381_6218" result="effect8_innerShadow_381_6218"/>
</filter>
<radialGradient id="paint0_radial_381_6218" cx="0" cy="0" r="1" gradientUnits="userSpaceOnUse" gradientTransform="translate(121.988 29.5) rotate(-90) scale(29.3898 94.1016)">
<stop stop-color="#B683F7"/>
<stop offset="1" stop-color="#27009D"/>
</radialGradient>
<radialGradient id="paint1_radial_381_6218" cx="0" cy="0" r="1" gradientUnits="userSpaceOnUse" gradientTransform="translate(121.988 51.2702) rotate(-180) scale(69.0442 18.1631)">
<stop stop-color="#FEC7FF"/>
<stop offset="1" stop-color="#A083F7" stop-opacity="0"/>
</radialGradient>
<radialGradient id="paint2_radial_381_6218" cx="0" cy="0" r="1" gradientUnits="userSpaceOnUse" gradientTransform="translate(122.5 29.5) scale(93.7514 21.7702)">
<stop stop-color="white"/>
<stop offset="1" stop-color="white" stop-opacity="0"/>
</radialGradient>
</defs>
</svg>
