<svg width="64" height="78" viewBox="0 0 64 78" fill="none" xmlns="http://www.w3.org/2000/svg">
<g clip-path="url(#clip0_2_12375)">
<path d="M36.7756 45.9504C36.5234 45.1765 36.2711 44.4044 35.9845 43.5196C35.3997 44.735 34.9582 45.916 34.2168 46.9384C32.3 49.5833 28.5831 50.1948 26.1599 48.2723C25.4242 47.6876 25.0706 46.8888 24.784 46.046C23.8285 43.2349 23.5265 40.3053 23.2609 37.37C23.1902 36.5826 23.1539 35.7896 23.1061 35.0003C23.0736 34.4518 23.1328 33.9244 23.4635 33.46C24.0272 33.1944 24.5871 33.2059 25.1413 33.481C25.321 33.5766 25.0477 34.062 25.5885 33.9053C26.3357 33.6874 27.0963 33.5537 27.618 32.902C27.8856 32.5179 28.2601 32.2179 28.478 31.7955C28.627 31.5394 28.7493 31.27 28.8755 31.0044C29.3418 30.4712 29.0895 29.9285 28.8984 29.3857C28.9404 28.736 28.7168 28.1913 28.2506 27.7422C28.0977 27.5454 28.0346 27.3371 28.1607 27.1021C28.4264 25.8331 28.2601 24.482 28.7876 23.2705C29.8558 20.8148 31.9465 19.5497 34.3448 18.7012C35.1799 18.4069 36.0189 18.1298 36.8177 17.7438C37.4215 17.8355 37.3317 18.4394 37.5916 18.7853C38.1821 19.909 38.7726 21.0346 39.6269 21.9882C40.4906 22.9551 41.2073 23.0641 42.3176 22.4067C43.2769 21.8372 44.1598 21.1607 44.9223 20.3428C45.6695 19.5421 45.681 18.8904 45.1478 17.9311C44.7962 17.2985 44.0356 16.8418 44.2229 15.9551C47.8958 16.0564 51.4847 16.6794 55.0048 17.7094C58.223 18.6515 60.7532 20.6122 62.5515 23.366C66.922 30.0622 71.4243 36.6896 74.7036 44.028C76.2745 47.5442 77.2166 51.2784 78.4053 54.9265C78.7493 55.9814 79.0837 57.0458 79.5118 58.0682C79.9742 59.1747 80.1042 60.1933 79.185 61.1278C78.4473 62.133 77.2969 62.4521 76.2248 62.8859C75.126 63.3331 73.9641 63.3407 72.8041 63.2394C72.4295 63.207 72.0569 63.0885 71.7798 62.7942C70.8529 62.4024 70.614 61.4851 70.1802 60.7131C69.9567 60.3118 69.8707 59.8264 69.4751 59.5302C68.6629 57.7758 67.736 56.0808 66.8379 54.3704C66.3907 53.2677 65.8594 52.1995 65.4103 51.0968C65.311 50.8522 65.1868 50.6516 64.9288 50.5541C64.4109 50.3783 63.8662 50.2541 63.3388 50.2636C60.5315 50.3076 58.1848 49.0616 55.8705 47.699C54.8825 47.1162 53.8372 46.6556 52.7479 46.2925C50.7796 45.6351 48.8036 45.7899 46.8161 46.1893C45.4478 46.4645 44.1025 46.8333 42.7112 47.0321C41.0238 47.271 39.4243 46.948 37.8152 46.5753C37.4043 46.4798 37.0451 46.2868 36.7775 45.9485L36.7756 45.9504Z" fill="#FF0023"/>
<path d="M36.7753 45.9505C39.4221 46.9423 42.0937 47.143 44.8455 46.3652C46.3285 45.9467 47.8535 45.6409 49.4014 45.5645C51.794 45.4479 53.9248 46.2926 55.9619 47.443C57.7755 48.4673 59.5413 49.6197 61.6797 49.8624C62.8684 49.9961 64.0742 49.9999 65.238 50.321C65.7789 51.6816 66.2643 53.0652 67.0172 54.3303C67.8752 56.0445 69.1575 57.5599 69.471 59.5321C69.4385 59.9678 69.5589 60.3806 69.6334 60.8048C69.7251 61.3342 69.6334 61.8616 69.083 62.1674C68.9492 62.2534 68.8174 62.347 68.6569 62.3738C64.9648 62.9815 61.3166 63.8682 57.5271 63.7822C54.07 63.7039 50.6015 63.8892 47.1636 63.3618C44.6869 62.9834 42.2026 62.6433 39.7603 62.0623C39.0532 61.6132 38.6233 61.0628 39.0762 60.1914C39.2807 59.0792 39.2883 57.967 39.0762 56.8548C38.5048 54.0475 37.9372 51.2383 37.3563 48.4329C37.1843 47.6016 36.9664 46.7799 36.7715 45.9524L36.7753 45.9505Z" fill="#FF0023" fill-opacity="0.84"/>
<path d="M39.7019 62.1073C40.1371 61.7441 40.6143 61.9957 41.0285 62.089C47.1613 63.4768 53.3571 63.9334 59.6102 63.5884C62.271 63.4423 64.865 62.8093 67.4858 62.3548C67.9801 62.2696 68.4859 62.2615 68.9879 62.2188C68.7799 67.1939 68.0107 72.0859 66.9971 76.9372C66.8062 77.8462 66.0771 78.0389 65.3327 78.1566C65.0903 78.0409 64.8345 78.0856 64.5825 78.0856C56.0676 78.0836 47.5526 78.0836 39.0395 78.0856C38.7895 78.0856 38.5318 78.0389 38.2913 78.1607C37.4464 77.951 37.1232 77.4275 37.3217 76.5902C38.4516 71.8241 39.3507 67.0174 39.7019 62.1073Z" fill="#9FD2FF"/>
<path d="M1.52669 19.2346C2.02356 18.7798 2.61406 18.6575 3.27527 18.6651C5.14616 18.688 7.01705 18.6766 8.88985 18.6747C11.6092 18.6747 14.3248 18.5313 16.9677 17.8873C18.5768 17.4956 20.1152 16.8191 21.7204 16.3681C23.3142 15.9209 24.222 16.8 24.8946 17.7803C25.445 18.5829 25.6438 19.5767 25.7527 20.557C25.8616 21.5316 25.6036 22.3075 24.6023 22.6821C24.0901 22.6725 23.6143 22.7681 23.1365 22.9859C22.0931 23.4637 21.7778 23.3643 21.0095 22.4355C20.8528 23.37 20.4458 24.1937 20.0445 25.0192C18.5577 25.6556 17.3251 26.7009 16.1269 27.7253C13.9999 29.5407 11.8481 31.3581 10.0766 33.5405C9.5396 34.2017 8.83825 34.4711 8.15793 34.8438C7.94199 34.2285 8.31081 33.6704 8.33757 33.0742C8.41974 31.1555 7.97256 29.3573 7.24255 27.6106C7.25784 26.3054 6.55841 25.2868 5.88573 24.2587C5.55894 22.8865 4.60726 21.8718 3.86387 20.7386C3.66894 20.3716 3.47784 19.999 3.07844 19.8022C2.70579 19.5671 2.29301 19.4754 1.86112 19.441C1.72544 19.4104 1.60504 19.3531 1.52478 19.2327L1.52669 19.2346Z" fill="#D4EBDC"/>
<path d="M44.2208 15.9554C44.4271 16.674 44.9737 17.1842 45.3616 17.79C45.9712 18.7436 45.9579 19.529 45.2068 20.3718C44.2953 21.3923 43.2328 22.2427 41.9963 22.8408C41.3389 23.1581 40.6032 23.2211 40.0318 22.7013C38.8584 21.6331 37.9851 20.3431 37.4921 18.8181C37.6354 18.3748 38.0921 18.2792 38.396 18.0136C39.3056 17.2129 39.8273 16.1924 40.1293 15.2101C39.1336 16.0357 38.1093 17.0256 36.6321 17.3065C36.141 17.2778 35.7129 17.5225 35.2523 17.6237C33.521 18.0079 32.0514 17.1747 31.6271 15.4643C31.1092 13.3851 30.4079 11.3403 30.3334 9.16939C30.5742 8.147 31.2564 7.30615 31.5259 6.29331C31.5908 6.04679 31.8469 6.00283 32.08 6.02003C33.0012 6.0831 33.8172 5.72382 34.6446 5.40086C35.0593 5.23843 35.4798 5.10848 35.9327 5.09319C37.1748 5.05497 37.9106 5.68751 38.008 6.92968C38.0673 7.68835 38.1399 8.42792 38.6597 9.02989C38.9483 8.94771 38.9865 8.69546 39.1317 8.53684C39.7375 7.87372 40.5172 7.78199 41.1497 8.31134C41.8473 8.89612 42.0365 9.7771 41.4116 10.3944C40.8918 10.9065 41.4899 10.8855 41.5931 11.0995C42.0747 12.9322 42.9213 14.568 44.2208 15.9573V15.9554Z" fill="#E9DDB1"/>
<path d="M41.5925 11.0976C41.2543 11.0709 40.9141 11.0441 40.423 11.004C41.0976 10.4269 41.8926 10.0007 41.4435 9.03563C41.2008 8.51584 40.83 8.14128 40.1975 8.18905C39.307 8.25785 39.0413 8.93244 38.8464 9.74844C38.0457 8.98213 37.8145 8.09159 37.7724 7.12653C37.7113 5.70091 36.9144 5.04734 35.527 5.36074C34.3116 5.63593 33.2414 6.49589 31.8884 6.24172C31.6113 6.19013 31.6877 6.50353 31.6399 6.66024C31.359 7.57753 30.9443 8.4222 30.3347 9.1675C30.2162 9.0643 30.0748 8.98022 29.985 8.85791C28.9511 7.43038 29.7156 3.79562 31.2367 2.90126C31.7565 2.5955 32.3356 2.48275 32.884 2.71589C33.3484 2.91464 33.5013 2.74647 33.7765 2.39866C34.797 1.1049 36.1289 0.279343 37.7801 0.0442874C38.7145 -0.087573 39.5917 0.0366433 40.0542 0.999797C40.2395 1.38773 40.4899 1.27307 40.7593 1.24823C42.9302 1.04375 43.9909 2.34133 43.343 4.42052C43.2398 4.75304 43.1156 5.08365 42.9551 5.39132C42.6876 5.90538 42.4028 6.39843 42.8175 6.96791C42.8691 7.03862 42.9111 7.17048 42.8806 7.23928C42.3073 8.47762 42.7028 10.0389 41.5964 11.0976H41.5925Z" fill="black"/>
<path d="M25.2062 33.7756C24.6807 33.3628 24.0348 33.6093 23.4614 33.4622C22.3798 33.101 21.795 32.3977 21.2982 31.3084C20.8816 30.3931 20.6083 29.4548 20.2777 28.5241C19.8668 27.3622 20.1516 26.1659 20.2051 24.983C20.186 24.4135 20.5739 24.0275 21.0153 23.9682C22.139 23.8134 23.2856 23.5898 24.4112 24.016C24.6921 24.0141 24.9826 24.0542 25.254 23.9988C25.9171 23.865 26.3394 24.1593 26.6662 24.6925C27.1593 25.497 27.6619 26.2958 28.1606 27.0985C28.218 27.2762 28.2734 27.452 28.3307 27.6278C28.8314 28.0846 28.9786 28.6961 29.0722 29.3286C29.4372 29.9459 29.6283 30.5498 28.9614 31.104C28.2447 30.8211 28.0861 30.0835 27.6963 29.535C27.4956 29.2541 27.3102 28.9617 27.1344 28.6636C27.0943 28.5776 27.0542 28.4916 27.0083 28.4094C26.9567 28.44 27.0179 28.4572 27.0179 28.484C26.9796 29.8446 26.9147 31.1938 25.5196 32.0652C25.9706 32.2372 26.3758 32.0786 26.7828 31.9983C27.3867 31.9983 27.9523 31.5129 28.583 31.8531C28.583 32.3671 28.0823 32.5277 27.8606 32.885C27.3293 33.4966 26.6146 33.7603 25.854 33.9495C25.5922 34.0144 25.3667 34.0412 25.21 33.7717L25.2062 33.7756Z" fill="#E9DDB1"/>
<path d="M3.26389 19.6204C3.65756 19.8172 3.83337 20.1918 4.01874 20.5568C3.75502 21.348 3.89835 22.0894 4.26144 22.8194C4.5844 23.4673 4.89208 24.1266 4.79079 24.8853C4.24042 26.1867 4.57676 27.2664 6.05015 27.8091C6.74577 29.1812 6.0578 32.0879 4.84621 32.9096C4.65702 33.0377 4.46019 33.1294 4.23469 32.9918C2.09625 31.0751 0.991685 28.585 0.40118 25.8561C0.0514631 24.2336 -0.275321 22.571 0.368692 20.918C0.624769 20.2606 0.903778 19.6338 1.52677 19.2344C1.66245 19.2478 1.79622 19.2611 1.93191 19.2745C2.35233 19.4809 2.79378 19.6032 3.26389 19.6204Z" fill="#A7D4B7"/>
<path d="M4.23323 32.9898C5.64548 32.4643 6.41944 29.6455 5.95315 27.8587C6.26847 27.3695 6.7424 27.3313 7.25456 27.4001C7.34629 27.423 7.5049 27.4249 7.5221 27.4727C8.33237 29.8768 9.24584 32.277 8.15847 34.8454C7.50872 35.2639 6.87235 35.0747 6.27802 34.7441C5.48304 34.3008 4.71672 33.8039 4.23132 32.9898H4.23323Z" fill="#3B2922"/>
<path d="M24.4118 24.0179C23.4448 23.8689 22.5084 24.3237 21.5108 24.0925C20.9165 23.953 20.5095 24.4881 20.2056 24.9849C20.1483 24.983 20.0948 24.9964 20.0432 25.0231C19.7393 24.7097 20.0623 24.4842 20.1597 24.2339C20.4483 23.4943 20.8764 22.7968 20.7254 21.8738C21.9504 23.2784 21.9542 23.2898 23.6741 22.4987C24.064 22.319 24.3755 22.2006 24.599 22.686C24.3907 23.1102 24.278 23.5459 24.4079 24.0179H24.4118Z" fill="#3A3024"/>
<path d="M36.6344 17.3045C37.9626 16.5305 39.3652 15.8579 40.3399 14.5259C40.5291 16.0279 39.22 17.9542 37.4944 18.8161C37.2689 18.4588 37.0434 18.1014 36.8179 17.7421C36.7567 17.5969 36.6956 17.4497 36.6344 17.3045Z" fill="#3B2E22"/>
<path d="M39.0802 56.8531C39.1356 56.7747 39.2598 56.5817 39.2617 56.6658C39.2827 57.8545 39.2521 59.0431 39.2311 60.2318C39.2311 60.2375 39.1776 60.2528 39.1547 60.2471C39.126 60.2394 39.1031 60.2108 39.0782 60.1916C39.0782 59.0794 39.0782 57.9672 39.0782 56.855L39.0802 56.8531Z" fill="#6B5925"/>
<path d="M31.6671 35.2622C32.357 36.8942 32.4545 38.6581 32.8118 40.3646C32.9188 40.8768 33.1405 41.3908 32.8691 42.1495C32.4449 39.7206 32.0551 37.4905 31.6671 35.2622Z" fill="#8A7331"/>
<path d="M31.6672 35.2622C31.2315 34.2895 31.0576 33.2557 30.964 32.2046C31.3213 33.1964 31.7227 34.1768 31.6672 35.2622Z" fill="#897232"/>
<path d="M25.2064 33.7756C26.2632 33.9973 27.0276 33.3475 27.857 32.887C27.4021 33.6475 25.9593 34.3011 25.1548 34.1138C25.0688 34.0947 24.9618 34.089 25.0134 33.9724C25.0478 33.8941 25.1414 33.8387 25.2083 33.7737L25.2064 33.7756Z" fill="#847D42"/>
<path d="M29.0706 29.3302C28.8241 28.7626 28.5775 28.197 28.3291 27.6294C28.998 28.0116 29.1623 28.6155 29.0706 29.3302Z" fill="#70672B"/>
<path d="M7.25677 27.4004C6.82297 27.5533 6.38917 27.7062 5.95537 27.8591C4.50872 27.7196 3.90293 26.4067 4.60045 24.9218C4.95208 24.5224 5.28651 24.0867 5.92097 24.2033C6.25157 24.2109 6.42166 24.4135 6.54396 24.6944C6.82106 25.327 7.12109 25.95 7.38672 26.5882C7.50138 26.8653 7.63515 27.1826 7.25868 27.4004H7.25677Z" fill="#F7FBFA"/>
<path d="M5.91834 24.2029C5.47881 24.4417 5.03736 24.6825 4.59783 24.9214C4.70867 24.2239 4.35513 23.6582 4.07421 23.0715C3.77609 22.4504 3.46651 21.8294 3.58499 21.1089C3.62703 20.8567 3.56206 20.4955 4.01879 20.5585C4.69911 21.4548 5.34504 22.3721 5.8591 23.3754C5.99096 23.6334 6.24704 23.9028 5.91834 24.2029Z" fill="#3C2D25"/>
<path d="M9.02142 28.3694C9.51256 29.3612 9.53931 30.4467 9.79921 31.4843C9.71321 31.5035 9.62531 31.5207 9.53931 31.5398C9.34056 30.5059 9.14182 29.474 8.94116 28.4401C8.96792 28.4172 8.99467 28.3923 9.02142 28.3694Z" fill="#899890"/>
<path d="M8.94187 28.4401C8.59216 27.7406 8.39341 26.9934 8.25391 26.229C8.6858 26.8807 8.92276 27.603 9.02214 28.3713C8.98774 28.3846 8.96098 28.4076 8.94187 28.442V28.4401Z" fill="#818E85"/>
<path d="M3.26435 19.6204C2.78277 19.8995 2.31457 19.5153 1.82917 19.5746C1.75655 19.5841 1.89797 19.3816 1.93237 19.2746C2.43305 19.1694 2.84774 19.4026 3.26435 19.6204Z" fill="#749080"/>
<path d="M35.6428 12.1749C36.1435 12.1367 36.3079 12.2972 36.1321 12.7272C35.7747 13.5986 34.4293 14.2101 33.5885 13.8738C33.3515 13.7782 33.105 13.6483 33.0725 13.3712C33.0343 13.052 33.3248 12.945 33.5503 12.8648C34.2631 12.6106 34.9873 12.387 35.6428 12.173V12.1749Z" fill="#EFF8F6"/>
<path d="M27.2901 28.614C27.3245 29.2791 27.1754 29.9059 26.8849 30.5002C26.6136 31.0525 26.5448 31.6201 26.7263 32.2125C26.1568 32.4667 25.595 32.568 25.0255 32.1055C26.8352 31.1003 27.0512 29.5333 26.5486 27.6738C26.9977 27.8688 27.0837 28.293 27.2901 28.6179V28.614Z" fill="#3A3C2B"/>
<path d="M25.6174 29.3839C24.1001 29.2119 22.8311 29.0686 21.5106 28.9196C22.491 28.6291 24.1459 28.7972 25.6174 29.3839Z" fill="#49AB48"/>
<path d="M20.6925 26.3492C21.9557 25.7529 23.0564 26.6205 24.2355 26.783C23.0201 26.9416 21.9232 26.0358 20.6925 26.3492Z" fill="#50A546"/>
<path d="M23.9774 25.8216C24.7972 25.6783 25.5999 25.6191 25.9591 26.63C25.4565 25.9573 24.61 26.1905 23.9774 25.8216Z" fill="#53AB4C"/>
<path d="M22.3208 31.3906C22.8941 31.1766 23.4751 31.2205 24.0617 31.3906H22.3208Z" fill="#42A247"/>
<path d="M4.61597 25.5085C5.62116 25.4856 6.17345 26.3513 5.87151 27.6813C5.66703 26.6991 5.63454 25.7875 4.61597 25.5085Z" fill="#9F9E9F"/>
</g>
<defs>
<clipPath id="clip0_2_12375">
<rect width="81.3177" height="77.2587" fill="white"/>
</clipPath>
</defs>
</svg>
