<svg width="65" height="81" viewBox="0 0 65 81" fill="none" xmlns="http://www.w3.org/2000/svg">
<path d="M4.20743 68.3126L3.89218 68.4823C3.30396 68.8031 2.61242 68.8771 1.96967 68.6879C1.32692 68.4988 0.785616 68.0621 0.464845 67.4739C0.144073 66.8857 0.0701073 66.1942 0.259218 65.5514C0.448329 64.9087 0.885027 64.3674 1.47324 64.0466C7.49937 60.7587 12.9192 59.9928 18.2846 60.983C23.5084 61.949 28.514 64.5579 33.7581 67.6174C43.3611 73.2171 54.5545 71.7217 60.8271 67.2415C61.0967 67.0423 61.4032 66.8987 61.7287 66.8192C62.0543 66.7396 62.3925 66.7256 62.7235 66.778C63.0546 66.8304 63.3718 66.9482 63.6569 67.1244C63.942 67.3007 64.1891 67.5319 64.384 67.8046C64.5788 68.0774 64.7174 68.3861 64.7917 68.713C64.866 69.0398 64.8745 69.3781 64.8168 69.7083C64.759 70.0384 64.6361 70.3538 64.4553 70.6359C64.2744 70.9181 64.0392 71.1615 63.7634 71.3519C55.8923 76.9759 42.5527 78.5946 31.2138 71.9804C25.9859 68.9309 21.6472 66.7424 17.3671 65.9522C13.3113 65.2045 9.15443 65.6875 4.20743 68.3126ZM56.7491 62.6946C57.1506 62.5667 57.546 62.4299 57.9353 62.2844C60.0061 61.5264 61.9678 60.4983 63.7695 59.2269C64.0453 59.0365 64.2805 58.7931 64.4613 58.5109C64.6422 58.2288 64.7651 57.9134 64.8228 57.5833C64.8806 57.2531 64.8721 56.9148 64.7978 56.5879C64.7234 56.2611 64.5849 55.9524 64.39 55.6796C64.1952 55.4069 63.9481 55.1757 63.663 54.9994C63.3779 54.8232 63.0606 54.7054 62.7296 54.653C62.3985 54.6006 62.0604 54.6146 61.7348 54.6942C61.4092 54.7737 61.1027 54.9173 60.8332 55.1165C54.5605 59.5967 43.3671 61.0921 33.7641 55.4924C28.5201 52.4329 23.5145 49.824 18.2886 48.858C12.9233 47.8678 7.50543 48.6357 1.47526 51.9216C0.887047 52.2426 0.450458 52.7842 0.261537 53.4271C0.167992 53.7455 0.138067 54.0791 0.173471 54.409C0.208875 54.739 0.308914 55.0587 0.467876 55.3499C0.626838 55.6412 0.841612 55.8983 1.09993 56.1065C1.35825 56.3148 1.65506 56.4701 1.97341 56.5636C2.61635 56.7526 3.30801 56.6783 3.89622 56.3573C8.98266 53.5827 13.2325 53.0634 17.3711 53.8272C21.6513 54.6174 25.992 56.8059 31.2179 59.8554C39.6448 64.7721 49.177 65.1378 56.7491 62.6946ZM10.4659 41.7406C12.1245 41.4013 13.8234 41.3033 15.5099 41.4496C16.1351 41.5049 16.7575 41.5897 17.3772 41.7043C21.6573 42.4944 25.9961 44.685 31.2239 47.7324C42.5628 54.3466 55.9024 52.7279 63.7755 47.1039C64.0514 46.9135 64.2866 46.6702 64.4674 46.388C64.6483 46.1058 64.7711 45.7904 64.8289 45.4603C64.8867 45.1301 64.8781 44.7918 64.8038 44.465C64.7295 44.1381 64.5909 43.8294 64.3961 43.5567C64.2013 43.2839 63.9541 43.0527 63.669 42.8764C63.384 42.7002 63.0667 42.5824 62.7356 42.53C62.4046 42.4776 62.0664 42.4916 61.7409 42.5712C61.4153 42.6508 61.1088 42.7943 60.8393 42.9935C54.5646 47.4737 43.3712 48.9691 33.7682 43.3694C28.5241 40.3099 23.5185 37.701 18.2947 36.735C12.9293 35.7448 7.50947 36.5127 1.48132 39.7986C0.89311 40.1196 0.456519 40.6612 0.267598 41.3041C0.0786764 41.9471 0.1529 42.6387 0.473939 43.2269C0.794978 43.8152 1.33654 44.2517 1.97948 44.4407C2.62241 44.6296 3.31407 44.5554 3.90228 44.2343C6.24443 42.9572 8.40874 42.1569 10.4659 41.7406ZM49.5145 40.4998C49.5145 40.9458 49.4977 41.3877 49.464 41.8255C51.2093 41.6519 52.9246 41.2517 54.5666 40.6352V40.4998C54.5666 28.3142 44.6888 18.4323 32.4991 18.4323C28.2701 18.432 24.1301 19.6468 20.5718 21.9321C17.0135 24.2175 14.1868 27.4772 12.4282 31.3232C14.2954 31.2181 16.158 31.3003 18.0158 31.5698C19.96 28.4184 22.8791 25.9872 26.3302 24.6452C29.7813 23.3032 33.576 23.1236 37.1384 24.1336C40.7008 25.1436 43.8366 27.2882 46.0697 30.2418C48.3029 33.1955 49.5136 36.797 49.5145 40.4998ZM32.6486 80.9165C32.5383 80.9256 32.4275 80.9256 32.3172 80.9165H32.6486ZM7.45491 11.996L7.2508 11.8141C6.74704 11.4099 6.10759 11.214 5.46388 11.2667C4.82016 11.3194 4.22108 11.6167 3.78976 12.0974C3.35843 12.5782 3.12764 13.2059 3.14481 13.8515C3.16198 14.4971 3.42581 15.1117 3.88207 15.5688L8.22283 19.9096L8.42895 20.0914C8.93311 20.4919 9.57115 20.6847 10.2127 20.6305C10.8543 20.5763 11.4509 20.2791 11.8807 19.7998C12.3105 19.3204 12.5411 18.695 12.5253 18.0514C12.5095 17.4077 12.2485 16.7944 11.7957 16.3367L7.45491 11.996ZM61.2657 15.3627C61.67 14.8587 61.8659 14.219 61.813 13.5751C61.7601 12.9311 61.4624 12.3319 60.9813 11.9007C60.5001 11.4695 59.872 11.239 59.2261 11.2568C58.5802 11.2745 57.9657 11.539 57.5089 11.996L53.1682 16.3367L52.9863 16.5429C52.5859 17.047 52.3931 17.6851 52.4473 18.3266C52.5015 18.9682 52.7986 19.5648 53.278 19.9946C53.7573 20.4244 54.3827 20.655 55.0264 20.6392C55.67 20.6234 56.2833 20.3624 56.741 19.9096L61.0818 15.5688L61.2657 15.3627ZM35.013 2.3465C34.9495 1.70005 34.6394 1.1029 34.1472 0.679099C33.6549 0.255296 33.0183 0.0374121 32.3696 0.0707059C31.7209 0.104 31.1099 0.385913 30.6636 0.857885C30.2174 1.32986 29.97 1.95561 29.9731 2.60517V8.74446L29.9872 9.00111C30.0554 9.64344 30.3671 10.2352 30.8582 10.6548C31.3493 11.0745 31.9825 11.29 32.6276 11.2571C33.2727 11.2242 33.8808 10.9455 34.3267 10.4782C34.7726 10.0108 35.0225 9.39041 35.0251 8.74446V2.60315L35.013 2.3465Z" fill="#C6CEE4" fill-opacity="0.5"/>
</svg>
