<svg width="15" height="15" viewBox="0 0 15 15" fill="none" xmlns="http://www.w3.org/2000/svg">
<path d="M2.08333 8.16042L3.1331 12.3595C3.16262 12.4775 3.17738 12.5366 3.19485 12.5881C3.36545 13.0918 3.81901 13.4459 4.34901 13.4893C4.40327 13.4937 4.46413 13.4937 4.58586 13.4937C4.73829 13.4937 4.81451 13.4937 4.87872 13.4875C5.51333 13.4259 6.01556 12.9237 6.07711 12.2891C6.08333 12.2249 6.08333 12.1487 6.08333 11.9963V2.49376M11.75 7.82708C13.0387 7.82708 14.0833 6.78242 14.0833 5.49376C14.0833 4.20509 13.0387 3.16042 11.75 3.16042M6.25 2.49376H3.75C2.09315 2.49376 0.75 3.8369 0.75 5.49376C0.75 7.15062 2.09315 8.49375 3.75 8.49375H6.25C7.4276 8.49375 8.86813 9.12502 9.97953 9.73088C10.6279 10.0843 10.9521 10.261 11.1644 10.235C11.3613 10.2109 11.5101 10.1225 11.6255 9.96115C11.75 9.78722 11.75 9.43908 11.75 8.74288V2.24462C11.75 1.54842 11.75 1.20032 11.6255 1.02635C11.5101 0.865022 11.3613 0.776622 11.1644 0.752509C10.9521 0.726502 10.6279 0.903222 9.97953 1.25666C8.86813 1.8625 7.4276 2.49376 6.25 2.49376Z" stroke="#625F6E" stroke-width="1.5" stroke-linecap="round" stroke-linejoin="round"/>
</svg>
