<svg width="263" height="190" viewBox="0 0 263 190" fill="none" xmlns="http://www.w3.org/2000/svg">
<path d="M37.0044 129.189C34.8546 137.27 40.8391 141.707 46.1223 147.181C42.0436 147.226 39.3296 146.075 36.8291 144.924C24.4331 139.229 13.2188 132.048 5.77811 120.041C-2.53163 106.638 -1.79976 91.2462 7.47055 78.7282C8.96478 76.7156 10.6801 74.8478 12.4106 73.0257C13.4932 71.8822 14.0497 70.7082 14.3318 69.0996C16.2834 58.0682 22.9998 50.7419 32.8267 45.9162C37.8125 43.469 42.7602 40.9303 48.417 40.4043C48.9277 40.816 49.2937 41.3954 49.2403 41.9976C48.9506 45.6493 50.7345 47.7077 54.0661 48.9199C55.7509 49.5298 56.6733 51.1307 57.3823 52.7622C56.0025 61.2777 57.6644 70.1364 54.5082 78.4385C54.0127 79.7421 54.8208 80.9162 54.5387 82.1512C53.5782 82.723 53.4409 84.1486 52.1754 84.4002C51.192 83.4167 50.361 84.2324 49.4385 84.5679C45.0397 86.1917 41.6243 85.0024 39.0475 81.0229C36.8214 77.5846 33.9855 77.699 31.8356 81.305C29.64 84.9872 26.6592 86.2527 22.2832 85.3684C18.7154 84.6441 16.5198 86.672 17.4041 90.2551C18.5248 94.7911 17.1983 98.0617 13.3865 100.677C10.5124 102.651 10.6801 105.64 13.699 107.294C17.7243 109.497 18.845 112.829 18.1741 117.113C17.5871 120.864 19.897 122.823 23.5564 121.779C27.0327 120.788 31.0351 121.946 32.7276 125.08C33.7873 127.047 36.0743 127.336 37.0044 129.189Z" fill="#9AA6CF"/>
<path d="M91.727 17.6171C97.6962 14.7811 104.23 13.9501 110.603 13.2792C116.923 12.6083 123.334 11.8307 129.761 12.311C132.849 12.5397 135.929 12.7532 138.864 13.851C139.458 17.861 140.274 21.9092 136.737 25.1416C130.981 28.1148 128.244 32.6737 129.182 39.2452C129.357 40.4726 129.182 41.7458 128.877 42.9732C128.16 45.8092 128.64 48.6909 128.503 51.5421C128.435 56.3984 128.732 61.1936 126.155 65.783C124.463 68.7944 122.786 71.2873 119.317 72.1869C117.594 72.6367 116.191 73.7726 114.628 74.5502C113.889 74.8628 113.126 75.0838 112.318 75.0991C109.635 74.7408 107.439 73.1398 104.992 72.1716C102.667 71.2568 100.868 71.5922 99.2133 73.3838C98.2756 74.3977 97.2769 75.3659 96.2859 76.3265C94.5248 78.0418 94.0445 80.1154 95.2796 82.1586C98.4052 87.3426 96.8958 91.993 94.0064 96.59C92.7638 94.7833 92.8629 92.5648 92.1615 90.5903C90.5529 86.1 86.8097 83.7976 82.9522 81.6249C82.0755 81.1294 81.2597 81.7088 80.4974 82.1509C79.979 81.7164 79.9408 81.1827 80.1619 80.5957C80.7794 79.9096 81.6409 79.7495 82.4871 79.6733C85.1783 79.4217 86.4362 78.0037 86.1998 75.2973C86.5124 67.4907 92.0853 63.4655 99.3811 65.8821C101.295 66.5149 102.819 66.3243 104.169 64.8301C105.472 63.3816 106.387 61.9484 105.777 59.7528C103.955 53.1202 105.205 50.0022 110.923 46.0989C113.82 44.1167 113.683 39.0013 110.512 37.2479C108.11 35.9214 106.136 34.4043 104.984 31.8198C104.016 29.6547 103.437 27.5354 104.413 25.2712C105.457 22.8392 104.794 20.9638 102.941 19.1723C101.18 17.4722 99.4649 17.6552 97.4142 18.4709C95.4625 19.2409 93.2898 20.1633 91.7574 17.6094L91.727 17.6171Z" fill="#9AA6CF"/>
<path d="M189.583 23.6855C189.637 19.9042 189.774 16.1153 189.698 12.334C189.652 10.3213 190.079 9.27689 192.389 9.42174C200.721 9.95539 207.766 7.08891 213.438 0.997649C214.886 -0.549944 215.831 -0.138269 217.059 1.15012C222.685 7.08891 229.607 9.85629 237.803 9.42936C239.16 9.36075 240.715 9.13204 240.662 11.3429C240.479 19.2867 241.119 27.2457 240.311 35.1743C239.731 40.8539 237.101 45.7101 233.846 50.2767C233.068 52.6934 231.01 54.0809 229.356 55.7733C225.917 59.2878 222.456 62.7718 218.919 66.1872C216.373 68.642 215.984 68.6801 213.255 67.7195C214.025 73.3991 213.278 79.3989 213.689 85.3453C213.75 91.6805 213.826 98.0005 213.682 104.328C213.849 118.333 213.865 132.345 213.682 146.349C213.758 148.758 213.781 151.175 213.682 153.592C213.415 158.128 214.726 162.778 212.675 167.185C212.081 169.739 213.186 172.445 211.951 174.938C210.182 173.322 210.777 171.172 210.777 169.236C210.739 136.698 210.754 104.16 210.731 71.6304C210.731 69.7626 211.044 67.8339 210.159 66.0499C209.229 64.7997 208.215 63.6104 207.194 62.4287C204.48 58.9066 201.179 55.9334 198 52.8611C192.679 47.7151 189.446 41.5476 188.89 34.2061C188.638 30.8212 187.151 30.036 184.087 30.0589C170.288 30.158 156.497 30.1198 142.698 30.0817C140.838 30.0817 138.863 30.44 137.247 29.0373C137.179 28.1758 137.758 27.8175 138.421 27.5202C142.95 26.8417 147.509 27.2762 152.045 27.2153C163.922 27.0475 175.807 27.4516 187.67 26.9942C188.699 26.552 188.707 25.5076 189.027 24.6537C189.187 24.3183 189.37 23.9981 189.568 23.6855H189.583Z" fill="#3D3B97"/>
<path d="M212.683 84.423V66.538C215.26 68.8327 216.808 67.1555 218.485 65.4707C223.57 60.3705 228.723 55.3389 233.854 50.2769C239.061 53.8904 243.521 58.4951 249.063 61.6589C249.292 62.4746 248.735 62.9778 248.141 62.9625C245.206 62.8711 244.832 65.1734 243.338 66.9421C239.938 70.975 244.481 73.5212 244.153 76.8375C244.024 78.1869 246.334 77.6228 247.302 78.2936C249.62 79.9175 251.647 81.2516 254.361 78.6519C255.33 77.7219 257.304 78.1107 258.166 79.8565C261.261 92.8776 258.532 104.351 249.071 114.041C248.72 114.308 248.362 114.308 248.003 114.041C245.693 111.525 245.343 108.59 246.746 105.64C248.339 102.293 247.668 99.8837 245.084 97.2459C242.568 94.6691 240.349 95.3095 237.605 96.3845C233.145 98.1379 225.559 95.0884 223.997 90.6439C222.617 86.7025 220.414 84.8271 216.198 85.3607C214.97 85.5132 213.659 85.4293 212.668 84.4154L212.683 84.423Z" fill="#9AA6CF"/>
<path d="M129.677 179.337C117.64 179.147 106.113 176.394 94.8068 172.491C93.8691 172.209 93.3202 171.5 93.061 170.639C90.8806 163.419 87.9837 156.382 87.2594 148.774C87.1603 147.737 87.2137 146.761 87.9303 145.93C89.6456 145.786 90.2402 144.734 90.225 143.148C90.2021 141.288 90.4003 139.405 90.1869 137.567C89.8362 134.526 90.5223 132.803 94.0216 133.771C95.3557 135.418 94.2503 136.904 93.6023 138.322C92.6264 140.464 92.9314 142.164 94.761 143.682C95.9198 144.642 97.0405 145.671 98.1002 146.746C99.9604 148.622 101.92 148.675 104.298 147.692C111.602 144.665 120.407 148.362 123.601 155.597C124.455 157.526 125.05 159.63 127.085 160.842C128.633 161.757 128.351 163.45 128.435 164.936C128.625 168.321 128.053 171.729 128.831 175.091C129.105 176.509 130.447 177.721 129.67 179.337H129.677Z" fill="#9AA6CF"/>
<path d="M52.8309 187.227C49.6366 175.494 47.8527 163.647 49.7586 150.832C52.9452 153.47 55.6897 155.742 58.4419 158.021C60.2563 159.111 60.8052 161.055 61.7124 162.786C63.908 166.987 67.6664 168.473 71.4401 166.727C71.9128 165.18 70.4796 164.501 69.9383 163.411C69.6181 162.87 69.1149 162.229 69.2674 161.703C70.167 158.547 68.0324 157.228 65.913 155.833C65.0897 155.292 64.1901 154.796 63.8623 153.752C63.9614 150.794 61.4379 148.949 60.4774 146.006H76.5861C78.9723 146.51 79.8871 148.095 79.8642 150.398C79.8642 150.901 79.9252 150.283 79.8642 150.779C78.4157 162.389 78.1642 174.115 76.4488 185.695C76.2201 185.863 75.9838 186.03 75.7551 186.198C75.4197 187.913 74.8021 188.943 72.6294 188.874C67.1252 188.683 61.6133 188.714 56.109 188.874C54.531 188.92 53.7305 188.15 52.8233 187.242L52.8309 187.227Z" fill="#4B7134"/>
<path d="M91.7267 17.6174C93.6783 18.8066 95.5766 18.5398 97.4672 17.4573C99.922 16.0545 101.858 16.611 103.848 18.6237C105.838 20.6363 106.791 22.4355 105.464 25.2867C103.764 28.946 105.861 33.726 109.673 35.7234C113.416 37.6827 114.956 41.4106 113.744 45.2225C113.401 46.3126 112.547 46.3812 111.792 46.7624C106.234 49.5298 104.321 54.0582 106.821 59.6997C108.186 62.772 105.96 64.0528 104.626 65.8291C103.513 67.3081 101.828 68.6803 100.113 67.2623C96.8116 64.5331 94.1433 66.8202 91.1091 67.6664C86.6417 68.909 87.4498 72.4845 87.0229 75.6025C85.3991 75.0232 85.5515 73.5975 85.4296 72.3091C86.6951 67.4072 87.2592 62.4518 86.6646 57.3897C87.1296 55.3924 88.9669 55.2475 90.423 54.5842C97.0098 51.0621 99.2588 40.9304 94.8142 34.3817C91.4598 29.4416 86.8857 26.7504 80.7334 26.9487C78.8504 27.0096 76.975 27.6195 75.0767 27.1011C73.2318 25.6908 74.1237 24.1203 75.4198 23.4113C80.3065 20.7354 85.0941 17.6326 90.9948 17.6479C91.2388 17.6479 91.4827 17.6479 91.7267 17.6402V17.6174Z" fill="#8C96CB"/>
<path d="M90.7281 55.5218C89.5388 56.0479 88.3572 56.5739 87.1679 57.1076C84.9723 58.6551 82.5251 59.5242 79.8874 59.9969C77.1657 60.4848 74.6194 60.5001 72.7212 58.0986C71.4404 59.0058 71.2193 60.3018 70.7924 61.4454C70.1977 63.0311 69.26 63.984 67.4685 63.9459C64.724 63.8773 64.9146 65.1123 66.0734 66.9573C68.7645 71.2494 67.5905 75.9226 67.2398 80.4968C67.194 81.1296 66.6833 81.6022 65.9209 81.5641C62.1701 82.6695 58.343 82.3417 54.5236 82.1587C52.3814 81.221 51.6342 80.0699 53.4258 77.9505C54.5388 76.6316 55.2402 74.9087 55.164 73.1019C54.8667 66.1949 55.6748 59.387 56.8336 52.602C57.169 47.0063 60.8817 44.1017 65.4177 41.8375C75.5571 37.7665 85.1019 40.3585 89.9429 48.6758C91.1322 50.719 92.8932 52.9832 90.7205 55.5295L90.7281 55.5218Z" fill="#23205B"/>
<path d="M128.076 175.541C126.62 172.156 127.763 168.603 127.413 165.15C127.253 163.594 127.87 162.192 125.446 161.178C123.883 160.522 122.976 157.511 122.45 155.384C121.672 152.251 119.598 150.84 116.9 149.826C115.84 149.43 114.666 149.178 113.782 148.53C110.694 146.274 107.675 146.807 104.694 148.584C101.896 150.253 99.4798 150.146 97.4138 147.432C97.1851 147.135 96.8801 146.891 96.5981 146.647C93.1725 143.628 92.2348 139.956 93.7849 135.631C93.9908 135.059 93.945 134.396 94.0137 133.771C95.5308 131.537 98.077 130.554 100.12 129.006C103.154 126.696 105.319 123.723 107.713 120.902C109.673 120.841 110.176 122.549 110.854 123.761C113.583 128.678 118.013 131.507 122.869 133.824C125.842 135.242 126.368 134.922 126.391 131.575C126.444 122.343 126.338 113.111 126.475 103.886C126.498 102.407 125.751 100.242 128.373 99.8306C129.54 101.249 129.28 102.949 129.28 104.565C129.303 126.567 129.311 148.576 129.28 170.578C129.28 172.293 129.7 174.176 128.091 175.533L128.076 175.541Z" fill="#8C96CB"/>
<path d="M37.0041 129.189C34.8238 128.419 32.5901 128.144 31.7438 125.148C31.0806 122.8 26.2853 121.87 23.6857 122.884C22.222 123.456 20.6744 124.371 19.2792 122.541C18.0518 120.94 15.9096 120.048 17.0455 117.159C18.5245 113.4 16.7558 109.84 12.9516 108.117C11.0762 107.271 10.2758 106.181 10.3749 104.076C10.4663 102.01 10.8704 100.531 13.005 99.5785C16.245 98.1301 17.7621 94.5241 16.5271 91.1697C15.6885 88.8826 15.8029 87.0301 17.5639 85.3224C19.3631 83.5766 21.1546 83.6452 23.4036 84.7277C25.805 85.8865 29.8684 83.7138 30.951 80.855C31.7515 78.7432 32.7502 77.5311 35.2888 77.5234C37.8427 77.5234 39.1692 78.3925 40.0765 80.7787C41.3115 84.0416 45.1843 85.1623 49.0266 83.7672C50.1472 83.3631 51.6034 81.8003 52.1751 84.3847C47.9135 85.9399 46.7395 89.7898 45.3749 93.5025C43.7205 94.1048 42.4779 92.9994 41.0828 92.4962C36.3714 90.8038 31.9192 90.7961 28.0159 94.4783C24.1507 98.1301 22.687 102.407 24.6996 107.507C26.5979 112.333 30.2877 114.811 35.3879 115.314C36.7449 115.451 38.2163 115.138 39.3065 116.312C39.0091 120.681 38.3611 124.996 37.0118 129.181L37.0041 129.189Z" fill="#808FC0"/>
<path d="M248.308 114.041C248.56 114.041 248.819 114.041 249.07 114.041C248.819 116.976 249.978 118.722 252.974 119.553C255.535 120.262 257.868 121.39 257.494 124.996C257.129 128.503 258.341 132.139 253.256 133.748C247.447 135.585 244.268 142.965 247.081 148.339C249.368 152.708 246.189 154.065 244.26 156.466C242.209 159.013 240.036 159.356 237.376 157.587C232.436 154.293 228.342 157.892 224.057 159.394C222.937 159.79 222.586 161.399 222.373 162.649C221.763 166.247 219.811 167.864 216.083 167.216C214.978 167.025 213.811 167.193 212.675 167.193C212.675 162.634 212.675 158.082 212.675 153.524C217.684 150.649 223.341 149.186 228.327 146.197C237.002 140.99 243.01 134.106 243.543 123.532C243.742 119.637 245.594 116.64 248.3 114.033L248.308 114.041Z" fill="#8F9CC7"/>
<path d="M128.076 175.541C128.046 151.709 128.023 127.878 127.947 104.046C127.947 102.598 128.48 101.027 127.444 99.678C127.344 99.5027 127.238 99.3274 127.131 99.152C127.047 98.7556 127.04 98.3515 127.108 97.9475C127.291 94.1357 127.223 90.3239 127.131 86.5044C127.055 85.6735 126.857 84.8501 126.971 84.0039C127.314 79.6966 127.329 75.3892 126.872 71.0819C126.887 64.6171 128.343 58.2285 127.855 51.7408C127.893 48.6761 127.764 45.6114 127.932 42.5467C127.932 40.9305 128 39.3067 127.909 37.6905C127.527 31.1189 130.531 26.7887 136.592 24.4406C138.262 23.3276 140.145 23.1903 142.066 23.2513C149.407 23.4724 156.817 22.7634 164.067 23.4495C172.652 24.2577 181.228 23.5334 189.767 24.3873C189.736 25.4774 189.698 26.5752 189.668 27.6654C189.187 27.6883 188.707 27.6578 188.234 27.5587C172.156 27.4291 156.078 27.5129 140 27.5206C134.831 27.5206 131.217 31.0198 130.859 36.1886C130.783 37.3245 130.821 38.4604 130.821 39.604C130.821 82.9747 130.92 126.345 130.722 169.716C130.691 176.745 133.802 181.487 142.439 181.327C160.667 180.991 178.903 181.06 197.131 181.304C204.541 181.403 209.375 178.743 209.298 169.381C209.016 136.378 209.176 103.375 209.207 70.3729C209.207 68.406 208.711 66.279 210.358 64.6171C212.386 65.7225 211.791 67.6665 211.791 69.3513C211.814 102.659 211.799 135.966 211.806 169.274C211.806 171.165 211.913 173.048 211.974 174.938C210.617 180.725 206.805 184.254 200.821 184.3C180.367 184.445 159.913 184.353 139.466 184.331C135.38 184.331 132.3 182.265 129.693 179.33C129.159 178.064 128.633 176.798 128.099 175.533L128.076 175.541Z" fill="#332E85"/>
<path d="M76.4638 185.687C75.0839 181.975 76.2351 178.285 76.5782 174.587C77.3176 166.636 78.0495 158.677 78.8424 150.733C79.0558 148.637 78.385 147.089 76.5934 146.006C80.3747 145.984 84.1484 145.961 87.9297 145.93C88.8064 155.147 91.8025 163.815 94.8062 172.483C96.1403 177.942 97.4669 183.4 98.8772 189.194C92.0236 189.194 85.4749 189.194 78.9186 189.194C76.4257 189.194 77.188 186.915 76.4562 185.68L76.4638 185.687Z" fill="#385C2B"/>
<path d="M65.1126 42.6759C61.1026 44.9401 58.5715 48.4317 56.841 52.5942C55.1409 50.8408 53.3494 49.316 50.9403 48.4622C46.7016 46.9603 49.0115 43.179 48.4093 40.404C48.8819 39.4816 49.5299 38.5362 50.521 38.3533C54.127 37.6672 55.4535 35.1971 56.597 32.0104C57.3746 29.8453 57.3975 28.2063 56.2158 26.3842C54.8436 24.2648 55.0647 22.4504 57.0621 20.7351C59.0213 19.0503 60.3631 16.7098 63.7785 18.3718C68.0401 20.4378 73.5443 18.1126 75.0995 13.3783C76.2659 9.8181 78.5606 10.2222 81.2289 9.98582C84.1106 9.73424 85.6964 11.0379 86.1233 13.4851C86.6417 16.4354 89.3633 16.2982 91.0024 17.6476C86.4892 19.401 81.9303 21.0324 77.501 22.9688C76.0982 23.5787 74.0398 24.3487 75.0233 26.773C75.3054 27.5201 74.8556 27.9928 74.3295 28.3206C68.9168 31.6216 66.1342 36.5922 65.1202 42.6987L65.1126 42.6759Z" fill="#8F9ACE"/>
<path d="M127.451 99.6778C127.436 110.892 127.329 122.099 127.474 133.313C127.512 136.37 126.62 136.538 124.082 135.593C116.664 132.825 111.434 127.733 107.714 120.91C111.693 115.665 114.666 109.871 117.022 103.741C117.746 101.866 118.608 100.021 118.242 97.9167C117.121 94.4937 119.294 91.3681 119.157 88.0289C119.302 87.5944 119.53 87.2132 119.835 86.8701C120.575 86.1306 121.505 85.7876 122.488 85.5284C126.102 84.5678 127.367 85.4826 127.436 89.1801C127.497 92.6641 127.421 96.1481 127.413 99.632L127.436 99.6854L127.451 99.6778Z" fill="#9AA6CF"/>
<path d="M93.9905 96.6053C94.0057 96.1021 93.8304 95.4846 94.0591 95.1111C97.0933 90.1633 96.3538 85.3528 93.6169 80.5881C93.0375 79.5742 93.4416 78.6288 93.9676 77.7369C94.2878 77.1956 94.6156 76.6314 95.0654 76.2121C102.605 69.1527 99.4642 68.3903 112.264 74.5654C113.537 78.0418 111.044 80.9007 110.694 84.1178C110.427 85.0022 110.13 85.8789 109.87 86.7632C109.083 89.5331 110.424 91.7745 113.896 93.4872C113.995 93.876 113.88 94.1734 113.53 94.3792C111.898 94.4936 111.281 95.7591 110.526 96.9407C106.859 102.689 102.224 107.637 97.4516 112.455C96.7883 113.118 96.308 114.14 94.7528 114.132C94.8748 108.254 94.7681 102.407 93.9752 96.5977L93.9905 96.6053Z" fill="#8C96CB"/>
<path d="M65.9287 81.5487C66.6225 76.5095 68.5436 71.3407 64.4116 66.7894C63.4892 65.7755 63.1385 64.5709 63.8856 63.3283C64.5717 62.1924 65.5247 61.9789 66.7749 62.6498C68.6732 63.6637 69.3593 62.7184 69.8091 60.843C70.2437 59.0362 71.2195 57.3819 73.2703 55.9639C72.9882 58.4797 74.3528 59.2191 76.2587 59.0895C79.3081 58.8837 82.5406 59.4402 85.1021 56.9702C85.4375 56.65 86.4591 57.0388 87.1605 57.1074C88.8377 62.2991 87.5645 67.3383 86.3447 72.3775C85.8263 73.3381 85.8568 74.7484 84.6523 75.1449C82.045 76.0063 81.336 78.2553 80.4746 80.4357C80.4746 81.0151 80.4746 81.5944 80.4746 82.1738C77.2879 88.4633 73.2931 89.2181 68.3911 84.3999C67.4992 83.5232 66.7444 82.5093 65.9287 81.5563V81.5487Z" fill="#E2C7C3"/>
<path d="M39.2914 116.32C35.5177 116.396 31.8355 116.465 28.4964 114.018C23.0912 110.069 21.1091 102.796 24.2653 97.5126C28.3134 90.7505 35.0603 88.4786 41.6395 91.6729C42.8821 92.2752 44.1172 92.8927 45.3598 93.5026C42.9431 100.394 41.144 107.446 40.0614 114.673C39.9623 115.321 39.8403 115.908 39.2914 116.312V116.32Z" fill="#9AA6CF"/>
<path d="M189.758 24.3946C172.034 24.4175 154.309 24.4327 136.584 24.4556C137.621 21.8636 140.22 19.5536 137.659 16.3593C137.003 15.5436 138.604 14.7888 138.856 13.8511C140.197 12.9744 141.303 11.9681 143.254 12.9439C145.991 14.3086 148.278 13.1421 149.948 10.7026C152.159 7.4778 155.361 7.59978 157.046 10.977C158.425 13.752 160.751 14.3848 163.533 13.6758C166.712 12.8601 169.182 15.109 168.443 18.2576C167.398 22.6945 168.115 23.6627 172.582 23.678C178.247 23.7008 183.919 23.678 189.583 23.678C189.682 23.9067 189.743 24.143 189.751 24.387L189.758 24.3946Z" fill="#8692C9"/>
<path d="M258.165 79.8565C255.939 78.934 253.858 78.2327 252.638 81.366C252.18 82.5324 250.945 82.2427 250.023 81.7319C249.619 81.5108 249.245 81.0458 249.078 80.6036C247.934 77.6609 244.275 80.1767 243.078 77.9201C242.087 76.0523 244.099 73.041 240.844 71.8517C240.128 71.5925 239.647 70.2736 240.158 69.9687C242.864 68.3296 242.727 65.425 243.68 62.9854C244.031 62.1011 244.946 62.0249 245.952 62.2612C247.012 62.5128 248.216 62.7643 249.07 61.6589C250.656 59.5472 252.272 58.1673 254.025 61.5065C254.079 61.6132 254.201 61.7809 254.277 61.7733C260.147 61.0567 259.08 66.7972 261.397 69.3816C261.962 70.0068 262.305 71.097 261.847 71.4324C258.95 73.5594 259.957 77.3026 258.173 79.8489L258.165 79.8565Z" fill="#8591C9"/>
<path d="M109.223 86.748C109.177 85.9628 108.964 85.1547 109.551 84.4533C113.995 80.5043 117.868 81.8537 119.698 87.9831C120.323 91.4518 119.073 94.6461 118.249 97.909C116.115 97.4897 113.919 97.1466 113.545 94.3793C113.622 94.1429 113.66 93.9066 113.645 93.6627C113.141 90.7352 109.482 89.828 109.223 86.748Z" fill="#E55F51"/>
<path d="M63.8699 153.752C64.7542 154.217 65.6996 154.598 66.5153 155.17C68.5203 156.557 71.5697 157.358 69.8392 160.987C69.6181 161.444 70.3118 162.336 70.5787 163.03C70.6244 164.219 72.3626 165.218 71.2038 166.461C70.045 167.696 68.4212 167.452 66.9422 167.032C63.3362 166.011 61.9945 163.038 60.9043 159.874C60.5765 159.34 60.3554 158.791 60.5308 158.151C60.8052 156.054 62.7645 155.231 63.8699 153.767V153.752Z" fill="#494140"/>
<path d="M52.8307 187.227C52.9679 186.808 52.884 186.236 53.5473 186.175C53.7836 189.08 55.9716 188.417 57.7403 188.432C62.3754 188.455 67.0182 188.295 71.6381 188.5C73.6965 188.592 74.8705 187.83 75.7625 186.198C76.0751 188.211 75.8235 189.385 73.1629 189.278C67.2622 189.049 61.3463 189.194 55.438 189.217C54.02 189.217 52.5257 189.446 52.8231 187.235L52.8307 187.227Z" fill="#272465"/>
<path d="M127.42 99.6166C125.857 96.6892 126.841 93.5406 126.719 90.5064C126.528 85.6273 126.658 85.6121 122.046 86.7251C121.329 86.9005 120.643 87.213 119.949 87.457C118.577 84.8726 120.361 82.6465 120.94 80.3594C121.542 77.9808 120.994 76.9593 118.638 76.3418C116.892 75.8843 114.513 76.3265 113.766 73.826C115.954 72.3622 118.287 71.2416 120.856 70.5859C122.564 70.1514 123.456 68.8477 124.295 67.3459C127.001 62.482 127.962 57.3132 127.458 51.8242C127.618 51.8547 127.779 51.8776 127.931 51.9081C127.87 58.472 128.228 65.0359 127.557 71.5846C128.053 75.8615 127.901 80.1383 127.634 84.4152C127.725 84.9031 127.817 85.3834 127.916 85.8713C127.542 90.2167 128.221 94.5927 127.542 98.9381C127.466 99.1592 127.428 99.3879 127.42 99.6243V99.6166Z" fill="#C4C6D0"/>
<path d="M113.766 73.8262C115.687 74.3674 117.586 75.046 119.537 75.4119C122.266 75.9227 123.54 76.8604 122.19 79.9098C121.138 82.2884 120.673 84.9338 119.949 87.4572C119.781 87.5944 119.697 87.7698 119.697 87.9832C119.423 87.7316 119.08 87.5258 118.874 87.2285C115.405 82.1893 115.177 82.1207 109.55 84.4611C110.458 81.1677 111.365 77.8667 112.272 74.5733C112.767 74.3293 113.271 74.0778 113.766 73.8338V73.8262Z" fill="#231E5A"/>
<path d="M80.4815 80.4281C79.9784 77.7065 80.2757 75.5871 83.5843 74.7942C84.644 74.5427 85.4369 73.2009 86.3517 72.3623C86.6261 73.422 86.2602 74.6189 87.0302 75.5795C87.236 80.3442 86.1992 81.1066 80.4815 80.4205V80.4281Z" fill="#221D56"/>
<path d="M127.939 51.9084C127.779 51.8702 127.627 51.8474 127.467 51.8245C127.528 48.7293 126.765 45.5884 127.939 42.5542C128.381 45.6723 128.374 48.7903 127.939 51.9084Z" fill="#1F1C55"/>
<path d="M137.529 28.9075C153.798 28.8923 170.074 28.938 186.343 28.816C188.897 28.8008 189.774 29.3878 189.819 32.1094C189.957 39.7102 192.907 46.2131 198.137 51.7936C201.468 55.3462 205.646 58.1365 208.063 62.5277C209.107 64.0829 209.161 65.8287 209.161 67.6202C209.153 101.858 209.168 136.096 209.138 170.333C209.138 177.873 205.791 181.189 198.236 181.197C179.39 181.227 160.537 181.197 141.692 181.22C138.406 181.22 135.402 180.648 133.046 178.132C131.346 175.769 130.919 173.101 130.927 170.242C130.95 126.253 130.942 82.2652 130.95 38.2769C130.95 36.3787 130.889 34.4728 131.72 32.6888C133.008 30.4399 134.083 27.8555 137.522 28.9075H137.529Z" fill="white"/>
<path d="M197.382 26.5365C197.382 25.6065 197.382 25.4845 197.382 25.3549C197.443 22.8391 196.787 19.9802 197.763 17.8914C198.838 15.5814 202.101 16.9689 204.358 16.3895C207.666 15.5357 210.457 13.9576 213.01 11.9831C214.672 10.6947 215.564 10.3516 217.341 11.9145C221 15.1316 225.185 17.3958 230.369 16.9155C231.78 16.7859 233.015 17.3806 233 18.9587C232.954 27.0702 234.357 35.4714 229.546 42.813C226.07 48.1266 220.893 51.9537 216.525 56.4821C215.694 57.3436 214.604 57.2673 213.826 56.4058C209.138 51.1913 203.039 47.2575 199.677 40.8384C197.184 36.0661 197.298 30.8972 197.367 26.5442L197.382 26.5365Z" fill="#393091"/>
<path d="M248.308 114.041C248.201 115.352 247.637 116.496 246.768 117.418C245.091 119.179 244.618 121.306 244.496 123.631C243.917 134.762 237.734 142.065 228.334 147.204C223.356 149.925 218.37 152.555 212.69 153.524C212.69 151.244 212.69 148.957 212.683 146.678C214.368 145.473 216.35 145.999 218.18 145.839C228.044 144.97 235.645 137.095 236.598 126.566C237.376 117.944 230.126 108.224 221.237 106.097C219.285 105.632 217.318 105.129 215.267 105.243C214.269 105.297 213.201 105.441 212.69 104.222C212.69 97.6273 212.69 91.0328 212.683 84.4384C213.445 84.4384 214.215 84.5451 214.955 84.4384C220.306 83.6151 224.065 85.094 225.071 91.0176C225.277 92.2297 226.184 93.0683 227.518 93.6477C231.803 95.4926 235.95 97.5129 240.494 94.311C241.805 93.3885 243.055 93.7926 244.13 95.0429C245.198 96.2855 246.394 97.4367 247.607 98.5345C249.261 100.036 249.566 101.813 248.514 103.65C246.547 107.119 246.44 110.542 248.308 114.041Z" fill="#8996C7"/>
<path d="M212.691 104.206C220.756 103.917 227.724 106.211 232.916 112.729C240.311 122.015 238.519 135.211 229.226 142.583C224.195 146.578 218.713 147.417 212.675 146.67C212.675 132.513 212.683 118.363 212.691 104.206Z" fill="#9AA6CF"/>
<path d="M133.794 177.706C135.936 179.436 138.345 180.084 141.135 180.069C160.484 179.985 179.841 180.038 199.189 180.023C205.311 180.023 207.979 177.37 207.987 171.287C208.017 135.036 208.04 98.7784 208.063 62.5281C209.222 62.7949 209.771 63.725 210.343 64.6246C210.32 99.6475 210.099 134.678 210.388 169.701C210.472 179.551 204.823 182.524 197.482 182.417C178.621 182.143 159.752 182.333 140.891 182.318C133.489 182.318 129.792 178.552 129.792 171.088C129.792 126.826 129.792 82.5706 129.792 38.3079C129.792 29.7618 132.864 26.6971 141.456 26.6971C156.017 26.6971 170.578 26.6971 185.139 26.7429C186.458 26.7429 187.952 26.194 189.057 27.49C187.754 28.2219 186.336 27.8483 184.971 27.8559C170.7 27.8864 156.436 27.8636 142.165 27.894C140.8 27.894 139.382 27.5662 138.063 28.2295C137.888 28.4582 137.705 28.6869 137.529 28.908C135.456 29.2282 133.832 30.1811 132.917 32.148C131.644 33.2763 131.621 34.7629 131.621 36.3181C131.636 81.6558 131.644 126.986 131.621 172.323C131.621 174.466 132.086 176.311 133.802 177.706H133.794Z" fill="#241F5B"/>
<path d="M138.063 28.2218C139.351 27.0096 140.952 27.5356 142.408 27.528C157.953 27.4823 173.505 27.4899 189.05 27.4899C189.256 27.5509 189.454 27.6119 189.66 27.6652C188.707 28.5648 187.517 28.237 186.42 28.2446C170.303 28.2523 154.179 28.237 138.063 28.2218Z" fill="#171342"/>
<path d="M65.1121 42.6763C64.0601 37.9649 67.5212 31.523 72.873 28.2143C73.6048 27.7569 74.3062 27.2461 75.0228 26.7582C84.2626 24.3187 91.6347 27.0555 96.2241 34.641C100.44 41.609 97.5582 52.5718 90.7275 55.5297C91.04 49.0115 84.4761 41.7386 77.7673 41.1745C73.4447 40.8085 69.2136 41.1592 65.1121 42.684V42.6763Z" fill="#9AA6CF"/>
<path d="M127.542 98.9306C127.519 94.5699 126.795 90.194 127.923 85.8638C128.167 90.2321 128.823 94.6081 127.542 98.9306Z" fill="#201B55"/>
<path d="M127.641 84.415C127.077 80.1458 127.245 75.8613 127.565 71.5845C128.671 75.8537 128.518 80.1305 127.641 84.415Z" fill="#221F59"/>
<path d="M109.223 86.748C109.52 88.1203 110.603 88.6921 111.739 89.1876C113.789 90.0872 114.369 91.589 113.645 93.6627C113.141 93.6093 112.638 93.594 112.15 93.4949C106.76 92.359 106.684 92.1761 109.223 86.7557V86.748Z" fill="#221E59"/>
<path d="M162.078 23.6931C156.764 23.6931 151.862 23.7236 146.96 23.6626C146.205 23.6549 144.94 24.242 144.787 22.9612C144.673 21.9549 145.527 21.1392 146.342 20.4988C150.825 16.969 158.708 17.6247 162.078 23.6931Z" fill="#9AA6CE"/>
<path d="M251.151 76.0905C247.545 76.0448 246.005 74.4286 246.021 70.7235C246.028 67.331 248.719 64.6094 251.868 64.8C254.277 64.9448 257.235 68.2992 257.189 70.8379C257.136 73.8949 254.567 76.1363 251.151 76.0905Z" fill="#9DA7D5"/>
<path d="M163.945 63.7784C168.619 63.8622 173.292 63.9613 177.965 64.0147C182.943 64.0757 184.339 65.387 184.384 70.2356C184.415 73.5213 184.476 76.8071 184.369 80.0929C184.171 86.4967 180.016 90.6973 173.635 91.0023C171.866 91.0862 170.09 91.0633 168.321 90.9947C161.78 90.7355 157.709 86.8093 157.397 80.3064C157.237 77.0282 157.488 73.7272 157.32 70.4567C157.145 67.1251 158.334 64.8304 161.544 63.7021C162.36 63.2676 163.168 63.2371 163.953 63.786L163.945 63.7784Z" fill="#393091"/>
<path d="M195.072 112.63C198.282 113.53 199.806 115.771 199.814 118.966C199.822 122.183 198.274 124.401 195.065 125.293C188.119 124.706 181.159 125.057 174.214 125.065C164.982 125.072 155.742 124.744 146.517 125.263C143.171 124.195 141.646 121.756 141.936 118.409C142.21 115.283 143.826 113.019 147.242 112.554C148.423 113.202 149.712 112.89 150.947 112.897C164.41 112.92 177.881 112.92 191.344 112.897C192.587 112.897 193.86 113.141 195.072 112.623V112.63Z" fill="#393091"/>
<path d="M154.095 151.129C150.474 149.17 149.323 146.829 150.291 142.766C151.13 139.252 153.661 138.078 157.107 138.1C166.331 138.169 175.564 138.154 184.788 138.1C188.082 138.078 190.506 139.244 191.36 142.568C192.442 146.814 191.207 149.368 187.479 151.167C176.349 151.35 165.226 150.344 154.095 151.129Z" fill="#393091"/>
<path d="M133.794 177.705C130.981 176.92 131.263 174.656 131.263 172.483C131.27 133.283 131.27 94.082 131.27 54.8814C131.27 48.5614 131.263 42.2338 131.27 35.9138C131.27 34.4425 130.904 32.7653 132.909 32.1401C132.223 34.0613 132.04 36.0358 132.04 38.0789C132.071 82.3416 132.078 126.604 132.017 170.867C132.017 173.368 132.521 175.594 133.786 177.705H133.794Z" fill="#201B53"/>
<path d="M163.945 63.7782C163.144 63.7477 162.336 63.7249 161.536 63.6944C161.536 60.927 161.414 58.1444 161.581 55.3923C161.879 50.6428 164.959 48.0431 170.219 47.8601C176.188 47.6543 179.474 49.8956 179.993 54.8586C180.198 56.8331 181.548 60.218 179.245 60.5382C176.409 60.9346 177.911 57.5192 177.599 55.8116C176.935 52.2208 174.908 50.414 171.035 50.4598C166.949 50.5055 164.372 52.3809 164.059 55.8573C163.823 58.4798 163.96 61.1405 163.93 63.7859L163.945 63.7782Z" fill="#201B53"/>
<path d="M146.51 125.263C147.341 124.455 148.393 124.676 149.384 124.668C163.656 124.66 177.935 124.66 192.206 124.668C193.189 124.668 194.249 124.439 195.065 125.293C191.84 126.101 188.554 125.621 185.307 125.644C173.871 125.712 162.428 125.69 150.985 125.659C149.491 125.659 147.997 125.4 146.51 125.263Z" fill="#5D5190"/>
<path d="M195.072 112.63C194.272 113.499 193.204 113.278 192.221 113.278C178.163 113.286 164.105 113.286 150.055 113.278C149.071 113.278 147.996 113.507 147.242 112.562C159.676 111.898 172.118 112.409 184.559 112.302C188.066 112.272 191.596 111.906 195.08 112.638L195.072 112.63Z" fill="#332E85"/>
<path d="M154.096 151.13C154.774 150.367 155.689 150.482 156.566 150.482C166.057 150.482 175.541 150.482 185.032 150.482C185.909 150.482 186.824 150.375 187.479 151.168C182.631 152.212 177.729 151.602 172.857 151.541C166.606 151.465 160.324 152.205 154.096 151.13Z" fill="#302F88"/>
<path d="M209.214 33.2383C210.854 33.4289 211.761 34.7859 212.82 35.7922C214.421 37.317 215.405 37.1187 216.64 35.3424C218.721 32.3387 220.97 29.4418 223.257 26.5905C223.943 25.7291 224.561 23.6554 225.933 24.7761C227.229 25.8358 228.899 27.8256 227.427 29.6857C223.92 34.1455 220.109 38.3614 216.411 42.6687C215.397 43.8504 214.612 42.9508 213.88 42.3104C211.784 40.496 209.71 38.6435 207.652 36.7833C207.034 36.2268 206.02 35.7236 206.592 34.6563C207.11 33.6881 208.277 33.65 209.222 33.2307L209.214 33.2383Z" fill="#DDAACE"/>
<path d="M170.852 83.2563C170.159 83.0505 169.457 82.8523 168.763 82.6464C169.777 79.5284 168.169 76.4637 168.558 73.4295C168.733 72.042 170.395 71.4855 171.935 72.1792C173.391 72.8348 174.306 74.2452 173.46 75.4802C172.217 77.287 172.385 78.9032 172.903 80.7482C173.376 82.4406 173.025 83.5613 170.86 83.2563H170.852Z" fill="#BF9ECA"/>
<path d="M190.895 119.499C186.526 117.608 190.704 122.282 186.923 121.832C183.858 121.466 183.652 119.713 183.256 117.99C183.149 117.509 185.489 115.832 186.656 115.886C187.731 115.931 188.737 117.563 190.887 119.499H190.895Z" fill="#A887BE"/>
<path d="M163.991 121.161C160.087 123.891 163.106 117.898 160.911 118.455C161.292 116.808 163.686 117.365 163.998 115.634C165.172 116.564 166.339 117.502 167.513 118.432C165.241 117.792 167.901 123.616 163.991 121.154V121.161Z" fill="#A987BE"/>
<path d="M153.219 114.986C153.509 117.266 155.171 117.357 156.345 118.112C154.98 119.08 156.04 121.207 154.469 122.046C154.111 122.236 150.947 120.605 150.818 120.407C149.117 117.731 151.915 117.083 153.211 114.979L153.219 114.986Z" fill="#AB8BC0"/>
<path d="M178.689 118.714C175.754 118.402 179.086 121.977 176.326 121.916C173.78 121.863 172.362 120.384 172.278 118.127C172.262 117.593 174.549 116.793 175.472 115.688C175.579 117.555 178.041 116.923 178.689 118.706V118.714Z" fill="#B48FC2"/>
<path d="M161.989 140.379L163.964 145.98H164.042L166.018 140.379H166.862L164.419 147.032H163.588L161.145 140.379H161.989ZM169.422 147.136C168.941 147.136 168.527 147.03 168.178 146.818C167.831 146.603 167.564 146.305 167.376 145.921C167.189 145.536 167.096 145.087 167.096 144.576C167.096 144.065 167.189 143.615 167.376 143.225C167.564 142.833 167.826 142.527 168.162 142.309C168.5 142.088 168.894 141.977 169.344 141.977C169.604 141.977 169.861 142.021 170.114 142.107C170.368 142.194 170.598 142.335 170.806 142.53C171.014 142.722 171.18 142.978 171.303 143.296C171.427 143.615 171.488 144.007 171.488 144.472V144.797H167.642V144.134H170.709C170.709 143.853 170.652 143.602 170.54 143.381C170.429 143.16 170.271 142.985 170.065 142.858C169.862 142.73 169.621 142.666 169.344 142.666C169.039 142.666 168.775 142.742 168.552 142.893C168.331 143.043 168.161 143.238 168.042 143.478C167.922 143.719 167.863 143.976 167.863 144.251V144.693C167.863 145.07 167.928 145.389 168.058 145.652C168.19 145.911 168.373 146.11 168.607 146.246C168.841 146.38 169.113 146.447 169.422 146.447C169.624 146.447 169.806 146.419 169.968 146.363C170.133 146.305 170.274 146.218 170.394 146.103C170.513 145.986 170.605 145.841 170.67 145.668L171.41 145.876C171.332 146.127 171.201 146.348 171.017 146.538C170.833 146.727 170.606 146.874 170.335 146.98C170.064 147.084 169.76 147.136 169.422 147.136ZM172.655 147.032V142.042H173.395V142.796H173.447C173.538 142.549 173.703 142.349 173.941 142.195C174.179 142.041 174.448 141.964 174.747 141.964C174.803 141.964 174.874 141.965 174.958 141.968C175.042 141.97 175.106 141.973 175.15 141.977V142.757C175.124 142.75 175.064 142.741 174.971 142.728C174.88 142.713 174.784 142.705 174.682 142.705C174.439 142.705 174.223 142.756 174.032 142.858C173.844 142.957 173.694 143.096 173.584 143.273C173.476 143.449 173.421 143.649 173.421 143.874V147.032H172.655ZM176.059 147.032V142.042H176.825V147.032H176.059ZM176.448 141.211C176.299 141.211 176.17 141.16 176.062 141.058C175.956 140.956 175.903 140.834 175.903 140.691C175.903 140.548 175.956 140.425 176.062 140.324C176.17 140.222 176.299 140.171 176.448 140.171C176.598 140.171 176.726 140.222 176.832 140.324C176.94 140.425 176.994 140.548 176.994 140.691C176.994 140.834 176.94 140.956 176.832 141.058C176.726 141.16 176.598 141.211 176.448 141.211ZM180.452 142.042V142.692H177.762V142.042H180.452ZM178.567 147.032V141.354C178.567 141.068 178.634 140.829 178.769 140.639C178.903 140.448 179.077 140.305 179.292 140.21C179.506 140.115 179.733 140.067 179.971 140.067C180.159 140.067 180.313 140.082 180.432 140.112C180.551 140.143 180.64 140.171 180.698 140.197L180.478 140.86C180.439 140.847 180.384 140.83 180.315 140.811C180.248 140.791 180.159 140.782 180.049 140.782C179.795 140.782 179.612 140.846 179.5 140.973C179.389 141.101 179.334 141.289 179.334 141.535V147.032H178.567ZM182.02 148.903C181.89 148.903 181.774 148.893 181.672 148.871C181.57 148.851 181.5 148.832 181.461 148.813L181.656 148.137C181.842 148.184 182.007 148.202 182.15 148.189C182.293 148.176 182.419 148.112 182.53 147.997C182.643 147.884 182.745 147.701 182.839 147.448L182.981 147.058L181.136 142.042H181.968L183.345 146.019H183.397L184.775 142.042H185.606L183.488 147.76C183.393 148.018 183.275 148.231 183.134 148.4C182.993 148.571 182.83 148.698 182.644 148.78C182.46 148.862 182.252 148.903 182.02 148.903Z" fill="white"/>
</svg>
