<svg width="308" height="185" viewBox="0 0 308 185" fill="none" xmlns="http://www.w3.org/2000/svg">
<path d="M102.351 93.2598C102.349 93.0096 102.388 92.7694 102.587 92.5708C102.59 92.5211 102.597 92.4735 102.601 92.4239C102.845 91.8004 102.911 91.1272 103.302 90.5434C103.382 90.4223 103.346 90.2853 103.353 90.1542C103.366 89.9437 103.442 89.7392 103.663 89.6538C104.715 89.2408 105.119 88.379 105.579 87.5728C106.962 85.1483 108.26 82.6881 109.684 80.2814C110.196 79.4197 110.674 78.542 111.219 77.6941C111.301 77.5631 111.37 77.428 111.393 77.2791C112.397 75.5079 113.502 73.7843 114.621 72.0667C115.002 71.4829 115.469 70.9389 115.761 70.3114C116.261 69.6104 116.645 68.8459 117.281 68.2185C117.369 68.1927 117.451 68.1986 117.53 68.2423C117.739 68.5004 117.553 68.7209 117.417 68.9294C116.898 69.7375 116.36 70.5377 115.827 71.34C113.05 75.5079 110.516 79.785 108.156 84.1396C105.967 88.1805 103.943 92.2809 102.032 96.425C101.329 97.946 100.779 99.5067 100.297 101.089C100.249 101.246 100.198 101.409 100.283 101.608C100.736 101.512 101.083 101.246 101.45 101.04C105.625 98.7085 109.781 96.3555 113.971 94.0481C114.453 93.7821 114.924 93.4981 115.409 93.232C115.657 93.097 115.931 92.9183 116.229 93.1764C116.121 93.24 116.011 93.3035 115.903 93.369C113.194 94.892 110.488 96.419 107.777 97.9381C105.301 99.3261 102.82 100.706 100.338 102.086C100.15 102.189 99.9203 102.332 99.7089 102.217C99.5136 102.11 99.5756 101.874 99.6262 101.709C99.7663 101.234 99.9708 100.774 100.104 100.299C100.272 99.6994 100.527 99.1215 100.662 98.5119C100.777 97.9917 101.009 97.4913 101.177 96.981C101.352 96.4568 101.51 95.9286 101.68 95.4024C101.862 94.8424 102.029 94.2805 102.243 93.7304C102.305 93.5716 102.372 93.4266 102.353 93.2598H102.351Z" fill="#91C0DE"/>
<path d="M116.231 93.1773C115.516 93.1158 115.098 93.6122 114.586 93.8842C112.647 94.9128 110.749 95.999 108.84 97.0693C107.025 98.0879 105.219 99.1205 103.402 100.139C102.398 100.703 101.378 101.245 100.372 101.807C100.092 101.964 99.9836 101.89 100.002 101.636C100.018 101.408 100.032 101.17 100.117 100.955C100.563 99.8413 100.831 98.6796 101.33 97.5796C101.863 96.4041 102.371 95.2226 102.952 94.063C103.593 92.7842 104.16 91.4776 104.797 90.1968C105.511 88.7632 106.262 87.3414 107.007 85.9197C107.758 84.488 108.498 83.0524 109.288 81.6386C109.906 80.5306 110.6 79.4543 111.25 78.3602C111.976 77.139 112.663 75.9 113.419 74.6927C114.227 73.4 115.093 72.1351 115.936 70.8584C116.414 70.1356 116.897 69.4128 117.379 68.692C117.467 68.5609 117.526 68.4239 117.517 68.269C117.728 67.6674 118.124 67.1491 118.528 66.6368C118.817 66.2715 119.029 65.8644 119.346 65.5129C120.292 64.3195 121.112 63.0566 122.052 61.8593C123.256 60.3224 124.425 58.7676 125.631 57.2307C126.291 56.3907 127.07 55.6163 127.584 54.693C127.614 54.6255 127.655 54.5659 127.708 54.5123C127.798 54.4289 127.887 54.3415 127.991 54.2681C128.384 53.9623 128.643 53.5631 128.96 53.2057C128.986 53.164 129.018 53.1263 129.052 53.0905C129.321 52.8403 129.532 52.5564 129.753 52.2744C129.799 52.2307 129.845 52.189 129.893 52.1493C130.364 51.641 130.98 51.498 131.719 51.5C148.708 51.5099 165.695 51.508 182.684 51.508C182.893 51.508 183.104 51.502 183.314 51.5238C183.72 51.5675 184 51.7224 184.003 52.1156C184.01 52.5068 183.768 52.8423 183.647 53.2017C183.353 54.0675 183.144 54.9531 182.769 55.799C182.608 56.1604 182.335 56.3173 181.903 56.3153C181.558 56.3133 181.216 56.3153 180.871 56.3153C178.758 56.3113 176.67 56.5099 174.577 56.764C173.474 56.8971 172.369 57.0837 171.243 57.0897C170.8 57.0917 170.393 57.2485 169.975 57.3498C169.052 57.4074 168.19 57.6775 167.331 57.9475C166.674 58.3506 165.877 58.4261 165.137 58.6206C163.099 59.1588 160.061 60.3632 159.237 60.6679C160.061 59.9685 160.061 60.3632 160.061 60.3632C159.427 60.6651 159.198 60.6679 158.235 60.7579C158.177 60.9347 155.961 62.0658 155.798 62.1472C153.234 63.4141 150.872 64.9291 148.6 66.5455C146.992 67.6892 145.508 68.9541 144.118 70.2964C142.868 71.5017 141.548 72.8814 140.425 74.1781C140.572 74.1602 140.344 74.2714 140.425 74.1781C139.738 74.7321 139.147 75.5227 138.641 76.1859C138.331 76.9067 137.899 77.562 137.247 78.0981C136.829 78.7971 136.25 79.4186 135.898 80.1513C136.041 80.3261 135.903 80.4651 135.813 80.6041C135.4 81.2573 135.044 81.9325 134.715 82.6175C134.554 82.9531 134.306 83.2033 133.955 83.3959C130.539 85.2684 127.159 87.1905 123.75 89.071C122.126 89.9665 120.517 90.8839 118.907 91.8013C118.686 91.9264 118.477 92.0812 118.186 92.0753C117.545 92.2123 117.108 92.6372 116.582 92.9331C116.456 93.0026 116.348 93.0959 116.233 93.1773H116.231Z" fill="#EDF5FB"/>
<path d="M126.693 22.6462C126.803 22.4218 127.138 22.3265 127.15 22.0465C127.421 21.5243 127.878 21.1212 128.358 20.7558C129.858 19.6141 131.331 18.4346 133.084 17.5668C133.316 17.4517 133.539 17.3266 133.798 17.2611C134.134 17.2908 134.375 16.8877 134.752 17.1022C134.773 17.3921 134.504 17.4894 134.288 17.6145C133.75 17.9282 133.176 18.1983 132.723 18.6133C132.312 18.9886 132.303 19.1216 132.799 19.3798C134.191 20.1026 135.526 20.9008 136.923 21.6176C137.973 22.1577 138.993 22.7435 140.034 23.2995C141.446 24.0521 142.857 24.8046 144.272 25.5532C146.03 26.4845 147.78 27.4257 149.51 28.3947C150.567 28.9865 151.633 29.5683 152.715 30.1262C153.094 30.3228 153.418 30.2077 153.74 30.0567C154.633 29.6397 155.46 29.1334 156.308 28.6549C157.955 27.7236 159.575 26.7565 161.323 25.9623C161.865 25.7161 162.433 25.5215 162.989 25.303C163.758 25.0012 164.574 25.1184 165.362 25.1045C167.131 25.0767 168.902 25.0926 170.671 25.1045C172.27 25.1144 173.869 25.1164 175.468 25.1223C177.028 25.1283 178.59 25.0945 180.15 25.1045C181.749 25.1144 183.348 25.1184 184.945 25.1204C186.505 25.1223 188.064 25.1442 189.624 25.0965C190.213 25.0787 190.812 25.0509 191.393 25.1184C191.993 25.1879 192.342 24.9953 192.593 24.5644C192.712 24.3579 192.792 24.1335 192.937 23.9389C193.041 23.7999 193.103 23.5834 193.392 23.6549C193.601 23.8694 193.484 24.0818 193.404 24.3042C193.093 25.1839 192.763 26.0576 192.501 26.9492C192.303 27.7057 191.961 28.4225 191.692 29.1592C191.529 29.608 191.331 30.0567 191.143 30.4995C190.709 31.5242 190.415 31.7465 189.142 31.7465C177.609 31.7465 166.079 31.7525 154.546 31.7366C153.726 31.7366 153.007 31.8955 152.32 32.2589C150.866 33.0293 149.508 33.9149 148.159 34.8104C147.75 35.0825 147.335 35.3466 146.882 35.565C146.381 35.8073 145.917 35.7854 145.432 35.5015C143.785 34.5404 142.067 33.6786 140.383 32.7692C139.252 32.1576 138.085 31.5837 137.015 30.8887C136.629 30.6385 136.181 30.4896 135.772 30.2732C133.72 29.185 131.694 28.0651 129.636 26.9889C128.446 26.3654 127.279 25.7022 126.105 25.0509C125.562 24.751 125.473 24.4035 125.783 23.9011C126.052 23.4663 126.327 23.0294 126.693 22.6422V22.6462Z" fill="#87C1E7"/>
<path d="M126.692 22.6445C126.658 23.1171 126.265 23.4448 126.031 23.8339C125.649 24.4674 125.652 24.6084 126.35 24.9837C127.499 25.5992 128.611 26.2684 129.769 26.8621C131.223 27.6067 132.643 28.401 134.099 29.1456C135.027 29.6202 135.983 30.071 136.86 30.5991C137.954 31.2544 139.151 31.7627 140.205 32.4716C140.768 32.8509 141.437 33.111 142.05 33.4387C143.132 34.0165 144.235 34.5685 145.273 35.2019C146.041 35.6686 146.254 35.7321 147.047 35.2794C148.446 34.4791 149.707 33.5181 151.111 32.7218C151.8 32.3307 152.501 31.9712 153.238 31.6575C153.512 31.5404 153.799 31.5761 154.084 31.5761C165.839 31.5761 177.595 31.5721 189.348 31.5761C190.46 31.5761 190.398 31.5404 190.871 30.6726C191.345 29.8069 191.625 28.8617 191.981 27.9483C192.114 27.6067 192.218 27.2573 192.335 26.9117C192.406 26.88 192.466 26.8919 192.514 26.9455C192.661 27.15 192.597 27.3565 192.523 27.565C191.79 29.6281 191.087 31.6972 190.371 33.7643C190.097 34.5546 189.801 35.337 189.523 36.1253C189.325 36.6872 189.04 36.8977 188.367 36.9037C185.123 36.9255 181.88 36.9156 178.633 36.9116C178.395 36.9116 178.188 36.8381 177.988 36.7369C177.834 36.7369 177.68 36.7369 177.528 36.7349C177.28 36.8719 177.011 36.9295 176.715 36.9295C170.354 36.9295 163.992 36.9295 157.631 36.9255C157.477 36.9255 157.325 36.9195 157.176 36.8977C156.79 36.7964 156.395 36.7686 155.991 36.7706C153.659 36.7865 151.327 36.7547 148.993 36.7925C148.538 36.8004 148.12 36.8361 147.796 37.1558C147.591 37.3564 147.297 37.3882 147.006 37.3901C146.096 37.3961 145.299 37.6403 144.566 38.1248C143.7 38.6967 142.877 39.3163 142.007 39.8822C141.747 40.051 141.483 40.2138 141.2 40.3567C140.775 40.5692 140.385 40.5474 139.969 40.3111C137.223 38.7484 134.409 37.2809 131.627 35.7718C130.058 34.922 128.452 34.1197 126.885 33.2659C125.707 32.6245 124.508 32.005 123.35 31.3338C122.612 30.9069 122.472 30.4661 122.697 29.7215C122.904 29.0424 123.092 28.3533 123.088 27.6405C123.246 26.8641 123.726 26.2029 124.135 25.5198C124.634 24.6858 125.245 23.9114 125.9 23.1628C126.086 22.9483 126.286 22.7577 126.573 22.6485C126.614 22.6485 126.656 22.6485 126.697 22.6485L126.692 22.6445Z" fill="#87C1E7"/>
<path d="M123.251 27.6035C123.272 28.364 123.06 29.0948 122.835 29.8195C122.644 30.4331 122.782 30.8203 123.4 31.1559C125.962 32.5478 128.505 33.9676 131.099 35.3139C133.203 36.406 135.245 37.5835 137.343 38.6836C138.303 39.1879 139.28 39.6705 140.187 40.2423C140.578 40.4886 140.879 40.3456 141.18 40.1788C141.981 39.734 142.689 39.178 143.44 38.6717C143.996 38.2984 144.557 37.927 145.14 37.5895C145.698 37.2678 146.356 37.2261 147.008 37.2261C147.33 37.2261 147.594 37.2043 147.784 36.9243C147.936 36.6999 148.226 36.6264 148.531 36.6264C151.226 36.6264 153.921 36.6264 156.618 36.6264C156.753 36.6264 156.887 36.6264 156.99 36.7217C156.845 36.8885 156.629 36.9004 156.42 36.9024C154.378 36.9183 152.338 36.9084 150.369 36.9124C154.102 37.4981 157.911 38.0859 161.725 38.6498C163.57 38.9219 165.412 39.2018 167.248 39.5176C167.67 39.591 168.125 39.6168 168.465 39.8968C169.212 39.9028 169.92 40.1113 170.65 40.2026C172.111 40.29 173.563 40.4469 174.999 40.6971C175.89 40.8519 176.821 40.8758 177.652 41.253C177.813 41.3265 177.986 41.2669 178.158 41.2511C178.505 41.2173 178.84 41.2967 179.173 41.3742C179.642 41.5608 180.101 41.7614 180.641 41.7554C180.837 41.7534 181.066 41.8249 181.073 42.0096C181.082 42.2221 180.823 42.226 180.641 42.2479C180.356 42.2836 180.069 42.2677 179.782 42.2677C167.16 42.2677 154.541 42.2796 141.919 42.2518C140.663 42.2499 139.65 42.5497 138.756 43.2824C138.23 43.7133 137.66 44.1065 137.102 44.5076C136.592 44.8729 136.082 44.9543 135.468 44.6763C134.99 44.4599 134.554 44.1978 134.099 43.9555C130.568 42.0771 127.028 40.2106 123.529 38.2845C122.619 37.7841 121.746 37.1963 120.676 36.9342C120.584 36.9124 120.51 36.8528 120.45 36.7873C120.303 36.5867 120.349 36.3782 120.416 36.1677C121.144 33.8981 121.81 31.6146 122.52 29.341C122.663 28.8823 122.842 28.4296 122.948 27.959C122.98 27.81 122.975 27.6115 123.251 27.6075V27.6035Z" fill="#87C1E7"/>
<path d="M110.055 69.1508C110.182 68.1301 110.613 67.1651 110.926 66.1901C111.206 65.3144 111.503 64.4249 111.801 63.5512C112.095 62.6874 112.359 61.7998 112.631 60.9261C112.787 60.4257 112.92 59.8975 113.127 59.3951C113.329 58.9067 113.515 58.3884 113.609 57.8602C113.749 57.745 113.823 57.6041 113.848 57.4392C113.561 56.6688 114.055 55.9957 114.255 55.2987C114.404 54.7804 114.599 54.2622 114.751 53.7419C115.006 52.8662 115.353 52.0203 115.659 51.1605C115.721 50.9858 115.838 50.8329 116.065 50.7793C116.44 50.9739 116.297 51.2658 116.231 51.5259C115.925 52.7332 115.594 53.9345 115.426 55.1617C115.312 56.0056 115.413 56.1704 116.272 56.5973C117.365 57.1374 118.36 57.8165 119.435 58.3685C120.295 58.8114 121.122 59.3197 122.045 59.6751C122.417 59.8181 122.682 59.7625 122.95 59.5004C124.23 58.2474 125.372 56.9051 126.468 55.531C126.739 55.1915 127.028 54.8638 127.313 54.5322C127.442 54.3813 127.577 54.1887 127.867 54.282C127.917 54.3833 127.92 54.4786 127.83 54.566C127.793 54.6017 127.756 54.6355 127.72 54.6712C127.15 55.5449 126.422 56.3233 125.767 57.1454C124.556 58.6724 123.38 60.2192 122.176 61.7521C121.675 62.3141 121.218 62.8999 120.816 63.5174C120.568 63.843 120.354 64.1886 120.129 64.5281C119.86 64.7823 119.647 65.0682 119.47 65.376C118.879 66.1524 118.296 66.9308 117.772 67.7409C117.639 67.9474 117.485 68.1202 117.276 68.2632C116.901 68.9979 116.394 69.669 115.893 70.3402C115.541 70.6877 115.316 71.1126 114.958 71.4561C114.593 71.8096 114.317 71.8294 113.876 71.5336C113.005 70.9458 112.036 70.499 111.075 70.0364C110.903 69.953 110.735 69.8656 110.664 69.7087C110.545 69.4446 110.306 69.2957 110.048 69.1508H110.055Z" fill="#87C1E7"/>
<path d="M110.058 69.1545C110.423 69.0194 110.641 69.1386 110.728 69.4583C110.813 69.772 111.023 69.9467 111.404 69.9547C111.459 69.9547 111.542 69.9547 111.567 69.9825C112.201 70.6536 113.281 70.7549 113.947 71.3824C114.269 71.6862 114.505 71.7219 114.857 71.3506C115.183 71.0051 115.374 70.5385 115.9 70.3459C115.682 70.9813 115.199 71.4976 114.843 72.0714C114.039 73.372 113.203 74.6568 112.383 75.9474C112.1 76.3922 111.824 76.843 111.546 77.2917C111.085 78.1357 110.538 78.9379 109.998 79.7421C109.646 80.2663 109.169 80.3 108.624 79.8989C108.319 79.6746 108.024 79.4363 107.687 79.2536C107.393 79.0947 107.161 79.1166 107.184 79.4839C107.211 79.9029 106.876 80.2127 106.759 80.5939C106.492 81.4617 106.262 82.3413 105.899 83.1872C105.812 83.3917 105.794 83.6042 105.739 83.8107C105.679 84.0371 105.61 84.2754 105.238 84.2297C105.663 82.8238 106.03 81.4021 106.524 80.0141C107.002 78.6698 107.411 77.3116 107.832 75.9534C107.866 75.8442 107.857 75.7251 107.868 75.6119C108.22 75.4471 108.293 75.2108 108.105 74.9089C108.59 73.8526 108.826 72.7386 109.171 71.6485C109.318 71.1818 109.378 70.6656 109.711 70.2426C110.014 69.9904 109.789 69.639 109.936 69.359C109.975 69.2895 110.016 69.222 110.055 69.1525L110.058 69.1545Z" fill="#87C1E7"/>
<path d="M194.061 22.6372C193.703 23.0145 193.629 23.503 193.524 23.9398C193.407 24.4183 193.135 24.8473 193.044 25.3337C192.94 25.8719 192.655 26.3842 192.449 26.9084C192.409 26.9084 192.373 26.9084 192.334 26.9084C192.628 26.0367 192.908 25.163 193.225 24.2992C193.305 24.0768 193.381 23.8663 193.365 23.636C193.361 23.6122 193.354 23.5863 193.349 23.5625C193.333 23.2528 193.602 22.9867 193.537 22.667C193.884 21.4994 194.325 20.3557 194.707 19.198C195.224 17.6273 195.78 16.0666 196.278 14.4939C196.437 13.9955 196.391 14.0134 195.805 13.9002C194.971 13.7414 194.135 13.7672 193.294 13.7672C185.184 13.7672 177.077 13.7672 168.967 13.7652C168.583 13.7652 168.204 13.7692 167.832 13.8645C164.223 13.9598 160.614 13.9121 157.005 13.9121C155.698 13.8089 154.386 13.8744 153.079 13.8724C152.229 13.8724 151.369 13.7811 150.526 13.9519C150.287 13.9896 150.044 14.0075 149.8 13.9936C148.716 13.9538 147.634 13.9002 146.559 14.1445C145.601 14.3629 144.597 14.3192 143.623 14.5257C141.808 14.9129 140.018 15.3498 138.254 15.8819C137.257 16.1838 136.303 16.5451 135.377 16.9741C135.178 17.0674 134.964 17.1547 134.723 17.0852C134.392 17.1289 134.176 17.4327 133.804 17.3831C134.468 16.9423 135.221 16.6365 135.966 16.3208C136.161 16.2374 136.338 16.1619 136.448 15.9971C136.77 16.015 137.075 15.9991 137.245 15.7052C137.806 15.7568 138.274 15.4828 138.778 15.3537C139.823 15.0837 140.866 14.8136 141.92 14.5654C143.237 14.2557 144.567 14.0948 145.902 13.8923C146.791 13.7573 147.666 13.7434 148.55 13.7036C151.323 13.5845 154.089 13.2946 156.874 13.4157C157.14 13.5289 157.409 13.4336 157.676 13.4157C158.868 13.6083 160.072 13.511 161.269 13.4753C161.549 13.4674 161.834 13.4217 162.119 13.4217C167.18 13.4197 172.241 13.4177 177.302 13.4157C177.571 13.513 177.84 13.5051 178.108 13.4157C183.939 13.4177 189.77 13.4197 195.6 13.4237C195.867 13.4237 196.131 13.4058 196.395 13.4812C196.903 13.6282 197.133 14.0313 196.825 14.4086C196.471 14.8395 196.503 15.3577 196.285 15.8224C196.012 16.4081 195.807 17.0475 195.653 17.671C195.525 18.1952 195.251 18.6797 195.169 19.2218C195.109 19.621 194.937 20.0399 194.767 20.4172C194.541 20.9216 194.475 21.4676 194.185 21.9462C194.144 22.1765 194.103 22.4069 194.061 22.6372Z" fill="#A7C7DB"/>
<path d="M105.233 84.229C105.374 84.1675 105.553 84.0722 105.532 83.953C105.44 83.401 105.801 82.9364 105.964 82.4538C106.136 81.9415 106.139 81.3697 106.495 80.905C106.612 80.7541 106.612 80.5952 106.607 80.4324C106.6 80.2438 106.63 80.0671 106.814 79.942C107.023 79.799 107.044 79.6322 106.975 79.4177C106.931 79.2867 106.897 79.1139 107.071 79.0107C107.267 78.8955 107.478 78.9154 107.657 79.0325C108.034 79.2807 108.413 79.527 108.764 79.801C109.212 80.1465 109.431 80.1723 109.78 79.7394C110.253 79.1517 110.674 78.5282 111.087 77.9047C111.229 77.6902 111.351 77.4718 111.547 77.2871C111.455 77.8749 110.993 78.3197 110.722 78.8379C109.991 80.2219 109.166 81.5662 108.397 82.9344C107.763 84.0622 107.161 85.208 106.483 86.3219C106.044 87.0447 105.661 87.7993 105.231 88.53C104.93 89.0403 104.54 89.505 103.862 89.7055C103.729 89.7452 103.554 89.8405 103.579 89.9239C103.745 90.468 103.168 90.8235 103.143 91.3358C103.122 91.7488 102.862 92.1519 102.706 92.5589C102.681 91.8123 103.065 91.1511 103.283 90.4541C103.428 89.9875 103.561 89.5189 103.719 89.0522C103.933 88.4248 104.156 87.7913 104.328 87.1619C104.466 86.6615 104.707 86.1849 104.788 85.6667C104.863 85.1782 105.079 84.7076 105.233 84.229Z" fill="#87C1E7"/>
<path d="M117.284 68.2644C117.675 67.6806 118.026 67.071 118.469 66.519C118.789 66.1199 119.007 65.6711 119.352 65.2899C119.405 65.2502 119.455 65.2521 119.501 65.2978C119.54 65.3991 119.545 65.4964 119.464 65.5877C118.908 66.382 118.352 67.1763 117.799 67.9725C117.721 68.0857 117.663 68.2068 117.516 68.2684C117.438 68.2684 117.36 68.2684 117.282 68.2664L117.284 68.2644Z" fill="#A0CEEB"/>
<path d="M127.833 54.5681C127.838 54.4727 127.84 54.3794 127.845 54.2841C127.811 54.1451 127.868 54.022 127.958 53.9168C128.61 53.1582 129.203 52.36 129.968 51.6749C130.354 51.2182 130.857 50.8548 131.282 50.4319C131.518 50.1956 131.842 50.0963 132.189 50.0467C132.474 50.007 132.761 50.0169 133.049 50.0169C149.693 50.0169 166.34 50.0169 182.984 50.0169C183.25 50.0169 183.519 50.007 183.786 50.0427C184.061 50.0804 184.305 50.1618 184.422 50.4061C184.19 50.9541 184.505 51.6134 183.965 52.0979C183.789 51.5035 183.341 51.2063 182.621 51.2063C165.956 51.2063 149.291 51.2162 132.626 51.1884C131.378 51.1865 130.515 51.6015 129.793 52.3977C129.545 52.6499 129.329 52.9219 129.102 53.19C128.739 53.5752 128.415 53.9843 128.061 54.3754C127.985 54.441 127.909 54.5045 127.833 54.57V54.5681Z" fill="#EDF5FB"/>
<path d="M129.792 52.3922C130.398 51.6516 130.964 50.9824 132.243 50.9844C149.166 51.0122 166.088 51.0023 183.01 51.0042C183.704 51.0042 184.02 51.3014 183.959 51.8958C183.952 51.9613 183.962 52.0269 183.964 52.0944C183.962 52.1281 183.957 52.1619 183.955 52.1956C183.918 52.1956 183.883 52.1956 183.847 52.1956C183.902 51.6972 183.53 51.6953 183.112 51.6953C176.539 51.7012 169.966 51.6992 163.391 51.6992C152.995 51.6992 142.602 51.7052 132.207 51.6873C131.281 51.6873 130.417 51.6933 129.792 52.3942V52.3922Z" fill="#EDF5FB"/>
<path d="M119.465 65.5852C119.465 65.4859 119.465 65.3866 119.465 65.2874C119.616 65.0014 119.816 64.7413 120.037 64.4931C120.2 64.1277 120.448 63.8041 120.721 63.4943C121.162 62.8906 121.61 62.291 122.1 61.7151C122.787 60.8275 123.474 59.9419 124.156 59.0504C125.215 57.6683 126.295 56.3002 127.427 54.9638C127.517 54.8586 127.567 54.7256 127.721 54.668C127.519 55.3213 126.97 55.7919 126.552 56.33C125.355 57.8728 124.138 59.4038 122.95 60.9526C121.774 62.4876 120.623 64.0384 119.462 65.5832L119.465 65.5852Z" fill="#EDF5FB"/>
<path d="M128.062 54.371C128.315 53.9143 128.639 53.5052 129.103 53.1855C128.853 53.6423 128.513 54.0434 128.062 54.371Z" fill="#EDF5FB"/>
<path d="M129.101 53.1888C129.232 52.8611 129.45 52.5891 129.792 52.3965C129.65 52.7182 129.427 52.9862 129.101 53.1888Z" fill="#EDF5FB"/>
<path d="M134.726 17.0858C139.436 14.9552 144.437 13.8333 149.762 13.8174C149.624 14.1967 149.22 14.1311 148.91 14.1609C147.957 14.2542 147.022 14.4131 146.093 14.6136C145.962 14.6414 145.831 14.6673 145.707 14.7109C145.588 14.7526 145.427 14.7785 145.439 14.9254C145.448 15.0346 145.576 15.0703 145.675 15.12C146.654 15.6025 147.543 16.2419 148.54 16.6509C149.59 17.0818 150.394 17.7927 151.432 18.2196C152.181 18.5274 152.861 18.9762 153.585 19.3435C155.127 20.1279 156.558 21.0631 158.136 21.7958C158.575 22.0004 158.929 22.3399 159.372 22.5087C160.456 22.9237 161.293 23.6842 162.4 24.0615C162.788 24.1945 163.124 24.1707 163.498 24.0297C165.481 23.2811 167.349 22.3379 169.285 21.5139C171.909 20.3979 174.576 19.3673 177.28 18.4063C178.636 17.9238 180.005 17.475 181.376 17.0342C182.192 16.7721 183.037 16.5675 183.869 16.3392C184.841 16.0731 185.822 15.8348 186.789 15.5449C187.32 15.3861 187.882 15.2729 188.431 15.1478C189.178 14.975 189.957 14.9155 190.678 14.6653C191.211 14.4806 191.79 14.5183 192.348 14.3793C193.116 14.1867 193.92 14.0537 194.646 13.9286C194.175 13.8849 193.626 13.8631 193.074 13.8631C184.969 13.8631 176.862 13.8631 168.757 13.8591C168.465 13.8591 168.137 13.9544 167.891 13.7181C168.065 13.5712 168.288 13.6248 168.49 13.6248C177.22 13.6228 185.95 13.6208 194.68 13.6268C195.211 13.6268 195.744 13.6804 196.272 13.732C196.585 13.7618 196.762 13.8968 196.638 14.2066C196.208 15.2709 195.847 16.3591 195.507 17.4412C195.14 18.6187 194.699 19.7784 194.349 20.9618C194.163 21.5893 193.918 22.2128 193.709 22.8403C193.525 23.0825 193.449 23.3605 193.366 23.6346C192.962 24.0238 192.907 24.5718 192.532 24.9769C192.328 25.1973 192.11 25.374 191.765 25.3144C191.349 25.2449 190.908 25.3482 190.536 25.2847C189.883 25.1735 189.247 25.2886 188.615 25.2767C187.99 25.2648 187.345 25.2132 186.702 25.2827C186.09 25.3482 185.461 25.2827 184.838 25.2946C184.055 25.3065 183.262 25.3224 182.484 25.2886C181.806 25.2588 181.133 25.3323 180.453 25.2668C179.823 25.2072 179.173 25.2191 178.544 25.2906C178.031 25.3482 177.521 25.2767 177.025 25.2727C176.354 25.2668 175.677 25.38 174.994 25.2529C174.526 25.1655 174.006 25.2449 173.538 25.2708C172.899 25.3045 172.253 25.2648 171.622 25.2708C170.935 25.2787 170.234 25.3522 169.536 25.2608C168.984 25.1893 168.412 25.2708 167.845 25.2509C167.025 25.2231 166.2 25.2648 165.375 25.233C163.99 25.1794 162.699 25.4673 161.465 26.0551C158.972 27.2445 156.67 28.6881 154.265 29.9907C154.04 30.1138 153.792 30.2052 153.558 30.3164C153.181 30.4951 152.866 30.4315 152.51 30.221C151.662 29.7246 150.773 29.2818 149.914 28.7993C149.245 28.424 148.558 28.0785 147.913 27.6655C147.244 27.2366 146.454 26.9566 145.76 26.5555C144.589 25.8784 143.314 25.3403 142.158 24.6651C140.472 23.6802 138.712 22.8006 137.007 21.8455C135.53 21.0155 134.035 20.1993 132.523 19.411C131.994 19.135 132.008 19.0258 132.431 18.6187C132.95 18.1184 133.612 17.7868 134.26 17.4393C134.441 17.342 134.627 17.2605 134.721 17.0858H134.726Z" fill="#87C1E7"/>
<path d="M109.936 69.3594C109.874 69.6572 110.115 70.0107 109.71 70.243C109.876 69.965 109.729 69.6294 109.936 69.3594Z" fill="#CCE3F2"/>
<path d="M119.354 40.1995C119.733 39.8739 119.556 39.4191 119.717 39.0339C120.031 38.2813 120.243 37.497 120.498 36.7266C121.754 36.9192 122.685 37.6658 123.744 38.186C124.752 38.6825 125.713 39.2583 126.714 39.7706C127.711 40.2809 128.656 40.8647 129.641 41.3929C131.13 42.1911 132.625 42.9795 134.13 43.7519C134.668 44.0279 135.169 44.3476 135.743 44.5878C136.182 44.7705 136.476 44.705 136.777 44.4985C137.358 44.1014 137.907 43.6645 138.477 43.2555C139.118 42.7948 139.706 42.2527 140.588 42.1296C140.737 42.1077 140.889 42.0839 141.041 42.0839C147.466 42.0819 153.892 42.0819 160.316 42.0819C167.102 42.0819 173.888 42.0819 180.675 42.0819C180.767 42.0819 180.861 42.072 180.967 42.0243C180.362 41.8258 179.655 41.8893 179.14 41.4902C181.421 41.8436 183.703 42.1971 185.984 42.5505C186.078 42.5644 186.172 42.5724 186.267 42.5783C186.885 42.626 187.059 42.8385 186.885 43.3667C186.393 44.8539 185.89 46.3372 185.401 47.8265C185.244 48.2991 185.134 48.7816 184.877 49.2244C184.851 49.2045 184.826 49.1847 184.801 49.1648C184.668 48.9821 184.698 48.7856 184.741 48.589C184.766 48.4758 184.806 48.3646 184.833 48.2514C185.058 47.2923 184.911 47.1295 183.804 47.1295C168.03 47.1295 152.256 47.1315 136.483 47.1196C135.732 47.1196 135.104 47.2864 134.532 47.6934C133.912 48.1343 133.331 48.6148 132.69 49.0338C131.943 49.5222 131.674 49.5103 130.88 49.0993C128.424 47.8245 125.991 46.514 123.565 45.1994C122.4 44.57 121.233 43.9425 120.066 43.315C119.243 42.8722 119.207 42.8961 118.772 43.6705C118.563 44.0438 118.421 44.4389 118.251 44.8222C118.154 45.0386 118.118 45.3225 117.745 45.3523C117.64 44.8003 118.005 44.3317 118.145 43.8293C118.488 42.6061 118.945 41.4088 119.356 40.1995H119.354Z" fill="#87C1E7"/>
<path d="M184.423 50.4042C184.115 50.2553 183.789 50.2096 183.433 50.2096C166.497 50.2136 149.558 50.2196 132.622 50.1997C131.503 50.1997 131.058 50.9086 130.421 51.4427C130.247 51.5897 130.13 51.7882 129.909 51.8994C129.757 51.689 129.904 51.5182 130.017 51.3494C130.375 50.8212 130.812 50.3387 131.246 49.8562C131.51 49.5623 131.871 49.4174 132.305 49.473C132.781 49.5325 133.259 49.5146 133.736 49.5146C149.97 49.5146 166.205 49.5146 182.438 49.5146C183.265 49.5146 184.111 49.6119 184.876 49.2168H184.878C184.915 49.6656 184.536 49.9932 184.423 50.3983V50.4042Z" fill="#E4EFF5"/>
<path d="M184.874 49.221C184.69 49.6102 184.352 49.7233 183.879 49.7233C166.881 49.7154 149.885 49.7313 132.887 49.6816C131.917 49.6797 131.38 49.8584 130.925 50.5474C130.619 51.012 130.169 51.4052 129.907 51.9016C129.22 52.6959 128.531 53.4882 127.844 54.2824C127.327 54.6101 127.04 55.1065 126.691 55.5434C125.568 56.9472 124.389 58.3134 123.102 59.61C122.636 60.0806 122.133 60.1084 121.338 59.5782C120.791 59.2149 120.185 58.9667 119.606 58.6668C118.901 58.2995 118.198 57.8964 117.541 57.4556C117.102 57.1597 116.619 56.9353 116.135 56.7189C115.046 56.2324 115.144 56.012 115.252 55.0747C115.356 54.199 115.629 53.3412 115.804 52.4755C115.916 51.9255 116.265 51.3933 116.13 50.8055C116.323 50.1582 116.58 49.5188 116.695 48.8596C116.847 47.9998 117.12 47.1717 117.38 46.3358C117.483 46.0022 117.593 45.6706 117.738 45.3489C118.2 44.6281 118.354 43.7981 118.857 43.0872C119.1 42.7417 119.275 42.6623 119.7 42.9006C120.63 43.4168 121.657 43.812 122.542 44.3759C123.693 45.1086 124.989 45.6368 126.13 46.3775C126.585 46.6714 127.118 46.8759 127.603 47.136C128.832 47.7913 130.061 48.4465 131.276 49.1217C131.699 49.358 132.035 49.2468 132.363 49.0145C133.084 48.5022 133.794 47.9819 134.511 47.4656C135.028 47.0943 135.593 46.9235 136.294 46.9255C152.203 46.9394 168.112 46.9374 184.024 46.9374C184.215 46.9374 184.408 46.9335 184.598 46.9414C184.941 46.9553 185.12 47.0923 185.106 47.41C185.09 47.8052 185.145 48.2043 184.95 48.5816C184.842 48.7861 184.883 49.0045 184.872 49.217L184.874 49.221Z" fill="#87C1E7"/>
<path d="M122.098 61.7168C121.714 62.3542 121.257 62.9479 120.72 63.496C121.051 62.8288 121.496 62.2271 122.098 61.7168Z" fill="#B2D7EE"/>
<path d="M120.038 64.4941C119.898 64.786 119.755 65.0779 119.466 65.2884C119.427 65.2884 119.39 65.2884 119.351 65.2884C119.542 64.9985 119.689 64.6808 120.038 64.4941Z" fill="#B2D7EE"/>
<path d="M167.895 13.7188C177.045 13.7366 186.195 13.6989 195.346 13.7386C195.355 14.0682 195.176 14.0921 195.04 14.1C193.673 14.1755 192.361 14.5289 191.031 14.7612C189.917 14.9558 188.791 15.1901 187.696 15.4959C186.025 15.9606 184.321 16.3279 182.66 16.8164C180.755 17.3744 178.876 17.9959 177.02 18.675C174.842 19.4713 172.678 20.2973 170.546 21.1809C168.984 21.8282 167.46 22.549 165.912 23.2222C165.011 23.6134 164.113 24.0145 163.178 24.3362C162.576 24.5427 162.064 24.1296 161.547 23.9311C161.23 23.8099 160.991 23.5359 160.711 23.3393C160.58 23.246 160.433 23.103 160.288 23.1011C159.493 23.0832 159.114 22.4637 158.489 22.2035C157.814 21.9216 157.258 21.453 156.532 21.2385C156.164 21.1293 155.912 20.8612 155.608 20.6627C154.324 19.8287 152.87 19.229 151.535 18.4605C150.846 18.0634 150.198 17.565 149.474 17.2751C148.206 16.7668 147.124 16.042 145.966 15.4086C145.741 15.2854 145.454 15.3212 145.243 15.1365C144.988 14.9161 144.937 14.7771 145.321 14.648C146.143 14.374 147.016 14.2827 147.868 14.1119C148.496 13.9868 149.169 14.094 149.764 13.824C149.993 13.824 150.221 13.822 150.451 13.82C150.706 13.7207 150.977 13.7763 151.239 13.7743C152.969 13.7684 154.698 13.7743 156.428 13.7684C156.614 13.7684 156.81 13.8101 156.987 13.7227C160.623 13.7227 164.258 13.7227 167.895 13.7227V13.7188Z" fill="#87C1E7"/>
<path d="M156.986 13.7198C156.832 13.8588 156.63 13.8151 156.446 13.8151C154.447 13.8171 152.448 13.8151 150.45 13.8151C150.606 13.6821 150.806 13.7198 150.992 13.7198C152.991 13.7178 154.989 13.7178 156.988 13.7178L156.986 13.7198Z" fill="#87C1E7"/>
<path d="M193.367 23.6322C193.358 23.3284 193.36 23.0265 193.709 22.8379C193.705 23.1377 193.528 23.382 193.367 23.6322Z" fill="#9BCBE9"/>
<path d="M193.462 13.816C193.237 14.096 192.941 14.2429 192.61 14.2965C189.975 14.7235 187.402 15.337 184.845 16.032C182.708 16.6138 180.59 17.2314 178.477 17.8648C177.312 18.2143 176.168 18.6194 175.008 18.9808C174.544 19.1257 174.059 19.219 173.581 19.3322C173.491 19.3541 173.353 19.3838 173.305 19.3461C172.763 18.9331 171.913 19.0503 171.437 18.5201C171.189 18.2421 170.893 18.0117 170.424 18.0713C170.261 18.0932 170.139 17.9899 170.031 17.8926C169.414 17.3366 168.644 16.9713 167.906 16.5503C167.132 16.1055 166.199 15.8652 165.556 15.2636C165.264 14.9896 165.019 14.7552 164.543 14.7652C164.371 14.7691 164.157 14.5964 164.173 14.4355C164.198 14.2092 164.47 14.233 164.676 14.2112C168.89 13.7684 173.121 13.7981 177.353 13.8101C182.552 13.824 187.751 13.814 192.948 13.814C193.118 13.814 193.288 13.814 193.46 13.814L193.462 13.816Z" fill="#87C1E7"/>
<path d="M6.47042 144.574H12.7225V146.532H8.94112V148.551H12.5417V150.51H8.94112V152.649H12.7677V154.607H6.47042V144.574ZM21.3436 153.011H18.9633L17.0048 148.988L16.7035 154.607H14.278L15.0312 144.574H17.2609L20.1534 150.706L23.0459 144.574H25.2756L26.0288 154.607H23.6033L23.302 148.988L21.3436 153.011ZM35.0568 147.843C35.0568 148.375 34.9413 148.853 34.7103 149.274C34.4793 149.696 34.1579 150.053 33.7461 150.344C33.3444 150.625 32.8673 150.841 32.3149 150.992C31.7625 151.142 31.1649 151.218 30.5222 151.218H30.266V154.607H27.7954V144.574H30.6879C31.3206 144.574 31.9031 144.639 32.4354 144.77C32.9778 144.9 33.4398 145.101 33.8214 145.372C34.2131 145.634 34.5144 145.97 34.7254 146.382C34.9463 146.794 35.0568 147.281 35.0568 147.843ZM32.6765 147.858C32.6765 146.934 32.0186 146.472 30.7029 146.472H30.266V149.32H30.6728C31.3256 149.32 31.8228 149.189 32.1643 148.928C32.5057 148.667 32.6765 148.31 32.6765 147.858ZM46.2858 149.591C46.2858 150.304 46.1703 150.977 45.9393 151.609C45.7083 152.232 45.3718 152.78 44.9299 153.252C44.4981 153.724 43.9657 154.1 43.333 154.381C42.7003 154.653 41.9771 154.788 41.1636 154.788C40.3501 154.788 39.6219 154.653 38.9792 154.381C38.3464 154.1 37.8091 153.724 37.3672 153.252C36.9353 152.78 36.6039 152.232 36.3729 151.609C36.1519 150.977 36.0414 150.304 36.0414 149.591C36.0414 148.878 36.1519 148.21 36.3729 147.587C36.6039 146.954 36.9353 146.402 37.3672 145.93C37.8091 145.458 38.3464 145.086 38.9792 144.815C39.6219 144.534 40.3501 144.393 41.1636 144.393C41.9771 144.393 42.7003 144.534 43.333 144.815C43.9657 145.086 44.4981 145.458 44.9299 145.93C45.3718 146.402 45.7083 146.954 45.9393 147.587C46.1703 148.21 46.2858 148.878 46.2858 149.591ZM41.1636 152.83C41.5955 152.83 41.9771 152.749 42.3086 152.589C42.64 152.428 42.9162 152.207 43.1372 151.926C43.3682 151.635 43.5389 151.293 43.6494 150.901C43.7599 150.5 43.8151 150.063 43.8151 149.591C43.8151 149.119 43.7599 148.687 43.6494 148.295C43.5389 147.893 43.3682 147.552 43.1372 147.271C42.9162 146.979 42.64 146.753 42.3086 146.593C41.9771 146.432 41.5955 146.352 41.1636 146.352C40.7217 146.352 40.335 146.432 40.0036 146.593C39.6822 146.753 39.406 146.979 39.175 147.271C38.9541 147.552 38.7883 147.893 38.6779 148.295C38.5674 148.687 38.5121 149.119 38.5121 149.591C38.5121 150.063 38.5674 150.5 38.6779 150.901C38.7883 151.293 38.9541 151.635 39.175 151.926C39.406 152.207 39.6822 152.428 40.0036 152.589C40.335 152.749 40.7217 152.83 41.1636 152.83ZM57.6029 151.534L59.1547 144.574H61.6856L58.9136 154.607H56.3977L54.3639 147.075L52.3301 154.607H49.8142L47.0422 144.574H49.5732L51.1249 151.534L52.993 144.574H55.7349L57.6029 151.534ZM63.0121 144.574H69.2641V146.532H65.4828V148.551H69.0833V150.51H65.4828V152.649H69.3093V154.607H63.0121V144.574ZM78.7289 147.753C78.7289 148.426 78.538 149.013 78.1564 149.515C77.7848 150.018 77.2625 150.399 76.5896 150.66L79.8889 154.607H76.8457L74.0888 151.127H73.6368V154.607H71.1661V144.574H74.3599C74.9826 144.574 75.5601 144.639 76.0924 144.77C76.6247 144.9 77.0867 145.096 77.4784 145.357C77.8701 145.619 78.1765 145.95 78.3974 146.352C78.6184 146.743 78.7289 147.21 78.7289 147.753ZM76.3485 147.798C76.3485 147.346 76.1728 147.015 75.8213 146.804C75.4697 146.583 74.9776 146.472 74.3449 146.472H73.6368V149.289H74.2394C74.9023 149.289 75.4195 149.159 75.7911 148.898C76.1627 148.637 76.3485 148.27 76.3485 147.798ZM83.4845 154.607H81.0138V144.574H83.4845V154.607ZM92.1879 154.607L88.0449 148.627V154.607H85.6646V144.574H88.0449L92.1879 150.555V144.574H94.5682V154.607H92.1879ZM101.72 144.393C103.025 144.393 104.12 144.599 105.004 145.011L104.672 146.879C103.809 146.537 102.905 146.367 101.961 146.367C101.459 146.367 101.007 146.432 100.605 146.563C100.203 146.693 99.8566 146.899 99.5653 147.18C99.2841 147.451 99.0632 147.803 98.9025 148.235C98.7518 148.657 98.6765 149.164 98.6765 149.756C98.6765 150.801 98.9477 151.589 99.49 152.122C100.042 152.654 100.851 152.92 101.916 152.92C102.147 152.92 102.367 152.905 102.578 152.875C102.789 152.835 102.965 152.79 103.106 152.739V149.937H105.32V154.065C104.888 154.276 104.336 154.452 103.663 154.592C103 154.723 102.307 154.788 101.584 154.788C100.74 154.788 99.9872 154.668 99.3243 154.427C98.6614 154.176 98.099 153.829 97.637 153.387C97.175 152.945 96.8185 152.418 96.5674 151.805C96.3263 151.183 96.2058 150.495 96.2058 149.741C96.2058 148.938 96.3263 148.21 96.5674 147.557C96.8185 146.894 97.18 146.332 97.6521 145.87C98.1241 145.398 98.7016 145.036 99.3846 144.785C100.068 144.524 100.846 144.393 101.72 144.393ZM116.818 154.607V150.525H113.142V154.607H110.671V144.574H113.142V148.506H116.818V144.574H119.288V154.607H116.818ZM128.963 147.753C128.963 148.426 128.772 149.013 128.39 149.515C128.018 150.018 127.496 150.399 126.823 150.66L130.123 154.607H127.079L124.322 151.127H123.87V154.607H121.4V144.574H124.594C125.216 144.574 125.794 144.639 126.326 144.77C126.858 144.9 127.32 145.096 127.712 145.357C128.104 145.619 128.41 145.95 128.631 146.352C128.852 146.743 128.963 147.21 128.963 147.753ZM126.582 147.798C126.582 147.346 126.406 147.015 126.055 146.804C125.703 146.583 125.211 146.472 124.579 146.472H123.87V149.289H124.473C125.136 149.289 125.653 149.159 126.025 148.898C126.396 148.637 126.582 148.27 126.582 147.798ZM134.559 144.574H140.812V146.532H137.03V148.551H140.631V150.51H137.03V152.649H140.857V154.607H134.559V144.574ZM148 149.561L151.389 154.607H148.753L146.734 151.399L144.715 154.607H142.079L145.469 149.561L142.139 144.574H144.761L146.734 147.708L148.708 144.574H151.329L148 149.561ZM157.236 144.393C157.758 144.393 158.28 144.443 158.802 144.544C159.335 144.644 159.792 144.79 160.173 144.981L159.812 146.804C159.511 146.683 159.164 146.583 158.772 146.502C158.391 146.412 158.009 146.367 157.627 146.367C156.603 146.367 155.794 146.633 155.202 147.165C154.609 147.698 154.313 148.506 154.313 149.591C154.313 150.675 154.609 151.484 155.202 152.016C155.794 152.549 156.603 152.815 157.627 152.815C158.009 152.815 158.391 152.774 158.772 152.694C159.164 152.604 159.511 152.498 159.812 152.378L160.173 154.201C159.792 154.391 159.335 154.537 158.802 154.638C158.28 154.738 157.758 154.788 157.236 154.788C156.352 154.788 155.574 154.658 154.901 154.397C154.228 154.135 153.665 153.774 153.213 153.312C152.761 152.85 152.42 152.302 152.189 151.67C151.958 151.037 151.842 150.344 151.842 149.591C151.842 148.837 151.958 148.144 152.189 147.512C152.42 146.879 152.761 146.332 153.213 145.87C153.665 145.408 154.228 145.046 154.901 144.785C155.574 144.524 156.352 144.393 157.236 144.393ZM161.905 144.574H168.157V146.532H164.376V148.551H167.977V150.51H164.376V152.649H168.202V154.607H161.905V144.574ZM172.53 144.574V152.649H176.221V154.607H170.059V144.574H172.53ZM180.096 144.574V152.649H183.786V154.607H177.625V144.574H180.096ZM185.19 144.574H191.442V146.532H187.661V148.551H191.262V150.51H187.661V152.649H191.488V154.607H185.19V144.574ZM199.868 154.607L195.725 148.627V154.607H193.344V144.574H195.725L199.868 150.555V144.574H202.248V154.607H199.868ZM209.279 144.393C209.801 144.393 210.323 144.443 210.846 144.544C211.378 144.644 211.835 144.79 212.217 144.981L211.855 146.804C211.554 146.683 211.207 146.583 210.816 146.502C210.434 146.412 210.052 146.367 209.671 146.367C208.646 146.367 207.838 146.633 207.245 147.165C206.653 147.698 206.356 148.506 206.356 149.591C206.356 150.675 206.653 151.484 207.245 152.016C207.838 152.549 208.646 152.815 209.671 152.815C210.052 152.815 210.434 152.774 210.816 152.694C211.207 152.604 211.554 152.498 211.855 152.378L212.217 154.201C211.835 154.391 211.378 154.537 210.846 154.638C210.323 154.738 209.801 154.788 209.279 154.788C208.395 154.788 207.617 154.658 206.944 154.397C206.271 154.135 205.709 153.774 205.257 153.312C204.805 152.85 204.463 152.302 204.232 151.67C204.001 151.037 203.886 150.344 203.886 149.591C203.886 148.837 204.001 148.144 204.232 147.512C204.463 146.879 204.805 146.332 205.257 145.87C205.709 145.408 206.271 145.046 206.944 144.785C207.617 144.524 208.395 144.393 209.279 144.393ZM213.948 144.574H220.201V146.532H216.419V148.551H220.02V150.51H216.419V152.649H220.246V154.607H213.948V144.574ZM221.605 156.189C221.736 155.868 221.846 155.562 221.937 155.27C222.027 154.989 222.103 154.703 222.163 154.412C222.223 154.12 222.268 153.814 222.298 153.493C222.339 153.171 222.369 152.815 222.389 152.423L224.754 152.604C224.734 153.016 224.689 153.407 224.618 153.779C224.548 154.15 224.448 154.512 224.317 154.864C224.197 155.215 224.036 155.567 223.835 155.918C223.634 156.27 223.398 156.626 223.127 156.988L221.605 156.189ZM230.172 144.574H236.424V146.532H232.643V148.551H236.243V150.51H232.643V152.649H236.469V154.607H230.172V144.574ZM243.508 154.607H240.736L237.347 144.574H239.938L242.122 152.212L244.307 144.574H246.898L243.508 154.607ZM248.025 144.574H254.277V146.532H250.495V148.551H254.096V150.51H250.495V152.649H254.322V154.607H248.025V144.574ZM263.742 147.753C263.742 148.426 263.551 149.013 263.169 149.515C262.797 150.018 262.275 150.399 261.602 150.66L264.902 154.607H261.858L259.101 151.127H258.649V154.607H256.179V144.574H259.373C259.995 144.574 260.573 144.639 261.105 144.77C261.637 144.9 262.099 145.096 262.491 145.357C262.883 145.619 263.189 145.95 263.41 146.352C263.631 146.743 263.742 147.21 263.742 147.753ZM261.361 147.798C261.361 147.346 261.185 147.015 260.834 146.804C260.482 146.583 259.99 146.472 259.358 146.472H258.649V149.289H259.252C259.915 149.289 260.432 149.159 260.804 148.898C261.175 148.637 261.361 148.27 261.361 147.798ZM270.24 150.962V154.607H267.769V150.962L264.47 144.574H267.106L269.005 148.792L270.903 144.574H273.539L270.24 150.962ZM277.978 144.574H281.036C281.92 144.574 282.729 144.7 283.462 144.951C284.205 145.202 284.838 145.548 285.36 145.99C285.882 146.432 286.289 146.964 286.58 147.587C286.872 148.2 287.017 148.868 287.017 149.591C287.017 150.314 286.872 150.987 286.58 151.609C286.289 152.222 285.882 152.749 285.36 153.191C284.838 153.633 284.205 153.98 283.462 154.231C282.729 154.482 281.92 154.607 281.036 154.607H277.978V144.574ZM281.187 152.649C281.689 152.649 282.146 152.579 282.558 152.438C282.97 152.297 283.321 152.097 283.612 151.835C283.914 151.574 284.145 151.258 284.305 150.886C284.466 150.505 284.546 150.073 284.546 149.591C284.546 149.109 284.466 148.682 284.305 148.31C284.145 147.929 283.914 147.607 283.612 147.346C283.321 147.085 282.97 146.884 282.558 146.743C282.146 146.603 281.689 146.532 281.187 146.532H280.449V152.649H281.187ZM294.252 152.664H290.41L289.792 154.607H287.246L290.982 144.574H293.694L297.43 154.607H294.884L294.252 152.664ZM291.043 150.706H293.619L292.338 146.472L291.043 150.706ZM302.635 150.962V154.607H300.165V150.962L296.865 144.574H299.502L301.4 148.792L303.298 144.574H305.935L302.635 150.962Z" fill="url(#paint0_linear_456_1552)"/>
<path d="M66.3718 136.787V108.974H83.8699V114.403H73.2207V120.709H83.3688V126.138H73.2207V136.787H66.3718ZM104.862 108.974H111.711V126.764C111.711 130.05 110.667 132.625 108.579 134.49C106.519 136.356 103.637 137.288 99.9344 137.288C96.2315 137.288 93.3361 136.356 91.248 134.49C89.1877 132.625 88.1576 130.05 88.1576 126.764V108.974H95.0065V126.973C95.0065 128.56 95.4241 129.771 96.2594 130.606C97.0946 131.442 98.3196 131.859 99.9344 131.859C101.549 131.859 102.774 131.442 103.609 130.606C104.445 129.771 104.862 128.56 104.862 126.973V108.974ZM144.595 122.881C144.595 124.857 144.275 126.723 143.635 128.477C142.994 130.203 142.062 131.72 140.837 133.029C139.64 134.337 138.164 135.381 136.41 136.161C134.656 136.912 132.652 137.288 130.396 137.288C128.141 137.288 126.123 136.912 124.341 136.161C122.587 135.381 121.098 134.337 119.873 133.029C118.675 131.72 117.757 130.203 117.116 128.477C116.504 126.723 116.198 124.857 116.198 122.881C116.198 120.904 116.504 119.052 117.116 117.326C117.757 115.572 118.675 114.041 119.873 112.732C121.098 111.424 122.587 110.394 124.341 109.642C126.123 108.863 128.141 108.473 130.396 108.473C132.652 108.473 134.656 108.863 136.41 109.642C138.164 110.394 139.64 111.424 140.837 112.732C142.062 114.041 142.994 115.572 143.635 117.326C144.275 119.052 144.595 120.904 144.595 122.881ZM130.396 131.859C131.594 131.859 132.652 131.637 133.57 131.191C134.489 130.746 135.255 130.133 135.867 129.354C136.508 128.546 136.981 127.6 137.287 126.514C137.593 125.4 137.746 124.189 137.746 122.881C137.746 121.572 137.593 120.375 137.287 119.289C136.981 118.175 136.508 117.229 135.867 116.449C135.255 115.642 134.489 115.015 133.57 114.57C132.652 114.125 131.594 113.902 130.396 113.902C129.171 113.902 128.1 114.125 127.181 114.57C126.29 115.015 125.524 115.642 124.884 116.449C124.271 117.229 123.812 118.175 123.506 119.289C123.2 120.375 123.046 121.572 123.046 122.881C123.046 124.189 123.2 125.4 123.506 126.514C123.812 127.6 124.271 128.546 124.884 129.354C125.524 130.133 126.29 130.746 127.181 131.191C128.1 131.637 129.171 131.859 130.396 131.859ZM149.149 108.974H157.627C160.077 108.974 162.318 109.322 164.35 110.018C166.411 110.714 168.165 111.675 169.612 112.9C171.06 114.125 172.188 115.6 172.995 117.326C173.802 119.025 174.206 120.876 174.206 122.881C174.206 124.885 173.802 126.75 172.995 128.477C172.188 130.175 171.06 131.637 169.612 132.862C168.165 134.087 166.411 135.047 164.35 135.743C162.318 136.439 160.077 136.787 157.627 136.787H149.149V108.974ZM158.044 131.358C159.437 131.358 160.703 131.163 161.845 130.773C162.986 130.384 163.961 129.827 164.768 129.103C165.603 128.379 166.244 127.502 166.689 126.472C167.135 125.414 167.357 124.217 167.357 122.881C167.357 121.544 167.135 120.361 166.689 119.331C166.244 118.273 165.603 117.382 164.768 116.658C163.961 115.934 162.986 115.377 161.845 114.988C160.703 114.598 159.437 114.403 158.044 114.403H155.998V131.358H158.044ZM194.26 131.4H183.611L181.899 136.787H174.841L185.198 108.974H192.715L203.072 136.787H196.014L194.26 131.4ZM185.365 125.971H192.506L188.956 114.236L185.365 125.971ZM217.501 126.681V136.787H210.652V126.681L201.506 108.974H208.814L214.076 120.667L219.338 108.974H226.647L217.501 126.681Z" fill="url(#paint1_linear_456_1552)"/>
<defs>
<linearGradient id="paint0_linear_456_1552" x1="9.20635" y1="173.471" x2="300.592" y2="121.128" gradientUnits="userSpaceOnUse">
<stop stop-color="#87C1E7"/>
<stop offset="1" stop-color="#509BD2"/>
</linearGradient>
<linearGradient id="paint1_linear_456_1552" x1="289.683" y1="104.731" x2="68.5587" y2="144.257" gradientUnits="userSpaceOnUse">
<stop stop-color="white"/>
<stop offset="1" stop-color="#509BD2"/>
</linearGradient>
</defs>
</svg>
