<svg width="46" height="46" viewBox="0 0 46 46" fill="none" xmlns="http://www.w3.org/2000/svg">
<path d="M21.5623 7.1875V2.875C21.5623 2.49375 21.7137 2.12812 21.9833 1.85853C22.2529 1.58895 22.6185 1.4375 22.9998 1.4375C23.381 1.4375 23.7466 1.58895 24.0162 1.85853C24.2858 2.12812 24.4373 2.49375 24.4373 2.875V7.1875C24.4373 7.56875 24.2858 7.93438 24.0162 8.20397C23.7466 8.47355 23.381 8.625 22.9998 8.625C22.6185 8.625 22.2529 8.47355 21.9833 8.20397C21.7137 7.93438 21.5623 7.56875 21.5623 7.1875ZM34.4998 23C34.4998 25.2745 33.8253 27.4979 32.5617 29.3891C31.298 31.2802 29.502 32.7542 27.4006 33.6246C25.2993 34.495 22.987 34.7228 20.7562 34.279C18.5254 33.8353 16.4763 32.74 14.868 31.1317C13.2597 29.5234 12.1645 27.4743 11.7207 25.2435C11.277 23.0128 11.5047 20.7005 12.3751 18.5991C13.2456 16.4978 14.7195 14.7017 16.6107 13.4381C18.5019 12.1745 20.7253 11.5 22.9998 11.5C26.0487 11.5033 28.9719 12.716 31.1278 14.872C33.2838 17.0279 34.4964 19.951 34.4998 23ZM31.6248 23C31.6248 21.2941 31.1189 19.6266 30.1712 18.2082C29.2235 16.7898 27.8764 15.6843 26.3004 15.0315C24.7244 14.3787 22.9902 14.2079 21.3171 14.5407C19.644 14.8735 18.1072 15.695 16.901 16.9012C15.6947 18.1074 14.8733 19.6443 14.5405 21.3173C14.2077 22.9904 14.3785 24.7246 15.0313 26.3006C15.6841 27.8767 16.7896 29.2237 18.208 30.1714C19.6263 31.1192 21.2939 31.625 22.9998 31.625C25.2865 31.6226 27.4789 30.7132 29.0959 29.0962C30.7129 27.4792 31.6224 25.2868 31.6248 23ZM10.4827 12.517C10.7525 12.7868 11.1183 12.9383 11.4998 12.9383C11.8812 12.9383 12.2471 12.7868 12.5168 12.517C12.7865 12.2473 12.9381 11.8815 12.9381 11.5C12.9381 11.1185 12.7865 10.7527 12.5168 10.483L9.64179 7.60797C9.37205 7.33824 9.00622 7.1867 8.62476 7.1867C8.2433 7.1867 7.87746 7.33824 7.60773 7.60797C7.33799 7.8777 7.18646 8.24354 7.18646 8.625C7.18646 9.00646 7.33799 9.3723 7.60773 9.64203L10.4827 12.517ZM10.4827 33.483L7.60773 36.358C7.33799 36.6277 7.18646 36.9935 7.18646 37.375C7.18646 37.7565 7.33799 38.1223 7.60773 38.392C7.87746 38.6618 8.2433 38.8133 8.62476 38.8133C9.00622 38.8133 9.37205 38.6618 9.64179 38.392L12.5168 35.517C12.6503 35.3835 12.7563 35.2249 12.8286 35.0504C12.9009 34.8759 12.9381 34.6889 12.9381 34.5C12.9381 34.3111 12.9009 34.1241 12.8286 33.9496C12.7563 33.7751 12.6503 33.6165 12.5168 33.483C12.3832 33.3494 12.2247 33.2435 12.0502 33.1712C11.8757 33.0989 11.6886 33.0617 11.4998 33.0617C11.3109 33.0617 11.1238 33.0989 10.9493 33.1712C10.7748 33.2435 10.6163 33.3494 10.4827 33.483ZM34.4998 12.9375C34.6886 12.9376 34.8756 12.9006 35.0501 12.8284C35.2246 12.7563 35.3832 12.6505 35.5168 12.517L38.3918 9.64203C38.6615 9.3723 38.8131 9.00646 38.8131 8.625C38.8131 8.24354 38.6615 7.8777 38.3918 7.60797C38.1221 7.33824 37.7562 7.1867 37.3748 7.1867C36.9933 7.1867 36.6275 7.33824 36.3577 7.60797L33.4827 10.483C33.2815 10.684 33.1444 10.9403 33.0888 11.2192C33.0333 11.4982 33.0617 11.7875 33.1706 12.0503C33.2795 12.3131 33.4639 12.5377 33.7005 12.6956C33.9371 12.8535 34.2153 12.9377 34.4998 12.9375ZM35.5168 33.483C35.2471 33.2132 34.8812 33.0617 34.4998 33.0617C34.1183 33.0617 33.7525 33.2132 33.4827 33.483C33.213 33.7527 33.0615 34.1185 33.0615 34.5C33.0615 34.8815 33.213 35.2473 33.4827 35.517L36.3577 38.392C36.4913 38.5256 36.6498 38.6315 36.8243 38.7038C36.9988 38.7761 37.1859 38.8133 37.3748 38.8133C37.5636 38.8133 37.7507 38.7761 37.9252 38.7038C38.0997 38.6315 38.2582 38.5256 38.3918 38.392C38.5253 38.2585 38.6313 38.0999 38.7036 37.9254C38.7759 37.7509 38.8131 37.5639 38.8131 37.375C38.8131 37.1861 38.7759 36.9991 38.7036 36.8246C38.6313 36.6501 38.5253 36.4915 38.3918 36.358L35.5168 33.483ZM8.62476 23C8.62476 22.6188 8.47331 22.2531 8.20372 21.9835C7.93414 21.714 7.56851 21.5625 7.18726 21.5625H2.87476C2.49351 21.5625 2.12787 21.714 1.85829 21.9835C1.58871 22.2531 1.43726 22.6188 1.43726 23C1.43726 23.3813 1.58871 23.7469 1.85829 24.0165C2.12787 24.2861 2.49351 24.4375 2.87476 24.4375H7.18726C7.56851 24.4375 7.93414 24.2861 8.20372 24.0165C8.47331 23.7469 8.62476 23.3813 8.62476 23ZM22.9998 37.375C22.6185 37.375 22.2529 37.5265 21.9833 37.796C21.7137 38.0656 21.5623 38.4313 21.5623 38.8125V43.125C21.5623 43.5063 21.7137 43.8719 21.9833 44.1415C22.2529 44.4111 22.6185 44.5625 22.9998 44.5625C23.381 44.5625 23.7466 44.4111 24.0162 44.1415C24.2858 43.8719 24.4373 43.5063 24.4373 43.125V38.8125C24.4373 38.4313 24.2858 38.0656 24.0162 37.796C23.7466 37.5265 23.381 37.375 22.9998 37.375ZM43.1248 21.5625H38.8123C38.431 21.5625 38.0654 21.714 37.7958 21.9835C37.5262 22.2531 37.3748 22.6188 37.3748 23C37.3748 23.3813 37.5262 23.7469 37.7958 24.0165C38.0654 24.2861 38.431 24.4375 38.8123 24.4375H43.1248C43.506 24.4375 43.8716 24.2861 44.1412 24.0165C44.4108 23.7469 44.5623 23.3813 44.5623 23C44.5623 22.6188 44.4108 22.2531 44.1412 21.9835C43.8716 21.714 43.506 21.5625 43.1248 21.5625Z" fill="#C6CEE4"/>
</svg>
