<svg width="23" height="25" viewBox="0 0 23 25" fill="none" xmlns="http://www.w3.org/2000/svg">
<path d="M21.75 7.75H0.75M15.9167 0.75V4.25M6.58333 0.75V4.25M11.25 19.4167V12.4167M7.75 15.9167H14.75M6.35 24.0833H16.15C18.1102 24.0833 19.0902 24.0833 19.839 23.7018C20.4976 23.3663 21.033 22.8309 21.3685 22.1723C21.75 21.4236 21.75 20.4436 21.75 18.4833V8.68333C21.75 6.72315 21.75 5.74305 21.3685 4.99437C21.033 4.3358 20.4976 3.80037 19.839 3.46481C19.0902 3.08333 18.1102 3.08333 16.15 3.08333H6.35C4.38981 3.08333 3.40972 3.08333 2.66103 3.46481C2.00246 3.80037 1.46703 4.3358 1.13148 4.99437C0.75 5.74305 0.75 6.72315 0.75 8.68333V18.4833C0.75 20.4436 0.75 21.4236 1.13148 22.1723C1.46703 22.8309 2.00246 23.3663 2.66103 23.7018C3.40972 24.0833 4.38981 24.0833 6.35 24.0833Z" stroke="#111827" stroke-width="1.5" stroke-linecap="round" stroke-linejoin="round"/>
</svg>
