<svg width="12" height="16" viewBox="0 0 12 16" fill="none" xmlns="http://www.w3.org/2000/svg">
<path d="M7.33366 7.33301H3.33366M4.66699 9.99967H3.33366M8.66699 4.66634H3.33366M11.3337 4.53301V11.4663C11.3337 12.5865 11.3337 13.1465 11.1157 13.5743C10.9239 13.9507 10.618 14.2566 10.2417 14.4483C9.81379 14.6663 9.25379 14.6663 8.13366 14.6663H3.86699C2.74689 14.6663 2.18683 14.6663 1.75901 14.4483C1.38269 14.2566 1.07673 13.9507 0.884979 13.5743C0.666992 13.1465 0.666992 12.5865 0.666992 11.4663V4.53301C0.666992 3.4129 0.666992 2.85285 0.884979 2.42503C1.07673 2.0487 1.38269 1.74274 1.75901 1.55099C2.18683 1.33301 2.74689 1.33301 3.86699 1.33301H8.13366C9.25379 1.33301 9.81379 1.33301 10.2417 1.55099C10.618 1.74274 10.9239 2.0487 11.1157 2.42503C11.3337 2.85285 11.3337 3.4129 11.3337 4.53301Z" stroke="#111827" stroke-width="1.3" stroke-linecap="round" stroke-linejoin="round"/>
</svg>
