<svg width="19" height="19" viewBox="0 0 19 19" fill="none" xmlns="http://www.w3.org/2000/svg">
<path d="M11.1 4.33333C11.9139 4.49214 12.6619 4.89022 13.2483 5.47662C13.8348 6.06301 14.2328 6.81105 14.3917 7.625M11.1 1C12.791 1.18787 14.368 1.94514 15.5718 3.14751C16.7758 4.34987 17.535 5.92584 17.725 7.61667M7.91409 10.8859C6.91281 9.88458 6.12215 8.75233 5.54216 7.54436C5.49227 7.44045 5.46732 7.38849 5.44816 7.32275C5.38006 7.08913 5.42897 6.80224 5.57065 6.60438C5.61052 6.54871 5.65815 6.50108 5.75341 6.40582C6.04474 6.11448 6.19042 5.96881 6.28565 5.82232C6.64482 5.26992 6.64482 4.55777 6.28565 4.00536C6.19042 3.85887 6.04474 3.71321 5.75341 3.42187L5.59102 3.25947C5.14815 2.81661 4.92671 2.59517 4.68889 2.47489C4.21592 2.23567 3.65737 2.23567 3.18441 2.47489C2.94659 2.59517 2.72515 2.81661 2.28228 3.25947L2.15092 3.39084C1.70957 3.83219 1.48889 4.05287 1.32035 4.3529C1.13333 4.68582 0.998866 5.20289 1.00001 5.58475C1.00102 5.92887 1.06778 6.16406 1.20129 6.63442C1.91877 9.16225 3.27249 11.5476 5.26247 13.5375C7.25246 15.5275 9.63776 16.8813 12.1656 17.5988C12.6359 17.7323 12.8712 17.799 13.2153 17.8C13.5971 17.8012 14.1142 17.6667 14.4471 17.4797C14.7472 17.3111 14.9678 17.0904 15.4092 16.6491L15.5405 16.5177C15.9834 16.0748 16.2048 15.8534 16.3251 15.6156C16.5643 15.1427 16.5643 14.5841 16.3251 14.1111C16.2048 13.8733 15.9834 13.6518 15.5405 13.209L15.3782 13.0466C15.0868 12.7552 14.9412 12.6096 14.7947 12.5143C14.2423 12.1552 13.5301 12.1552 12.9777 12.5143C12.8312 12.6096 12.6855 12.7552 12.3942 13.0466C12.2989 13.1418 12.2513 13.1895 12.1956 13.2293C11.9978 13.3711 11.7109 13.42 11.4773 13.3518C11.4115 13.3327 11.3596 13.3077 11.2557 13.2578C10.0477 12.6778 8.91542 11.8872 7.91409 10.8859Z" stroke="#625F6E" stroke-width="2" stroke-linecap="round" stroke-linejoin="round"/>
</svg>
