<svg width="22" height="22" viewBox="0 0 22 22" fill="none" xmlns="http://www.w3.org/2000/svg">
<path d="M10.75 13.75C7.43629 13.75 4.75 11.0637 4.75 7.75V2.19444C4.75 1.7806 4.75 1.57367 4.81031 1.40798C4.91141 1.13021 5.13021 0.91141 5.40798 0.81031C5.57367 0.75 5.7806 0.75 6.19444 0.75H15.3056C15.7194 0.75 15.9263 0.75 16.092 0.81031C16.3698 0.91141 16.5886 1.13021 16.6897 1.40798C16.75 1.57367 16.75 1.7806 16.75 2.19444V7.75C16.75 11.0637 14.0637 13.75 10.75 13.75ZM10.75 13.75V16.75M16.75 2.75H19.25C19.7159 2.75 19.9489 2.75 20.1327 2.82612C20.3777 2.92761 20.5724 3.12229 20.6739 3.36732C20.75 3.55109 20.75 3.78406 20.75 4.25V4.75C20.75 5.67997 20.75 6.14496 20.6478 6.52646C20.3704 7.56173 19.5617 8.37038 18.5265 8.64778C18.145 8.75 17.68 8.75 16.75 8.75M4.75 2.75H2.25C1.78406 2.75 1.55109 2.75 1.36732 2.82612C1.12229 2.92761 0.92761 3.12229 0.82612 3.36732C0.75 3.55109 0.75 3.78406 0.75 4.25V4.75C0.75 5.67997 0.75 6.14496 0.85222 6.52646C1.12962 7.56173 1.93827 8.37038 2.97354 8.64778C3.35504 8.75 3.82003 8.75 4.75 8.75M6.19444 20.75H15.3056C15.551 20.75 15.75 20.551 15.75 20.3056C15.75 18.3419 14.1581 16.75 12.1944 16.75H9.3056C7.34188 16.75 5.75 18.3419 5.75 20.3056C5.75 20.551 5.94898 20.75 6.19444 20.75Z" stroke="#111827" stroke-width="1.5" stroke-linecap="round" stroke-linejoin="round"/>
</svg>
