<svg width="12" height="13" viewBox="0 0 12 13" fill="none" xmlns="http://www.w3.org/2000/svg">
<path fill-rule="evenodd" clip-rule="evenodd" d="M4.66669 1C4.62248 1 4.58009 1.01756 4.54884 1.04882C4.51758 1.08007 4.50002 1.12246 4.50002 1.16667V2.66667H7.50002V1.16667C7.50002 1.12246 7.48246 1.08007 7.4512 1.04882C7.41995 1.01756 7.37756 1 7.33335 1H4.66669ZM1.87675 3.66667L2.49829 11.1251C2.49944 11.139 2.50002 11.1528 2.50002 11.1667C2.50002 11.3877 2.58782 11.5996 2.7441 11.7559C2.90038 11.9122 3.11234 12 3.33335 12H8.66669C8.8877 12 9.09966 11.9122 9.25594 11.7559C9.41222 11.5996 9.50002 11.3877 9.50002 11.1667C9.50002 11.1528 9.5006 11.139 9.50175 11.1251L10.1233 3.66667H1.87675ZM11.1268 3.66667L10.4999 11.1891C10.494 11.6672 10.3016 12.1245 9.96305 12.463C9.61923 12.8068 9.15292 13 8.66669 13H3.33335C2.84712 13 2.38081 12.8068 2.03699 12.463C1.69847 12.1245 1.506 11.6672 1.50016 11.1891L0.873287 3.66667H0.666687C0.390545 3.66667 0.166687 3.44281 0.166687 3.16667C0.166687 2.89052 0.390545 2.66667 0.666687 2.66667H3.50002V1.16667C3.50002 0.857247 3.62294 0.560501 3.84173 0.341709C4.06052 0.122916 4.35727 0 4.66669 0H7.33335C7.64277 0 7.93952 0.122916 8.15831 0.341709C8.3771 0.560501 8.50002 0.857247 8.50002 1.16667V2.66667H11.3334C11.6095 2.66667 11.8334 2.89052 11.8334 3.16667C11.8334 3.44281 11.6095 3.66667 11.3334 3.66667H11.1268ZM4.66669 5.33333C4.94283 5.33333 5.16669 5.55719 5.16669 5.83333V9.83333C5.16669 10.1095 4.94283 10.3333 4.66669 10.3333C4.39054 10.3333 4.16669 10.1095 4.16669 9.83333V5.83333C4.16669 5.55719 4.39054 5.33333 4.66669 5.33333ZM7.33335 5.33333C7.6095 5.33333 7.83335 5.55719 7.83335 5.83333V9.83333C7.83335 10.1095 7.6095 10.3333 7.33335 10.3333C7.05721 10.3333 6.83335 10.1095 6.83335 9.83333V5.83333C6.83335 5.55719 7.05721 5.33333 7.33335 5.33333Z" fill="white"/>
</svg>
