<svg width="16" height="12" viewBox="0 0 16 12" fill="none" xmlns="http://www.w3.org/2000/svg">
<path fill-rule="evenodd" clip-rule="evenodd" d="M0.5 1.00033C0.5 0.540088 0.873096 0.166992 1.33333 0.166992H14.6667C15.1269 0.166992 15.5 0.540088 15.5 1.00033C15.5 1.46056 15.1269 1.83366 14.6667 1.83366H1.33333C0.873096 1.83366 0.5 1.46056 0.5 1.00033Z" fill="#111827"/>
<path fill-rule="evenodd" clip-rule="evenodd" d="M0.5 6.00033C0.5 5.54009 0.873096 5.16699 1.33333 5.16699H8.83333C9.29357 5.16699 9.66667 5.54009 9.66667 6.00033C9.66667 6.46056 9.29357 6.83366 8.83333 6.83366H1.33333C0.873096 6.83366 0.5 6.46056 0.5 6.00033Z" fill="#111827"/>
<path fill-rule="evenodd" clip-rule="evenodd" d="M0.5 11.0003C0.5 10.5401 0.873096 10.167 1.33333 10.167H14.6667C15.1269 10.167 15.5 10.5401 15.5 11.0003C15.5 11.4606 15.1269 11.8337 14.6667 11.8337H1.33333C0.873096 11.8337 0.5 11.4606 0.5 11.0003Z" fill="#111827"/>
</svg>
