<svg width="12" height="13" viewBox="0 0 12 13" fill="none" xmlns="http://www.w3.org/2000/svg">
<path fill-rule="evenodd" clip-rule="evenodd" d="M8.18041 0.517742C8.95824 0.418278 9.74517 0.736355 10.5448 1.48872L10.5457 1.48959C11.348 2.24832 11.7132 3.01798 11.6584 3.8019C11.6055 4.5594 11.1664 5.20054 10.6656 5.72958M10.6656 5.72958L5.19499 11.52C5.04077 11.688 4.8331 11.8302 4.63624 11.9355C4.43684 12.0421 4.2062 12.1333 3.98968 12.1718L3.98635 12.1724L1.84045 12.5389C1.32007 12.6287 0.82107 12.4986 0.465601 12.1615C0.110632 11.8249 -0.0462255 11.334 0.011884 10.811L0.0120546 10.8095L0.25979 8.64011C0.288563 8.42431 0.368706 8.19079 0.463179 7.98821C0.557311 7.78636 0.685746 7.57233 0.837735 7.41053L0.838711 7.4095L6.31204 1.61616C6.81307 1.08691 7.42876 0.613857 8.18041 0.517742M7.0386 2.30327L1.56658 8.09521C1.51194 8.15352 1.43687 8.26635 1.36947 8.41086C1.3033 8.55276 1.26355 8.68404 1.25164 8.76842L1.00577 10.9214L1.00569 10.9221C0.977353 11.1787 1.05711 11.3443 1.15372 11.4359C1.24992 11.5271 1.41758 11.5971 1.67054 11.5535L1.67131 11.5533L3.81605 11.187C3.89956 11.1719 4.02824 11.1266 4.16475 11.0536C4.30313 10.9796 4.40724 10.8998 4.45935 10.8427L4.46532 10.8361L9.93871 5.04283C10.3845 4.57194 10.6322 4.14283 10.6609 3.73217C10.6877 3.34786 10.5297 2.85103 9.85915 2.21667C9.19229 1.58934 8.68934 1.46081 8.30725 1.50967C7.89897 1.56187 7.48414 1.83269 7.0386 2.30327Z" fill="white"/>
<path fill-rule="evenodd" clip-rule="evenodd" d="M5.68519 2.43216C5.95804 2.38965 6.21369 2.57638 6.2562 2.84923C6.50762 4.46298 7.8173 5.69805 9.4456 5.86205C9.72035 5.88973 9.92065 6.13489 9.89297 6.40964C9.8653 6.68439 9.62014 6.88469 9.34539 6.85702C7.26702 6.64769 5.59004 5.06943 5.26812 3.00317C5.22561 2.73032 5.41234 2.47467 5.68519 2.43216Z" fill="white"/>
</svg>
