<svg width="16" height="13" viewBox="0 0 16 13" fill="none" xmlns="http://www.w3.org/2000/svg">
<path fill-rule="evenodd" clip-rule="evenodd" d="M7.9999 4.6138C6.95604 4.6138 6.11323 5.45661 6.11323 6.50047C6.11323 7.54433 6.95604 8.38714 7.9999 8.38714C9.04375 8.38714 9.88656 7.54433 9.88656 6.50047C9.88656 5.45661 9.04375 4.6138 7.9999 4.6138ZM5.11323 6.50047C5.11323 4.90433 6.40375 3.6138 7.9999 3.6138C9.59604 3.6138 10.8866 4.90433 10.8866 6.50047C10.8866 8.09661 9.59604 9.38714 7.9999 9.38714C6.40375 9.38714 5.11323 8.09661 5.11323 6.50047Z" fill="white"/>
<path fill-rule="evenodd" clip-rule="evenodd" d="M1.50489 4.49845C3.09884 1.99287 5.43458 0.480469 7.9999 0.480469C10.5653 0.480469 12.9012 1.993 14.4951 4.49877C14.8584 5.06833 15.0232 5.79791 15.0232 6.49714C15.0232 7.19636 14.8584 7.92594 14.4951 8.4955C12.9012 11.0013 10.5653 12.5138 7.9999 12.5138C5.43446 12.5138 3.09863 11.0013 1.50468 8.4955C1.14137 7.92594 0.976562 7.19636 0.976562 6.49714C0.976562 5.79777 1.14143 5.06805 1.50489 4.49845ZM7.9999 1.48047C5.85866 1.48047 3.80783 2.74127 2.34844 5.0355L2.34802 5.03615C2.11163 5.4065 1.97656 5.93663 1.97656 6.49714C1.97656 7.05764 2.11163 7.58777 2.34802 7.95812L2.34844 7.95877C3.80783 10.253 5.85866 11.5138 7.9999 11.5138C10.1411 11.5138 12.192 10.253 13.6514 7.95877L13.6518 7.95812C13.8882 7.58777 14.0232 7.05764 14.0232 6.49714C14.0232 5.93663 13.8882 5.4065 13.6518 5.03615L13.6514 5.0355C12.192 2.74127 10.1411 1.48047 7.9999 1.48047Z" fill="white"/>
</svg>
