<svg width="16" height="14" viewBox="0 0 16 14" fill="none" xmlns="http://www.w3.org/2000/svg">
<path fill-rule="evenodd" clip-rule="evenodd" d="M0.733029 10.8274C0.733029 10.4822 1.01285 10.2024 1.35803 10.2024H6.60863C6.9538 10.2024 7.23363 10.4822 7.23363 10.8274C7.23363 11.1726 6.9538 11.4524 6.60863 11.4524H1.35803C1.01285 11.4524 0.733029 11.1726 0.733029 10.8274Z" fill="#111827"/>
<path fill-rule="evenodd" clip-rule="evenodd" d="M8.32556 2.75031C8.32556 2.40514 8.60539 2.12531 8.95056 2.12531H14.2012C14.5463 2.12531 14.8262 2.40514 14.8262 2.75031C14.8262 3.09549 14.5463 3.37531 14.2012 3.37531H8.95056C8.60539 3.37531 8.32556 3.09549 8.32556 2.75031Z" fill="#111827"/>
<path fill-rule="evenodd" clip-rule="evenodd" d="M0.708496 2.70521C0.708496 1.2761 1.87435 0.125 3.30278 0.125C4.73121 0.125 5.89707 1.2761 5.89707 2.70521C5.89707 4.13432 4.73121 5.28542 3.30278 5.28542C1.87435 5.28542 0.708496 4.13432 0.708496 2.70521ZM3.30278 1.375C2.55624 1.375 1.9585 1.9749 1.9585 2.70521C1.9585 3.43553 2.55624 4.03542 3.30278 4.03542C4.04932 4.03542 4.64707 3.43553 4.64707 2.70521C4.64707 1.9749 4.04932 1.375 3.30278 1.375Z" fill="#111827"/>
<path fill-rule="evenodd" clip-rule="evenodd" d="M10.1033 10.7948C10.1033 9.36554 11.2693 8.21458 12.6982 8.21458C14.1269 8.21458 15.2918 9.36596 15.2918 10.7948C15.2918 12.2236 14.1269 13.375 12.6982 13.375C11.2693 13.375 10.1033 12.224 10.1033 10.7948ZM12.6982 9.46458C11.9509 9.46458 11.3533 10.0646 11.3533 10.7948C11.3533 11.525 11.9509 12.125 12.6982 12.125C13.4445 12.125 14.0418 11.5254 14.0418 10.7948C14.0418 10.0642 13.4445 9.46458 12.6982 9.46458Z" fill="#111827"/>
</svg>
