<svg width="20" height="18" viewBox="0 0 20 18" fill="none" xmlns="http://www.w3.org/2000/svg">
<path d="M1.6665 2.93416C1.6665 2.46746 1.6665 2.2341 1.75733 2.05584C1.83723 1.89904 1.96471 1.77156 2.12151 1.69166C2.29977 1.60083 2.53313 1.60083 2.99984 1.60083H16.9998C17.4666 1.60083 17.6999 1.60083 17.8782 1.69166C18.035 1.77156 18.1624 1.89904 18.2423 2.05584C18.3332 2.2341 18.3332 2.46746 18.3332 2.93416V3.49199C18.3332 3.71599 18.3332 3.82799 18.3058 3.93213C18.2815 4.02442 18.2416 4.11186 18.1878 4.19063C18.127 4.27952 18.0423 4.35287 17.8731 4.49958L12.5433 9.11875C12.374 9.26541 12.2893 9.33883 12.2286 9.42766C12.1748 9.5065 12.1348 9.59391 12.1105 9.68616C12.0832 9.79033 12.0832 9.90233 12.0832 10.1263V14.4828C12.0832 14.6457 12.0832 14.7272 12.0569 14.7977C12.0337 14.86 11.9959 14.9157 11.9468 14.9604C11.8911 15.011 11.8154 15.0412 11.6641 15.1018L8.83075 16.2352C8.5245 16.3577 8.37134 16.4189 8.2484 16.3933C8.1409 16.371 8.04655 16.3072 7.98588 16.2156C7.9165 16.111 7.9165 15.946 7.9165 15.6162V10.1263C7.9165 9.90233 7.9165 9.79033 7.88913 9.68616C7.86488 9.59391 7.82495 9.5065 7.7711 9.42766C7.71032 9.33883 7.62569 9.26541 7.45641 9.11875L2.1266 4.49958C1.95732 4.35287 1.87269 4.27952 1.81191 4.19063C1.75805 4.11186 1.71813 4.02442 1.69388 3.93213C1.6665 3.82799 1.6665 3.71599 1.6665 3.49199V2.93416Z" stroke="#344054" stroke-width="2" stroke-linecap="round" stroke-linejoin="round"/>
</svg>
