<svg width="14" height="13" viewBox="0 0 14 13" fill="none" xmlns="http://www.w3.org/2000/svg">
<path d="M12.6109 6.76354C12.7737 6.624 12.855 6.55427 12.8849 6.47127C12.911 6.39847 12.911 6.31874 12.8849 6.24594C12.855 6.16294 12.7737 6.09314 12.6109 5.95367L6.96373 1.11324C6.6836 0.873109 6.54353 0.753042 6.42493 0.750102C6.32187 0.747549 6.2234 0.792829 6.15827 0.872749C6.08333 0.964702 6.08333 1.1492 6.08333 1.51818V4.38168C4.66021 4.63065 3.35773 5.35174 2.38981 6.43454C1.33455 7.61494 0.75082 9.14254 0.75 10.7259V11.1339C1.44956 10.2912 2.32301 9.6096 3.31051 9.13587C4.18113 8.7182 5.12228 8.4708 6.08333 8.4056V11.199C6.08333 11.568 6.08333 11.7525 6.15827 11.8445C6.2234 11.9243 6.32187 11.9697 6.42493 11.9671C6.54353 11.9641 6.6836 11.8441 6.96373 11.6039L12.6109 6.76354Z" stroke="black" stroke-width="1.5" stroke-linecap="round" stroke-linejoin="round"/>
</svg>
