<svg width="15" height="15" viewBox="0 0 15 15" fill="none" xmlns="http://www.w3.org/2000/svg">
<path d="M10.3637 0.650391L8.03033 2.98372M8.03033 2.98372L10.3637 5.31706M8.03033 2.98372H13.3637M6.18166 7.89246C5.38064 7.09139 4.74811 6.18559 4.28412 5.21921C4.2442 5.13608 4.22425 5.09452 4.20892 5.04192C4.15444 4.85502 4.19357 4.62552 4.30691 4.46723C4.3388 4.42269 4.37691 4.38458 4.45312 4.30838C4.68618 4.0753 4.80272 3.95877 4.87891 3.84158C5.16624 3.39966 5.16624 2.82994 4.87891 2.38801C4.80272 2.27082 4.68618 2.15429 4.45312 1.92122L4.3232 1.7913C3.96891 1.43701 3.79176 1.25986 3.6015 1.16364C3.22313 0.972257 2.77629 0.972257 2.39792 1.16364C2.20766 1.25986 2.03051 1.43701 1.67622 1.7913L1.57113 1.8964C1.21804 2.24948 1.0415 2.42602 0.90667 2.66604C0.757056 2.93238 0.649483 3.34604 0.650396 3.65152C0.65121 3.92682 0.704616 4.11497 0.811423 4.49126C1.3854 6.51352 2.46838 8.42179 4.06037 10.0137C5.65236 11.6057 7.5606 12.6887 9.58286 13.2627C9.95913 13.3695 10.1473 13.4229 10.4226 13.4237C10.7281 13.4247 11.1417 13.3171 11.4081 13.1675C11.6481 13.0326 11.8247 12.8561 12.1777 12.503L12.2828 12.3979C12.6371 12.0436 12.8143 11.8665 12.9105 11.6762C13.1019 11.2979 13.1019 10.851 12.9105 10.4726C12.8143 10.2824 12.6371 10.1052 12.2828 9.75092L12.1529 9.62099C11.9199 9.38792 11.8033 9.27139 11.6861 9.19519C11.2442 8.90786 10.6745 8.90786 10.2325 9.19519C10.1153 9.27139 9.9988 9.38792 9.76573 9.62099C9.68953 9.69719 9.65146 9.73532 9.60686 9.76719C9.4486 9.88059 9.21913 9.91972 9.0322 9.86519C8.9796 9.84986 8.93806 9.82992 8.85493 9.78999C7.88853 9.32599 6.98273 8.69346 6.18166 7.89246Z" stroke="black" stroke-width="1.3" stroke-linecap="round" stroke-linejoin="round"/>
</svg>
