<svg width="17" height="24" viewBox="0 0 17 24" fill="none" xmlns="http://www.w3.org/2000/svg">
<path d="M10.8847 10.3078C10.3526 10.5808 9.7513 10.6896 9.15723 10.6203C8.56317 10.551 8.00308 10.3068 7.54808 9.91859C7.09308 9.5304 6.76368 9.01577 6.60169 8.44003C6.43971 7.86429 6.45244 7.2534 6.63828 6.68491C6.82412 6.11642 7.17467 5.61596 7.64546 5.24707C8.11624 4.87818 8.68601 4.65748 9.28245 4.613C9.87889 4.56852 10.4751 4.70227 10.9954 4.99725C11.5157 5.29223 11.9366 5.73515 12.2047 6.26979C12.3838 6.62194 12.4918 7.00595 12.5224 7.39986C12.553 7.79377 12.5056 8.18984 12.383 8.56543C12.2604 8.94102 12.065 9.28876 11.8079 9.58876C11.5508 9.88876 11.2371 10.1351 10.8847 10.3138V10.3078ZM7.66269 0.571792C10.1327 -0.329208 12.9567 -0.280208 15.0707 1.55379C15.5171 1.92132 15.8681 2.39134 16.0937 2.92379C16.3067 3.61379 15.3447 2.85379 15.2137 2.75579C14.547 2.30002 13.8244 1.93199 13.0637 1.66079C8.89969 0.385792 4.95969 2.70679 2.52569 6.31579C1.53382 7.9075 0.776691 9.63394 0.277694 11.4418C0.231821 11.6633 0.160341 11.8788 0.0646939 12.0838C-0.0423061 12.2878 0.0156941 11.5368 0.0156941 11.5118C0.104995 10.7561 0.248701 10.0078 0.445694 9.27279C1.57369 5.33979 4.07269 2.06479 7.66269 0.564792V0.571792ZM7.69969 21.5648V12.8018C7.94869 12.8268 8.18569 12.8388 8.43569 12.8388C9.57061 12.8423 10.6845 12.5326 11.6547 11.9438V21.5638C11.6547 22.3858 11.5047 22.9938 11.1347 23.3898C10.9514 23.5907 10.7266 23.7494 10.4759 23.8547C10.2251 23.9601 9.95448 24.0096 9.68269 23.9998C9.4147 24.0094 9.1479 23.9597 8.90125 23.8545C8.65461 23.7492 8.4342 23.5909 8.25569 23.3908C7.88769 22.9868 7.69569 22.3778 7.69569 21.5658L7.69969 21.5648Z" fill="black"/>
</svg>
