<svg width="17" height="17" viewBox="0 0 17 17" fill="none" xmlns="http://www.w3.org/2000/svg">
<path d="M3 9.9648C1.61148 10.5773 0.75 11.4309 0.75 12.375C0.75 14.239 4.10786 15.75 8.25 15.75C12.3921 15.75 15.75 14.239 15.75 12.375C15.75 11.4309 14.8886 10.5773 13.5 9.9648M12.75 5.25C12.75 8.29778 9.375 9.75 8.25 12C7.125 9.75 3.75 8.29778 3.75 5.25C3.75 2.76472 5.76472 0.75 8.25 0.75C10.7353 0.75 12.75 2.76472 12.75 5.25ZM9 5.25C9 5.66421 8.66422 6 8.25 6C7.83578 6 7.5 5.66421 7.5 5.25C7.5 4.83579 7.83578 4.5 8.25 4.5C8.66422 4.5 9 4.83579 9 5.25Z" stroke="#625F6E" stroke-width="1.5" stroke-linecap="round" stroke-linejoin="round"/>
</svg>
