<svg width="28" height="25" viewBox="0 0 28 25" fill="none" xmlns="http://www.w3.org/2000/svg">
<ellipse cx="13.9992" cy="12.5" rx="13.9718" ry="12" fill="#FAFAFA"/>
<path fill-rule="evenodd" clip-rule="evenodd" d="M13.3827 8.02827C13.6859 8.28862 13.6859 8.71073 13.3827 8.97108L9.27433 12.4997L13.3827 16.0283C13.6859 16.2886 13.6859 16.7107 13.3827 16.9711C13.0796 17.2314 12.5881 17.2314 12.285 16.9711L7.62774 12.9711C7.32461 12.7107 7.32461 12.2886 7.62774 12.0283L12.285 8.02827C12.5881 7.76792 13.0796 7.76792 13.3827 8.02827Z" fill="#657081"/>
<path fill-rule="evenodd" clip-rule="evenodd" d="M20.3691 8.02827C20.6722 8.28862 20.6722 8.71073 20.3691 8.97108L16.2607 12.4997L20.3691 16.0283C20.6722 16.2886 20.6722 16.7107 20.3691 16.9711C20.0659 17.2314 19.5745 17.2314 19.2713 16.9711L14.6141 12.9711C14.3109 12.7107 14.3109 12.2886 14.6141 12.0283L19.2713 8.02827C19.5745 7.76792 20.0659 7.76792 20.3691 8.02827Z" fill="#657081"/>
</svg>
