<svg width="20" height="20" viewBox="0 0 20 20" fill="none" xmlns="http://www.w3.org/2000/svg">
<path d="M13.1741 16.8161C12.9574 16.8161 12.7324 16.8078 12.4907 16.7828C12.0574 16.7494 11.5658 16.6661 11.0574 16.5411L9.65742 16.2078C5.81575 15.2994 4.55742 13.2661 5.45742 9.43278L6.27408 5.94111C6.45742 5.14944 6.67408 4.50778 6.94075 3.97444C8.37408 1.01611 11.1157 1.28278 13.0657 1.74111L14.4574 2.06611C16.4074 2.52444 17.6407 3.24944 18.3324 4.35778C19.0157 5.46611 19.1241 6.89111 18.6657 8.84111L17.8491 12.3244C17.1324 15.3744 15.6407 16.8161 13.1741 16.8161ZM10.9324 2.70778C9.54075 2.70778 8.65742 3.28278 8.06575 4.51611C7.84908 4.96611 7.65742 5.52444 7.49075 6.22444L6.67408 9.71611C5.93242 12.8661 6.79075 14.2411 9.94075 14.9911L11.3407 15.3244C11.7907 15.4328 12.2157 15.4994 12.5991 15.5328C14.8657 15.7578 15.9908 14.7661 16.6241 12.0411L17.4408 8.55778C17.8158 6.94944 17.7657 5.82444 17.2657 5.01611C16.7657 4.20778 15.7824 3.65778 14.1657 3.28278L12.7741 2.95778C12.0824 2.79111 11.4657 2.70778 10.9324 2.70778Z" fill="#625F6E"/>
<path d="M6.94155 18.5414C4.79988 18.5414 3.43321 17.2581 2.55821 14.5497L1.49155 11.2581C0.308214 7.5914 1.36655 5.52474 5.01655 4.3414L6.33321 3.9164C6.76655 3.78307 7.09155 3.6914 7.38321 3.6414C7.62488 3.5914 7.85821 3.68307 7.99988 3.87474C8.14155 4.0664 8.16655 4.3164 8.06655 4.53307C7.84988 4.97474 7.65821 5.53307 7.49988 6.23307L6.68321 9.72474C5.94155 12.8747 6.79988 14.2497 9.94988 14.9997L11.3499 15.3331C11.7999 15.4414 12.2249 15.5081 12.6082 15.5414C12.8749 15.5664 13.0915 15.7497 13.1665 16.0081C13.2332 16.2664 13.1332 16.5331 12.9165 16.6831C12.3665 17.0581 11.6749 17.3747 10.7999 17.6581L9.48321 18.0914C8.52488 18.3914 7.69155 18.5414 6.94155 18.5414ZM6.48321 5.18307L5.40821 5.53307C2.43321 6.4914 1.72488 7.8914 2.68321 10.8747L3.74988 14.1664C4.71655 17.1414 6.11655 17.8581 9.09155 16.8997L10.4082 16.4664C10.4582 16.4497 10.4999 16.4331 10.5499 16.4164L9.66655 16.2081C5.82488 15.2997 4.56655 13.2664 5.46655 9.43307L6.28321 5.9414C6.34155 5.67474 6.40821 5.4164 6.48321 5.18307Z" fill="#625F6E"/>
<path d="M14.5751 8.75815C14.5251 8.75815 14.4751 8.74981 14.4168 8.74148L10.3751 7.71648C10.0418 7.63315 9.84181 7.29148 9.92514 6.95815C10.0085 6.62481 10.3501 6.42481 10.6835 6.50815L14.7251 7.53315C15.0585 7.61648 15.2585 7.95815 15.1751 8.29148C15.1085 8.56648 14.8501 8.75815 14.5751 8.75815Z" fill="#625F6E"/>
<path d="M12.1323 11.5754C12.0823 11.5754 12.0323 11.5671 11.974 11.5587L9.54897 10.9421C9.21563 10.8587 9.01563 10.5171 9.09897 10.1837C9.1823 9.8504 9.52397 9.6504 9.8573 9.73373L12.2823 10.3504C12.6156 10.4337 12.8156 10.7754 12.7323 11.1087C12.6656 11.3921 12.4156 11.5754 12.1323 11.5754Z" fill="#625F6E"/>
</svg>
