<svg width="22" height="22" viewBox="0 0 22 22" fill="none" xmlns="http://www.w3.org/2000/svg">
<path d="M2.75002 20.5674C3.3526 20.75 4.16649 20.75 5.55 20.75H15.95C17.3335 20.75 18.1474 20.75 18.75 20.5674M2.75002 20.5674C2.62082 20.5283 2.50133 20.4808 2.38803 20.423C1.82354 20.1354 1.3646 19.6765 1.07698 19.112C0.75 18.4702 0.75 17.6302 0.75 15.95V5.55C0.75 3.86984 0.75 3.02976 1.07698 2.38803C1.3646 1.82354 1.82354 1.3646 2.38803 1.07698C3.02976 0.75 3.86984 0.75 5.55 0.75H15.95C17.6302 0.75 18.4702 0.75 19.112 1.07698C19.6765 1.3646 20.1354 1.82354 20.423 2.38803C20.75 3.02976 20.75 3.86984 20.75 5.55V15.95C20.75 17.6302 20.75 18.4702 20.423 19.112C20.1354 19.6765 19.6765 20.1354 19.112 20.423C18.9987 20.4808 18.8792 20.5283 18.75 20.5674M2.75002 20.5674C2.75035 19.7581 2.75521 19.3299 2.82686 18.9696C3.14249 17.3829 4.38288 16.1425 5.96964 15.8269C6.35603 15.75 6.82069 15.75 7.75 15.75H13.75C14.6793 15.75 15.144 15.75 15.5304 15.8269C17.1171 16.1425 18.3575 17.3829 18.6731 18.9696C18.7448 19.3299 18.7496 19.7581 18.75 20.5674M14.75 8.25C14.75 10.4591 12.9591 12.25 10.75 12.25C8.54086 12.25 6.75 10.4591 6.75 8.25C6.75 6.04086 8.54086 4.25 10.75 4.25C12.9591 4.25 14.75 6.04086 14.75 8.25Z" stroke="#111827" stroke-width="1.5" stroke-linecap="round" stroke-linejoin="round"/>
</svg>
