<svg width="14" height="14" viewBox="0 0 14 14" fill="none" xmlns="http://www.w3.org/2000/svg">
<path d="M4.28412 4.8495C4.74811 5.81593 5.38066 6.72167 6.18166 7.52273C6.98273 8.3238 7.88853 8.95633 8.85493 9.42033C8.93806 9.4602 8.9796 9.4802 9.0322 9.49553C9.21913 9.55 9.4486 9.51086 9.60686 9.39753C9.65146 9.3656 9.68953 9.32753 9.76573 9.25133C9.9988 9.0182 10.1153 8.90167 10.2325 8.82553C10.6745 8.5382 11.2442 8.5382 11.6861 8.82553C11.8033 8.90167 11.9199 9.0182 12.1529 9.25133L12.2828 9.3812C12.6371 9.73553 12.8143 9.91266 12.9105 10.1029C13.1019 10.4813 13.1019 10.9281 12.9105 11.3065C12.8143 11.4967 12.6371 11.6739 12.2828 12.0282L12.1777 12.1333C11.8247 12.4864 11.6481 12.6629 11.4081 12.7977C11.1417 12.9473 10.7281 13.0549 10.4226 13.054C10.1473 13.0532 9.95913 12.9998 9.58286 12.893C7.5606 12.319 5.65233 11.2361 4.06037 9.64407C2.46838 8.05207 1.3854 6.1438 0.811423 4.12156C0.704617 3.74526 0.65121 3.55711 0.650396 3.28181C0.649483 2.97633 0.757057 2.56267 0.90667 2.29633C1.0415 2.05631 1.21804 1.87977 1.57113 1.52669L1.67622 1.4216C2.03051 1.06731 2.20766 0.890152 2.39792 0.793926C2.77629 0.602546 3.22313 0.602546 3.6015 0.793926C3.79176 0.890152 3.96891 1.06731 4.3232 1.4216L4.45312 1.55151C4.68618 1.78458 4.80272 1.90112 4.87891 2.0183C5.16624 2.46023 5.16624 3.02995 4.87891 3.47188C4.80272 3.58906 4.68618 3.7056 4.45312 3.93867C4.37691 4.01488 4.3388 4.05298 4.30691 4.09752C4.19357 4.25581 4.15444 4.48531 4.20892 4.67222C4.22425 4.72481 4.2442 4.76637 4.28412 4.8495Z" stroke="black" stroke-width="1.3" stroke-linecap="round" stroke-linejoin="round"/>
</svg>
