<svg width="20" height="20" viewBox="0 0 20 20" fill="none" xmlns="http://www.w3.org/2000/svg">
<g clip-path="url(#clip0_1153_12712)">
<path d="M18.3327 10.0003H14.9993M4.99935 10.0003H1.66602M9.99935 5.00033V1.66699M9.99935 18.3337V15.0003M16.666 10.0003C16.666 13.6822 13.6813 16.667 9.99935 16.667C6.31745 16.667 3.33268 13.6822 3.33268 10.0003C3.33268 6.31843 6.31745 3.33366 9.99935 3.33366C13.6813 3.33366 16.666 6.31843 16.666 10.0003ZM12.4993 10.0003C12.4993 11.3811 11.3801 12.5003 9.99935 12.5003C8.6186 12.5003 7.49935 11.3811 7.49935 10.0003C7.49935 8.61958 8.6186 7.50033 9.99935 7.50033C11.3801 7.50033 12.4993 8.61958 12.4993 10.0003Z" stroke="#020204" stroke-width="1.5" stroke-linecap="round" stroke-linejoin="round"/>
</g>
<defs>
<clipPath id="clip0_1153_12712">
<rect width="20" height="20" fill="white"/>
</clipPath>
</defs>
</svg>
