<svg width="14" height="14" viewBox="0 0 14 14" fill="none" xmlns="http://www.w3.org/2000/svg">
<path d="M2.34754 7.52275C1.66026 6.45548 1.14822 5.30815 0.811423 4.12155C0.704617 3.74526 0.651216 3.55711 0.650396 3.28181C0.649483 2.97633 0.757057 2.56267 0.906677 2.29633C1.0415 2.05631 1.21804 1.87977 1.57113 1.52669L1.67622 1.4216C2.03051 1.0673 2.20766 0.890152 2.39792 0.793926C2.77629 0.602546 3.22313 0.602546 3.6015 0.793926C3.79176 0.890152 3.96891 1.0673 4.3232 1.4216L4.45312 1.55151C4.68618 1.78458 4.80272 1.90112 4.87891 2.0183C5.16624 2.46023 5.16624 3.02995 4.87891 3.47188C4.80272 3.58906 4.68618 3.7056 4.45312 3.93867C4.37691 4.01487 4.3388 4.05298 4.30691 4.09752C4.19357 4.25581 4.15444 4.48531 4.20892 4.67222C4.22425 4.72481 4.2442 4.76638 4.28412 4.84951C4.36467 5.01729 4.4503 5.18323 4.54102 5.34713M6.15173 7.49261L6.18166 7.52275C6.98273 8.32375 7.88853 8.95628 8.85493 9.42028C8.93806 9.46021 8.9796 9.48015 9.0322 9.49548C9.21913 9.55001 9.4486 9.51088 9.60686 9.39748C9.65146 9.36561 9.68953 9.32748 9.76573 9.25128C9.9988 9.01821 10.1153 8.90168 10.2325 8.82548C10.6745 8.53815 11.2442 8.53815 11.6861 8.82548C11.8033 8.90168 11.9199 9.01821 12.1529 9.25128L12.2828 9.38121C12.6371 9.73548 12.8143 9.91268 12.9105 10.1029C13.1019 10.4813 13.1019 10.9281 12.9105 11.3065C12.8143 11.4967 12.6371 11.6739 12.2828 12.0282L12.1777 12.1333C11.8247 12.4863 11.6481 12.6629 11.4081 12.7977C11.1417 12.9473 10.7281 13.0549 10.4226 13.054C10.1473 13.0532 9.95913 12.9998 9.58286 12.893C7.5606 12.319 5.65233 11.236 4.06037 9.64401L4.03044 9.61401M12.697 0.947346L0.697003 12.9473" stroke="black" stroke-width="1.3" stroke-linecap="round" stroke-linejoin="round"/>
</svg>
