<svg width="32" height="39" viewBox="0 0 32 39" fill="none" xmlns="http://www.w3.org/2000/svg">
<path fill-rule="evenodd" clip-rule="evenodd" d="M25.3991 1.61126C24.4693 4.16369 23.4104 5.1976 20.7745 6.12676C20.2664 6.30585 19.8507 6.50059 19.8507 6.55954C19.8507 6.67555 19.8788 6.68836 21.2405 7.19316C22.3456 7.60282 22.9804 7.99023 23.6997 8.69388C24.5769 9.55214 24.9191 10.1514 25.5621 11.9555L25.801 12.6259L25.929 12.6C26.0058 12.5845 26.1885 12.2054 26.385 11.6537C26.5653 11.1474 26.8597 10.4513 27.0391 10.1068L27.3653 9.48047L28.0983 8.74682L28.8312 8.01326L29.5187 7.66298C29.8968 7.4703 30.5875 7.18173 31.0536 7.02154C31.8056 6.76321 32.0765 6.59563 31.9487 6.46776C31.9264 6.4455 31.4375 6.25627 30.8621 6.04709C29.6611 5.61062 29.1063 5.3131 28.4565 4.75709C27.4709 3.91395 27.028 3.22577 26.422 1.5957C26.1979 0.993023 25.9672 0.5 25.9093 0.5C25.8513 0.5 25.6217 1.00007 25.3991 1.61126ZM11.6479 8.08398C11.5841 8.23755 11.2728 9.07871 10.9562 9.95312C10.6395 10.8275 10.23 11.8589 10.0461 12.2451C8.97907 14.4858 6.99306 16.5187 4.74072 17.6756C4.25277 17.9262 3.01527 18.4345 1.99081 18.805C0.966346 19.1755 0.0896973 19.5397 0.0426035 19.6143C-0.0142012 19.7044 -0.0142012 19.7956 0.0426035 19.8857C0.0896973 19.9603 0.967034 20.3248 1.99227 20.6955C4.49468 21.6006 5.32303 22.0206 6.66942 23.0668C8.02585 24.1207 9.31509 25.7197 10.0461 27.2549C10.23 27.6411 10.6395 28.6725 10.9562 29.5469C11.2728 30.4213 11.5841 31.2624 11.6479 31.416L11.7638 31.6953H11.9738C12.094 31.6953 12.2092 31.6309 12.2431 31.5449C12.2756 31.4622 12.5905 30.603 12.9428 29.6355C13.6967 27.5652 13.9926 26.926 14.6766 25.8898C15.5667 24.5417 16.7466 23.3609 18.1169 22.447C19.0803 21.8044 19.7306 21.5075 21.951 20.6967C23.6139 20.0895 23.973 19.9213 23.973 19.75C23.973 19.5792 23.619 19.4122 21.994 18.8169C19.6876 17.972 19.186 17.7427 18.1483 17.0592C16.72 16.1184 15.6002 15.0056 14.6775 13.6102C13.9931 12.5752 13.6974 11.9366 12.9428 9.86452C12.5905 8.89704 12.2756 8.03784 12.2431 7.95508C12.2092 7.86905 12.094 7.80469 11.9738 7.80469H11.7638L11.6479 8.08398ZM25.5605 27.5488C24.9194 29.3478 24.5763 29.9485 23.6997 30.8061C22.9804 31.5098 22.3456 31.8972 21.2405 32.3068C19.881 32.8108 19.8507 32.8246 19.8507 32.9375C19.8507 32.9948 20.3459 33.2229 20.9512 33.4444C22.3521 33.957 22.9985 34.3374 23.7559 35.0948C24.5147 35.8536 24.8912 36.4944 25.4018 37.8963C25.6229 38.5034 25.8513 39 25.9093 39C25.9672 39 26.1979 38.5069 26.422 37.9043C27.028 36.2742 27.4709 35.586 28.4565 34.7429C29.1063 34.1869 29.6611 33.8894 30.8621 33.4529C31.4375 33.2437 31.9264 33.0545 31.9487 33.0322C32.0765 32.9044 31.8056 32.7368 31.0536 32.4785C30.5875 32.3183 29.8968 32.0297 29.5187 31.837L28.8312 31.4867L28.0983 30.7532C27.288 29.9421 26.9235 29.3369 26.4308 27.9844C26.0216 26.8613 26.0318 26.8828 25.9088 26.8828C25.8477 26.8828 25.691 27.1826 25.5605 27.5488Z" fill="url(#paint0_linear_381_6196)"/>
<defs>
<linearGradient id="paint0_linear_381_6196" x1="15.9022" y1="-6.2375" x2="15.9022" y2="45.7375" gradientUnits="userSpaceOnUse">
<stop offset="0.0192308" stop-color="#F10168"/>
<stop offset="0.427885" stop-color="#B683F7"/>
<stop offset="1" stop-color="#27009D"/>
</linearGradient>
</defs>
</svg>
