<svg width="40" height="40" viewBox="0 0 40 40" fill="none" xmlns="http://www.w3.org/2000/svg">
<g clip-path="url(#clip0_1900_6815)">
<rect width="40" height="40" rx="12" fill="#F3F9FF"/>
<path d="M20.678 27.957C20.9528 28.021 20.9779 28.3808 20.7103 28.47L19.1303 28.99C15.1603 30.27 13.0703 29.2 11.7803 25.23L10.5003 21.28C9.22034 17.31 10.2803 15.21 14.2503 13.93L14.7743 13.7565C15.1772 13.6231 15.5693 14.0271 15.4549 14.4358C15.3982 14.6384 15.3436 14.8498 15.2903 15.07L14.3103 19.26C13.2103 23.97 14.8203 26.57 19.5303 27.69L20.678 27.957Z" fill="#3FA2F6"/>
<path d="M25.1703 11.21L23.5003 10.82C20.1603 10.03 18.1703 10.68 17.0003 13.1C16.7003 13.71 16.4603 14.45 16.2603 15.3L15.2803 19.49C14.3003 23.67 15.5903 25.73 19.7603 26.72L21.4403 27.12C22.0203 27.26 22.5603 27.35 23.0603 27.39C26.1803 27.69 27.8403 26.23 28.6803 22.62L29.6603 18.44C30.6403 14.26 29.3603 12.19 25.1703 11.21ZM23.2903 21.33C23.2003 21.67 22.9003 21.89 22.5603 21.89C22.5003 21.89 22.4403 21.88 22.3703 21.87L19.4603 21.13C19.0603 21.03 18.8203 20.62 18.9203 20.22C19.0203 19.82 19.4303 19.58 19.8303 19.68L22.7403 20.42C23.1503 20.52 23.3903 20.93 23.2903 21.33ZM26.2203 17.95C26.1303 18.29 25.8303 18.51 25.4903 18.51C25.4303 18.51 25.3703 18.5 25.3003 18.49L20.4503 17.26C20.0503 17.16 19.8103 16.75 19.9103 16.35C20.0103 15.95 20.4203 15.71 20.8203 15.81L25.6703 17.04C26.0803 17.13 26.3203 17.54 26.2203 17.95Z" fill="#3FA2F6"/>
</g>
<defs>
<clipPath id="clip0_1900_6815">
<rect width="40" height="40" rx="12" fill="white"/>
</clipPath>
</defs>
</svg>
