<svg width="14" height="19" viewBox="0 0 14 19" fill="none" xmlns="http://www.w3.org/2000/svg">
<path d="M4.08333 14.5H9.08333M2.08333 0.75H11.0833C11.5501 0.75 11.7834 0.75 11.9617 0.840825C12.1185 0.920725 12.2459 1.04821 12.3258 1.20501C12.4167 1.38327 12.4167 1.61662 12.4167 2.08333V3.8121C12.4167 4.21975 12.4167 4.42358 12.3706 4.61538C12.3298 4.78545 12.2624 4.94802 12.1711 5.09714C12.068 5.26533 11.9238 5.40946 11.6356 5.69772L9.19283 8.1405C8.86283 8.4705 8.69775 8.63558 8.636 8.82583C8.58158 8.99317 8.58158 9.1735 8.636 9.34083C8.69775 9.53108 8.86283 9.69617 9.19283 10.0262L11.6356 12.4689C11.9238 12.7572 12.068 12.9013 12.1711 13.0695C12.2624 13.2187 12.3298 13.3812 12.3706 13.5512C12.4167 13.7431 12.4167 13.9469 12.4167 14.3546V16.0833C12.4167 16.5501 12.4167 16.7834 12.3258 16.9617C12.2459 17.1185 12.1185 17.2459 11.9617 17.3258C11.7834 17.4167 11.5501 17.4167 11.0833 17.4167H2.08333C1.61662 17.4167 1.38327 17.4167 1.20501 17.3258C1.04821 17.2459 0.920725 17.1185 0.840825 16.9617C0.75 16.7834 0.75 16.5501 0.75 16.0833V14.3546C0.75 13.9469 0.75 13.7431 0.79605 13.5512C0.836875 13.3812 0.904217 13.2187 0.9956 13.0695C1.09867 12.9013 1.24279 12.7572 1.53105 12.4689L3.97386 10.0262C4.30388 9.69617 4.46888 9.53108 4.5307 9.34083C4.58508 9.1735 4.58508 8.99317 4.5307 8.82583C4.46888 8.63558 4.30387 8.4705 3.97386 8.1405L1.53105 5.69772C1.2428 5.40947 1.09867 5.26533 0.9956 5.09714C0.904217 4.94802 0.836875 4.78545 0.79605 4.61538C0.75 4.42358 0.75 4.21975 0.75 3.8121V2.08333C0.75 1.61662 0.75 1.38327 0.840825 1.20501C0.920725 1.04821 1.04821 0.920725 1.20501 0.840825C1.38327 0.75 1.61662 0.75 2.08333 0.75Z" stroke="black" stroke-width="1.5" stroke-linecap="round" stroke-linejoin="round"/>
</svg>
