<svg width="11" height="13" viewBox="0 0 11 13" fill="none" xmlns="http://www.w3.org/2000/svg">
<path d="M2.0292 2.9808C2.98545 2.21464 4.17469 1.79805 5.4 1.8C6.675 1.8 7.8468 2.2416 8.7708 2.9808L9.6426 2.109L10.491 2.9574L9.6192 3.8292C10.2538 4.62369 10.6512 5.58122 10.7657 6.59159C10.8801 7.60197 10.707 8.62413 10.2662 9.54045C9.82535 10.4568 9.13476 11.23 8.27389 11.7712C7.41302 12.3123 6.41684 12.5994 5.4 12.5994C4.38317 12.5994 3.38699 12.3123 2.52612 11.7712C1.66524 11.23 0.97466 10.4568 0.533836 9.54045C0.0930126 8.62413 -0.0801347 7.60197 0.0343202 6.59159C0.148775 5.58122 0.546181 4.62369 1.1808 3.8292L0.309003 2.958L1.1574 2.1096L2.0292 2.9814V2.9808ZM5.4 11.4C5.95155 11.4 6.49771 11.2914 7.00727 11.0803C7.51684 10.8692 7.97985 10.5599 8.36985 10.1698C8.75986 9.77984 9.06923 9.31684 9.2803 8.80727C9.49137 8.2977 9.6 7.75155 9.6 7.2C9.6 6.64845 9.49137 6.1023 9.2803 5.59273C9.06923 5.08316 8.75986 4.62016 8.36985 4.23015C7.97985 3.84015 7.51684 3.53078 7.00727 3.31971C6.49771 3.10864 5.95155 3 5.4 3C4.28609 3 3.21781 3.4425 2.43015 4.23015C1.6425 5.0178 1.2 6.08609 1.2 7.2C1.2 8.31391 1.6425 9.3822 2.43015 10.1698C3.21781 10.9575 4.28609 11.4 5.4 11.4ZM6 6.6H7.8L4.8 10.5V7.8H3L6 3.897V6.6ZM3 0H7.8V1.2H3V0Z" fill="#625F6E"/>
</svg>
