<svg width="12" height="7" viewBox="0 0 12 7" fill="none" xmlns="http://www.w3.org/2000/svg">
<path fill-rule="evenodd" clip-rule="evenodd" d="M11.2469 0.128141C11.4177 0.298995 11.4177 0.576005 11.2469 0.746859L6.58019 5.41353C6.40934 5.58438 6.13233 5.58438 5.96147 5.41353L3.9375 3.38955L0.746859 6.58019C0.576005 6.75105 0.298995 6.75105 0.128141 6.58019C-0.0427136 6.40934 -0.0427136 6.13233 0.128141 5.96147L3.62814 2.46147C3.799 2.29062 4.076 2.29062 4.24686 2.46147L6.27083 4.48545L10.6281 0.128141C10.799 -0.0427136 11.076 -0.0427136 11.2469 0.128141Z" fill="#27A376"/>
<path fill-rule="evenodd" clip-rule="evenodd" d="M6.41667 0.4375C6.41667 0.195875 6.61254 0 6.85417 0H10.9375C11.1791 0 11.375 0.195875 11.375 0.4375V4.52083C11.375 4.76246 11.1791 4.95833 10.9375 4.95833C10.6959 4.95833 10.5 4.76246 10.5 4.52083V0.875H6.85417C6.61254 0.875 6.41667 0.679125 6.41667 0.4375Z" fill="#27A376"/>
</svg>
